<?xml version="1.0" encoding="UTF-8"?>
<svg id="Layer_1" data-name="Layer 1" xmlns="http://www.w3.org/2000/svg" xmlns:xlink="http://www.w3.org/1999/xlink" viewBox="0 0 1200 490.6">
  <defs>
    <style>
      .cls-1 {
        fill: #252324;
      }

      .cls-1, .cls-2, .cls-3, .cls-4, .cls-5, .cls-6, .cls-7, .cls-8, .cls-9, .cls-10, .cls-11, .cls-12, .cls-13, .cls-14, .cls-15, .cls-16, .cls-17, .cls-18, .cls-19, .cls-20, .cls-21, .cls-22, .cls-23, .cls-24, .cls-25, .cls-26, .cls-27, .cls-28, .cls-29, .cls-30, .cls-31, .cls-32, .cls-33, .cls-34, .cls-35, .cls-36, .cls-37, .cls-38, .cls-39, .cls-40, .cls-41, .cls-42, .cls-43, .cls-44, .cls-45, .cls-46, .cls-47, .cls-48, .cls-49, .cls-50, .cls-51, .cls-52, .cls-53, .cls-54, .cls-55, .cls-56, .cls-57, .cls-58, .cls-59, .cls-60, .cls-61, .cls-62, .cls-63, .cls-64, .cls-65, .cls-66, .cls-67, .cls-68, .cls-69, .cls-70, .cls-71, .cls-72, .cls-73, .cls-74, .cls-75, .cls-76, .cls-77, .cls-78, .cls-79, .cls-80, .cls-81, .cls-82, .cls-83, .cls-84, .cls-85, .cls-86, .cls-87, .cls-88, .cls-89, .cls-90, .cls-91, .cls-92, .cls-93, .cls-94, .cls-95, .cls-96, .cls-97, .cls-98, .cls-99, .cls-100, .cls-101, .cls-102, .cls-103 {
        stroke: #57459c;
      }

      .cls-1, .cls-2, .cls-3, .cls-4, .cls-5, .cls-6, .cls-7, .cls-8, .cls-9, .cls-10, .cls-11, .cls-12, .cls-13, .cls-14, .cls-15, .cls-16, .cls-17, .cls-18, .cls-19, .cls-20, .cls-21, .cls-22, .cls-23, .cls-24, .cls-25, .cls-26, .cls-27, .cls-28, .cls-29, .cls-30, .cls-31, .cls-32, .cls-33, .cls-34, .cls-35, .cls-36, .cls-37, .cls-38, .cls-39, .cls-40, .cls-41, .cls-42, .cls-43, .cls-44, .cls-45, .cls-46, .cls-47, .cls-48, .cls-49, .cls-50, .cls-51, .cls-52, .cls-53, .cls-54, .cls-55, .cls-56, .cls-57, .cls-58, .cls-59, .cls-60, .cls-61, .cls-62, .cls-63, .cls-65, .cls-66, .cls-67, .cls-68, .cls-69, .cls-70, .cls-71, .cls-72, .cls-73, .cls-74, .cls-75, .cls-76, .cls-77, .cls-78, .cls-79, .cls-80, .cls-81, .cls-82, .cls-83, .cls-84, .cls-85, .cls-86, .cls-87, .cls-88, .cls-89, .cls-90, .cls-91, .cls-92, .cls-93, .cls-94, .cls-95, .cls-96, .cls-97, .cls-98, .cls-99, .cls-100, .cls-101, .cls-102, .cls-103 {
        stroke-linecap: round;
        stroke-linejoin: round;
      }

      .cls-1, .cls-2, .cls-3, .cls-4, .cls-5, .cls-6, .cls-7, .cls-8, .cls-9, .cls-11, .cls-12, .cls-13, .cls-14, .cls-15, .cls-16, .cls-17, .cls-18, .cls-19, .cls-20, .cls-21, .cls-22, .cls-23, .cls-24, .cls-25, .cls-26, .cls-27, .cls-28, .cls-29, .cls-30, .cls-31, .cls-32, .cls-33, .cls-34, .cls-35, .cls-36, .cls-37, .cls-38, .cls-39, .cls-40, .cls-41, .cls-42, .cls-43, .cls-44, .cls-45, .cls-46, .cls-47, .cls-48, .cls-49, .cls-50, .cls-51, .cls-52, .cls-53, .cls-54, .cls-55, .cls-56, .cls-57, .cls-58, .cls-59, .cls-60, .cls-61, .cls-62, .cls-63, .cls-65, .cls-66, .cls-67, .cls-68, .cls-69, .cls-70, .cls-71, .cls-72, .cls-73, .cls-74, .cls-75, .cls-76, .cls-77, .cls-78, .cls-79, .cls-80, .cls-81, .cls-82, .cls-83, .cls-84, .cls-85, .cls-86, .cls-87, .cls-88, .cls-89, .cls-90, .cls-91, .cls-92, .cls-93, .cls-94, .cls-95, .cls-96, .cls-97, .cls-98, .cls-99, .cls-100, .cls-101, .cls-102, .cls-103 {
        stroke-width: 4.83px;
      }

      .cls-2 {
        fill: #443f43;
      }

      .cls-3 {
        fill: #aea1b2;
      }

      .cls-4 {
        fill: #998d9b;
      }

      .cls-5 {
        fill: #d4c6de;
      }

      .cls-6 {
        fill: #4f494e;
      }

      .cls-7 {
        fill: #2f2c2e;
      }

      .cls-8 {
        fill: #564f55;
      }

      .cls-9 {
        fill: #b1a4b5;
      }

      .cls-10 {
        fill: #040404;
        stroke-width: 4.83px;
      }

      .cls-11 {
        fill: #544e53;
      }

      .cls-12 {
        fill: #2d2b2d;
      }

      .cls-13 {
        fill: #7b727c;
      }

      .cls-14 {
        fill: #a094a2;
      }

      .cls-15 {
        fill: #070607;
      }

      .cls-16 {
        fill: #756c75;
      }

      .cls-17 {
        fill: #635b62;
      }

      .cls-18 {
        fill: #cbbdd2;
      }

      .cls-19 {
        fill: #494448;
      }

      .cls-20 {
        fill: #b6a8ba;
      }

      .cls-21 {
        fill: #ac9faf;
      }

      .cls-22 {
        fill: #807680;
      }

      .cls-23 {
        fill: #373336;
      }

      .cls-24 {
        fill: #282628;
      }

      .cls-25 {
        fill: #585157;
      }

      .cls-26 {
        fill: #161516;
      }

      .cls-27 {
        fill: #bbadc0;
      }

      .cls-28 {
        fill: #524c51;
      }

      .cls-29 {
        fill: #2c292b;
      }

      .cls-30 {
        fill: #1f1e1f;
      }

      .cls-31 {
        fill: #a99dad;
      }

      .cls-32 {
        fill: #696068;
      }

      .cls-33 {
        fill: #6b626a;
      }

      .cls-34 {
        fill: #9d91a0;
      }

      .cls-35 {
        fill: #393538;
      }

      .cls-36 {
        fill: #5b545a;
      }

      .cls-37 {
        fill: #595259;
      }

      .cls-38 {
        fill: #948896;
      }

      .cls-39 {
        fill: #3f3b3e;
      }

      .cls-40 {
        fill: #797079;
      }

      .cls-41 {
        fill: #847a85;
      }

      .cls-42 {
        fill: #111;
      }

      .cls-43 {
        fill: #464145;
      }

      .cls-44 {
        fill: #6d646d;
      }

      .cls-45 {
        fill: #655d64;
      }

      .cls-46 {
        fill: #d1c2d9;
      }

      .cls-47 {
        fill: #736a73;
      }

      .cls-48 {
        fill: #3e393d;
      }

      .cls-49 {
        fill: #897e8a;
      }

      .cls-50 {
        fill: #353234;
      }

      .cls-51 {
        fill: #0f0e0f;
      }

      .cls-52 {
        fill: #3c383b;
      }

      .cls-53 {
        fill: #181718;
      }

      .cls-54 {
        fill: #cebfd5;
      }

      .cls-55 {
        fill: #827883;
      }

      .cls-56 {
        fill: #867c87;
      }

      .cls-57 {
        fill: #4b464a;
      }

      .cls-58 {
        fill: #968b98;
      }

      .cls-59 {
        fill: #5d565c;
      }

      .cls-60 {
        fill: #343133;
      }

      .cls-61 {
        fill: #b3a6b8;
      }

      .cls-62 {
        fill: #09090a;
      }

      .cls-63 {
        fill: #232123;
      }

      .cls-64 {
        fill: none;
        stroke-miterlimit: 10;
        stroke-width: .79px;
      }

      .cls-65 {
        fill: #c5b7cc;
      }

      .cls-66 {
        fill: #928693;
      }

      .cls-67 {
        fill: #c8bacf;
      }

      .cls-68 {
        fill: #1b1a1b;
      }

      .cls-69 {
        fill: #9b8f9d;
      }

      .cls-70 {
        fill: #2a2829;
      }

      .cls-71 {
        fill: #0c0c0c;
      }

      .cls-72 {
        fill: #6f666f;
      }

      .cls-73 {
        fill: #4d474c;
      }

      .cls-74 {
        fill: #3a3639;
      }

      .cls-75 {
        fill: #262426;
      }

      .cls-76 {
        fill: #8b808c;
      }

      .cls-77 {
        fill: #beb0c3;
      }

      .cls-78 {
        fill: #504a4f;
      }

      .cls-79 {
        fill: #a79aaa;
      }

      .cls-80 {
        fill: #8d828e;
      }

      .cls-81 {
        fill: #d8cae3;
      }

      .cls-82 {
        fill: #c0b2c6;
      }

      .cls-83 {
        fill: #131313;
      }

      .cls-104 {
        fill: #57459c;
      }

      .cls-84 {
        fill: #b8abbd;
      }

      .cls-85 {
        fill: #8f8491;
      }

      .cls-86 {
        fill: #1a191a;
      }

      .cls-87 {
        fill: #5f585e;
      }

      .cls-88 {
        fill: #a598a7;
      }

      .cls-89 {
        fill: #776e77;
      }

      .cls-90 {
        fill: #010101;
      }

      .cls-91 {
        fill: #716871;
      }

      .cls-92 {
        fill: #7d747e;
      }

      .cls-93 {
        fill: #211f21;
      }

      .cls-94 {
        fill: #615960;
      }

      .cls-95 {
        fill: #c3b5c9;
      }

      .cls-96 {
        fill: #1d1c1d;
      }

      .cls-97 {
        fill: #322f31;
      }

      .cls-98 {
        fill: #484347;
      }

      .cls-105 {
        clip-path: url(#clippath);
      }

      .cls-99 {
        fill: #413c40;
      }

      .cls-100 {
        fill: #675f66;
      }

      .cls-101 {
        fill: #a296a5;
      }

      .cls-102 {
        fill: #312e30;
      }

      .cls-103 {
        fill: #433e42;
      }
    </style>
    <clipPath id="clippath">
      <ellipse class="cls-64" cx="600.2" cy="250.49" rx="21.34" ry="50.99"/>
    </clipPath>
  </defs>
  <g>
    <path class="cls-104" d="M88.34,387.21c1.04,0,2.21,1.17,2.21,2.87v14.32c0,1.69-1.17,2.87-2.21,2.87h-42.19c13.15,6.51,26.3,13.15,39.45,19.66.52.13,1.43,1.69,1.43,2.34v13.67c0,.78-.78,2.21-1.43,2.47h.13l-41.02,21.23h43.62c1.04,0,2.21,1.17,2.21,2.73v14.58c0,1.82-1.17,2.61-2.21,2.61H1.62c-1.17,0-2.34-.78-2.34-2.61v-14.84c0-.91.91-2.21,1.43-2.47l61.98-30.47L.71,407.27c-.65-.26-1.43-1.82-1.43-2.61v-14.58c0-1.69,1.17-2.87,2.34-2.87h86.72Z"/>
    <path class="cls-104" d="M-.6,295.18c0-2.35,2.08-3.52,3.65-2.08v-.13l44.93,32.03h40.36c1.04,0,2.21,1.04,2.21,2.74v14.45c0,1.56-1.17,2.73-2.21,2.73h-40.36c-8.2,5.73-16.41,11.85-24.61,17.58-6.51,4.69-13.8,9.77-20.31,14.45v-.13c-1.56,1.43-3.65.26-3.65-2.08v-17.58c0-.65.26-1.82.91-2.34,9.63-6.77,17.97-13.02,27.6-19.92L.32,315.1c-.52-.52-.91-1.69-.91-2.21v-17.71Z"/>
  </g>
  <path class="cls-104" d="M261.13,3H100.29v80.53l76.69,120.69h-76.69v281.54h80.75v-201.44h80.1s160.63,0,160.63-140.77S261.13,3,261.13,3ZM271.39,203.58l-75.19-120.05h64.94s80.74,0,80.74,60.02c0,46.99-49.13,57.25-70.49,60.02Z"/>
  <g>
    <g>
      <path class="cls-90" d="M534.89,168.67c10.46-66.56,72.89-112.04,139.45-101.58,20.34,3.2,38.67,11.29,54.08,22.83-20.98-36.89-60.57-61.82-106.04-61.82-67.38,0-121.99,54.62-121.99,121.99v238.18l34.5-219.6Z"/>
      <path class="cls-10" d="M534.6,168.48c10.46-66.56,72.89-112.04,139.45-101.58,20.34,3.2,38.67,11.29,54.08,22.83-20.98-36.89-60.57-61.82-106.04-61.82-67.38,0-121.99,54.62-121.99,121.99v238.18l34.5-219.6Z"/>
      <path class="cls-15" d="M534.31,168.29c10.46-66.56,72.89-112.04,139.45-101.58,20.34,3.2,38.67,11.29,54.08,22.83-20.98-36.89-60.57-61.82-106.04-61.82-67.38,0-121.99,54.62-121.99,121.99v238.18l34.5-219.6Z"/>
      <path class="cls-62" d="M534.03,168.1c10.46-66.56,72.89-112.04,139.45-101.58,20.34,3.2,38.67,11.29,54.08,22.83-20.98-36.89-60.57-61.82-106.04-61.82-67.38,0-121.99,54.62-121.99,121.99v238.18l34.5-219.6Z"/>
      <path class="cls-71" d="M533.74,167.9c10.46-66.56,72.89-112.04,139.45-101.58,20.34,3.2,38.67,11.29,54.08,22.83-20.98-36.89-60.57-61.82-106.04-61.82-67.38,0-121.99,54.62-121.99,121.99v238.18l34.5-219.6Z"/>
      <path class="cls-51" d="M533.45,167.71c10.46-66.56,72.89-112.04,139.45-101.58,20.34,3.2,38.67,11.29,54.08,22.83-20.98-36.89-60.57-61.82-106.04-61.82-67.38,0-121.99,54.62-121.99,121.99v238.18l34.5-219.6Z"/>
      <path class="cls-42" d="M533.16,167.52c10.46-66.56,72.89-112.04,139.45-101.58,20.34,3.2,38.67,11.29,54.08,22.83-20.98-36.89-60.57-61.82-106.04-61.82-67.38,0-121.99,54.62-121.99,121.99v238.18l34.5-219.6Z"/>
      <path class="cls-83" d="M532.88,167.33c10.46-66.56,72.89-112.04,139.45-101.58,20.34,3.2,38.67,11.29,54.08,22.83-20.98-36.89-60.57-61.82-106.04-61.82-67.38,0-121.99,54.62-121.99,121.99v238.18l34.5-219.6Z"/>
      <path class="cls-26" d="M532.59,167.14c10.46-66.56,72.89-112.04,139.45-101.58,20.34,3.2,38.67,11.29,54.08,22.83-20.98-36.89-60.57-61.82-106.04-61.82-67.38,0-121.99,54.62-121.99,121.99v238.18l34.5-219.6Z"/>
      <path class="cls-53" d="M532.3,166.95c10.46-66.56,72.89-112.04,139.45-101.58,20.34,3.2,38.67,11.29,54.08,22.83-20.98-36.89-60.57-61.82-106.04-61.82-67.38,0-121.99,54.62-121.99,121.99v238.18l34.5-219.6Z"/>
      <path class="cls-86" d="M532.02,166.76c10.46-66.56,72.89-112.04,139.45-101.58,20.34,3.2,38.67,11.29,54.08,22.83-20.98-36.89-60.57-61.82-106.04-61.82-67.38,0-121.99,54.62-121.99,121.99v238.18l34.5-219.6Z"/>
      <path class="cls-68" d="M531.73,166.56c10.46-66.56,72.89-112.04,139.45-101.58,20.34,3.2,38.67,11.29,54.08,22.83-20.98-36.89-60.57-61.82-106.04-61.82-67.38,0-121.99,54.62-121.99,121.99v238.18l34.5-219.6Z"/>
      <path class="cls-96" d="M531.44,166.37c10.46-66.56,72.89-112.04,139.45-101.58,20.34,3.2,38.67,11.29,54.08,22.83-20.98-36.89-60.57-61.82-106.04-61.82-67.38,0-121.99,54.62-121.99,121.99v238.18l34.5-219.6Z"/>
      <path class="cls-30" d="M531.15,166.18c10.46-66.56,72.89-112.04,139.45-101.58,20.34,3.2,38.67,11.29,54.08,22.83-20.98-36.89-60.57-61.82-106.04-61.82-67.38,0-121.99,54.62-121.99,121.99v238.18l34.5-219.6Z"/>
      <path class="cls-93" d="M530.87,165.99c10.46-66.56,72.89-112.04,139.45-101.58,20.34,3.2,38.67,11.29,54.08,22.83-20.98-36.89-60.57-61.82-106.04-61.82-67.38,0-121.99,54.62-121.99,121.99v238.18l34.5-219.6Z"/>
      <path class="cls-63" d="M530.58,165.8c10.46-66.56,72.89-112.04,139.45-101.58,20.34,3.2,38.67,11.29,54.08,22.83-20.98-36.89-60.57-61.82-106.04-61.82-67.38,0-121.99,54.62-121.99,121.99v238.18l34.5-219.6Z"/>
      <path class="cls-1" d="M530.29,165.61c10.46-66.56,72.89-112.04,139.45-101.58,20.34,3.2,38.67,11.29,54.08,22.83-20.98-36.89-60.57-61.82-106.04-61.82-67.38,0-121.99,54.62-121.99,121.99v238.18l34.5-219.6Z"/>
      <path class="cls-75" d="M530.01,165.42c10.46-66.56,72.89-112.04,139.45-101.58,20.34,3.2,38.67,11.29,54.08,22.83-20.98-36.89-60.57-61.82-106.04-61.82-67.38,0-121.99,54.62-121.99,121.99v238.18l34.5-219.6Z"/>
      <path class="cls-24" d="M529.72,165.22c10.46-66.56,72.89-112.04,139.45-101.58,20.34,3.2,38.67,11.29,54.08,22.83-20.98-36.89-60.57-61.82-106.04-61.82-67.38,0-121.99,54.62-121.99,121.99v238.18l34.5-219.6Z"/>
      <path class="cls-70" d="M529.43,165.03c10.46-66.56,72.89-112.04,139.45-101.58,20.34,3.2,38.67,11.29,54.08,22.83-20.98-36.89-60.57-61.82-106.04-61.82-67.38,0-121.99,54.62-121.99,121.99v238.18l34.5-219.6Z"/>
      <path class="cls-29" d="M529.14,164.84c10.46-66.56,72.89-112.04,139.45-101.58,20.34,3.2,38.67,11.29,54.08,22.83-20.98-36.89-60.57-61.82-106.04-61.82-67.38,0-121.99,54.62-121.99,121.99v238.18l34.5-219.6Z"/>
      <path class="cls-12" d="M528.86,164.65c10.46-66.56,72.89-112.04,139.45-101.58,20.34,3.2,38.67,11.29,54.08,22.83-20.98-36.89-60.57-61.82-106.04-61.82-67.38,0-121.99,54.62-121.99,121.99v238.18l34.5-219.6Z"/>
      <path class="cls-7" d="M528.57,164.46c10.46-66.56,72.89-112.04,139.45-101.58,20.34,3.2,38.67,11.29,54.08,22.83-20.98-36.89-60.57-61.82-106.04-61.82-67.38,0-121.99,54.62-121.99,121.99v238.18l34.5-219.6Z"/>
      <path class="cls-102" d="M528.28,164.27c10.46-66.56,72.89-112.04,139.45-101.58,20.34,3.2,38.67,11.29,54.08,22.83-20.98-36.89-60.57-61.82-106.04-61.82-67.38,0-121.99,54.62-121.99,121.99v238.18l34.5-219.6Z"/>
      <path class="cls-97" d="M528,164.08c10.46-66.56,72.89-112.04,139.45-101.58,20.34,3.2,38.67,11.29,54.08,22.83-20.98-36.89-60.57-61.82-106.04-61.82-67.38,0-121.99,54.62-121.99,121.99v238.18l34.5-219.6Z"/>
      <path class="cls-60" d="M527.71,163.88c10.46-66.56,72.89-112.04,139.45-101.58,20.34,3.2,38.67,11.29,54.08,22.83-20.98-36.89-60.57-61.82-106.04-61.82-67.38,0-121.99,54.62-121.99,121.99v238.18l34.5-219.6Z"/>
      <path class="cls-50" d="M527.42,163.69c10.46-66.56,72.89-112.04,139.45-101.58,20.34,3.2,38.67,11.29,54.08,22.83-20.98-36.89-60.57-61.82-106.04-61.82-67.38,0-121.99,54.62-121.99,121.99v238.18l34.5-219.6Z"/>
      <path class="cls-23" d="M527.13,163.5c10.46-66.56,72.89-112.04,139.45-101.58,20.34,3.2,38.67,11.29,54.08,22.83-20.98-36.89-60.57-61.82-106.04-61.82-67.38,0-121.99,54.62-121.99,121.99v238.18l34.5-219.6Z"/>
      <path class="cls-35" d="M526.85,163.31c10.46-66.56,72.89-112.04,139.45-101.58,20.34,3.2,38.67,11.29,54.08,22.83-20.98-36.89-60.57-61.82-106.04-61.82-67.38,0-121.99,54.62-121.99,121.99v238.18l34.5-219.6Z"/>
      <path class="cls-74" d="M526.56,163.12c10.46-66.56,72.89-112.04,139.45-101.58,20.34,3.2,38.67,11.29,54.08,22.83-20.98-36.89-60.57-61.82-106.04-61.82-67.38,0-121.99,54.62-121.99,121.99v238.18l34.5-219.6Z"/>
      <path class="cls-52" d="M526.27,162.93c10.46-66.56,72.89-112.04,139.45-101.58,20.34,3.2,38.67,11.29,54.08,22.83-20.98-36.89-60.57-61.82-106.04-61.82-67.38,0-121.99,54.62-121.99,121.99v238.18l34.5-219.6Z"/>
      <path class="cls-48" d="M525.99,162.74c10.46-66.56,72.89-112.04,139.45-101.58,20.34,3.2,38.67,11.29,54.08,22.83-20.98-36.89-60.57-61.82-106.04-61.82-67.38,0-121.99,54.62-121.99,121.99v238.18l34.5-219.6Z"/>
      <path class="cls-39" d="M525.7,162.54c10.46-66.56,72.89-112.04,139.45-101.58,20.34,3.2,38.67,11.29,54.08,22.83-20.98-36.89-60.57-61.82-106.04-61.82-67.38,0-121.99,54.62-121.99,121.99v238.18l34.5-219.6Z"/>
      <path class="cls-99" d="M525.41,162.35c10.46-66.56,72.89-112.04,139.45-101.58,20.34,3.2,38.67,11.29,54.08,22.83-20.98-36.89-60.57-61.82-106.04-61.82-67.38,0-121.99,54.62-121.99,121.99v238.18l34.5-219.6Z"/>
      <path class="cls-103" d="M525.12,162.16c10.46-66.56,72.89-112.04,139.45-101.58,20.34,3.2,38.67,11.29,54.08,22.83-20.98-36.89-60.57-61.82-106.04-61.82-67.38,0-121.99,54.62-121.99,121.99v238.18l34.5-219.6Z"/>
      <path class="cls-2" d="M524.84,161.97c10.46-66.56,72.89-112.04,139.45-101.58,20.34,3.2,38.67,11.29,54.08,22.83-20.98-36.89-60.57-61.82-106.04-61.82-67.38,0-121.99,54.62-121.99,121.99v238.18l34.5-219.6Z"/>
      <path class="cls-43" d="M524.55,161.78c10.46-66.56,72.89-112.04,139.45-101.58,20.34,3.2,38.67,11.29,54.08,22.83-20.98-36.89-60.57-61.82-106.04-61.82-67.38,0-121.99,54.62-121.99,121.99v238.18l34.5-219.6Z"/>
      <path class="cls-98" d="M524.26,161.59c10.46-66.56,72.89-112.04,139.45-101.58,20.34,3.2,38.67,11.29,54.08,22.83-20.98-36.89-60.57-61.82-106.04-61.82-67.38,0-121.99,54.62-121.99,121.99v238.18l34.5-219.6Z"/>
      <path class="cls-19" d="M523.98,161.4c10.46-66.56,72.89-112.04,139.45-101.58,20.34,3.2,38.67,11.29,54.08,22.83-20.98-36.89-60.57-61.82-106.04-61.82-67.38,0-121.99,54.62-121.99,121.99v238.18l34.5-219.6Z"/>
      <path class="cls-57" d="M523.69,161.2c10.46-66.56,72.89-112.04,139.45-101.58,20.34,3.2,38.67,11.29,54.08,22.83-20.98-36.89-60.57-61.82-106.04-61.82-67.38,0-121.99,54.62-121.99,121.99v238.18l34.5-219.6Z"/>
      <path class="cls-73" d="M523.4,161.01c10.46-66.56,72.89-112.04,139.45-101.58,20.34,3.2,38.67,11.29,54.08,22.83-20.98-36.89-60.57-61.82-106.04-61.82-67.38,0-121.99,54.62-121.99,121.99v238.18l34.5-219.6Z"/>
      <path class="cls-6" d="M523.11,160.82c10.46-66.56,72.89-112.04,139.45-101.58,20.34,3.2,38.67,11.29,54.08,22.83-20.98-36.89-60.57-61.82-106.04-61.82-67.38,0-121.99,54.62-121.99,121.99v238.18l34.5-219.6Z"/>
      <path class="cls-78" d="M522.83,160.63c10.46-66.56,72.89-112.04,139.45-101.58,20.34,3.2,38.67,11.29,54.08,22.83-20.98-36.89-60.57-61.82-106.04-61.82-67.38,0-121.99,54.62-121.99,121.99v238.18l34.5-219.6Z"/>
      <path class="cls-28" d="M522.54,160.44c10.46-66.56,72.89-112.04,139.45-101.58,20.34,3.2,38.67,11.29,54.08,22.83-20.98-36.89-60.57-61.82-106.04-61.82-67.38,0-121.99,54.62-121.99,121.99v238.18l34.5-219.6Z"/>
      <path class="cls-11" d="M522.25,160.25c10.46-66.56,72.89-112.04,139.45-101.58,20.34,3.2,38.67,11.29,54.08,22.83-20.98-36.89-60.57-61.82-106.04-61.82-67.38,0-121.99,54.62-121.99,121.99v238.18l34.5-219.6Z"/>
      <path class="cls-8" d="M521.97,160.05c10.46-66.56,72.89-112.04,139.45-101.58,20.34,3.2,38.67,11.29,54.08,22.83-20.98-36.89-60.57-61.82-106.04-61.82-67.38,0-121.99,54.62-121.99,121.99v238.18l34.5-219.6Z"/>
      <path class="cls-25" d="M521.68,159.86c10.46-66.56,72.89-112.04,139.45-101.58,20.34,3.2,38.67,11.29,54.08,22.83-20.98-36.89-60.57-61.82-106.04-61.82-67.38,0-121.99,54.62-121.99,121.99v238.18l34.5-219.6Z"/>
      <path class="cls-37" d="M521.39,159.67c10.46-66.56,72.89-112.04,139.45-101.58,20.34,3.2,38.67,11.29,54.08,22.83-20.98-36.89-60.57-61.82-106.04-61.82-67.38,0-121.99,54.62-121.99,121.99v238.18l34.5-219.6Z"/>
      <path class="cls-36" d="M521.1,159.48c10.46-66.56,72.89-112.04,139.45-101.58,20.34,3.2,38.67,11.29,54.08,22.83-20.98-36.89-60.57-61.82-106.04-61.82-67.38,0-121.99,54.62-121.99,121.99v238.18l34.5-219.6Z"/>
      <path class="cls-59" d="M520.82,159.29c10.46-66.56,72.89-112.04,139.45-101.58,20.34,3.2,38.67,11.29,54.08,22.83-20.98-36.89-60.57-61.82-106.04-61.82-67.38,0-121.99,54.62-121.99,121.99v238.18l34.5-219.6Z"/>
      <path class="cls-87" d="M520.53,159.1c10.46-66.56,72.89-112.04,139.45-101.58,20.34,3.2,38.67,11.29,54.08,22.83-20.98-36.89-60.57-61.82-106.04-61.82-67.38,0-121.99,54.62-121.99,121.99v238.18l34.5-219.6Z"/>
      <path class="cls-94" d="M520.24,158.91c10.46-66.56,72.89-112.04,139.45-101.58,20.34,3.2,38.67,11.29,54.08,22.83-20.98-36.89-60.57-61.82-106.04-61.82-67.38,0-121.99,54.62-121.99,121.99v238.18l34.5-219.6Z"/>
      <path class="cls-17" d="M519.96,158.71c10.46-66.56,72.89-112.04,139.45-101.58,20.34,3.2,38.67,11.29,54.08,22.83-20.98-36.89-60.57-61.82-106.04-61.82-67.38,0-121.99,54.62-121.99,121.99v238.18l34.5-219.6Z"/>
      <path class="cls-45" d="M519.67,158.52c10.46-66.56,72.89-112.04,139.45-101.58,20.34,3.2,38.67,11.29,54.08,22.83-20.98-36.89-60.57-61.82-106.04-61.82-67.38,0-121.99,54.62-121.99,121.99v238.18l34.5-219.6Z"/>
      <path class="cls-100" d="M519.38,158.33c10.46-66.56,72.89-112.04,139.45-101.58,20.34,3.2,38.67,11.29,54.08,22.83-20.98-36.89-60.57-61.82-106.04-61.82-67.38,0-121.99,54.62-121.99,121.99v238.18l34.5-219.6Z"/>
      <path class="cls-32" d="M519.09,158.14c10.46-66.56,72.89-112.04,139.45-101.58,20.34,3.2,38.67,11.29,54.08,22.83-20.98-36.89-60.57-61.82-106.04-61.82-67.38,0-121.99,54.62-121.99,121.99v238.18l34.5-219.6Z"/>
      <path class="cls-33" d="M518.81,157.95c10.46-66.56,72.89-112.04,139.45-101.58,20.34,3.2,38.67,11.29,54.08,22.83-20.98-36.89-60.57-61.82-106.04-61.82-67.38,0-121.99,54.62-121.99,121.99v238.18l34.5-219.6Z"/>
      <path class="cls-44" d="M518.52,157.76c10.46-66.56,72.89-112.04,139.45-101.58,20.34,3.2,38.67,11.29,54.08,22.83-20.98-36.89-60.57-61.82-106.04-61.82-67.38,0-121.99,54.62-121.99,121.99v238.18l34.5-219.6Z"/>
      <path class="cls-72" d="M518.23,157.57c10.46-66.56,72.89-112.04,139.45-101.58,20.34,3.2,38.67,11.29,54.08,22.83-20.98-36.89-60.57-61.82-106.04-61.82-67.38,0-121.99,54.62-121.99,121.99v238.18l34.5-219.6Z"/>
      <path class="cls-91" d="M517.94,157.37c10.46-66.56,72.89-112.04,139.45-101.58,20.34,3.2,38.67,11.29,54.08,22.83-20.98-36.89-60.57-61.82-106.04-61.82-67.38,0-121.99,54.62-121.99,121.99v238.18l34.5-219.6Z"/>
      <path class="cls-47" d="M517.66,157.18c10.46-66.56,72.89-112.04,139.45-101.58,20.34,3.2,38.67,11.29,54.08,22.83-20.98-36.89-60.57-61.82-106.04-61.82-67.38,0-121.99,54.62-121.99,121.99v238.18l34.5-219.6Z"/>
      <path class="cls-16" d="M517.37,156.99c10.46-66.56,72.89-112.04,139.45-101.58,20.34,3.2,38.67,11.29,54.08,22.83-20.98-36.89-60.57-61.82-106.04-61.82-67.38,0-121.99,54.62-121.99,121.99v238.18l34.5-219.6Z"/>
      <path class="cls-89" d="M517.08,156.8c10.46-66.56,72.89-112.04,139.45-101.58,20.34,3.2,38.67,11.29,54.08,22.83-20.98-36.89-60.57-61.82-106.04-61.82-67.38,0-121.99,54.62-121.99,121.99v238.18l34.5-219.6Z"/>
      <path class="cls-40" d="M516.8,156.61c10.46-66.56,72.89-112.04,139.45-101.58,20.34,3.2,38.67,11.29,54.08,22.83-20.98-36.89-60.57-61.82-106.04-61.82-67.38,0-121.99,54.62-121.99,121.99v238.18l34.5-219.6Z"/>
      <path class="cls-13" d="M516.51,156.42c10.46-66.56,72.89-112.04,139.45-101.58,20.34,3.2,38.67,11.29,54.08,22.83-20.98-36.89-60.57-61.82-106.04-61.82-67.38,0-121.99,54.62-121.99,121.99v238.18l34.5-219.6Z"/>
      <path class="cls-92" d="M516.22,156.23c10.46-66.56,72.89-112.04,139.45-101.58,20.34,3.2,38.67,11.29,54.08,22.83-20.98-36.89-60.57-61.82-106.04-61.82-67.38,0-121.99,54.62-121.99,121.99v238.18l34.5-219.6Z"/>
      <path class="cls-22" d="M515.93,156.03c10.46-66.56,72.89-112.04,139.45-101.58,20.34,3.2,38.67,11.29,54.08,22.83-20.98-36.89-60.57-61.82-106.04-61.82-67.38,0-121.99,54.62-121.99,121.99v238.18l34.5-219.6Z"/>
      <path class="cls-55" d="M515.65,155.84c10.46-66.56,72.89-112.04,139.45-101.58,20.34,3.2,38.67,11.29,54.08,22.83-20.98-36.89-60.57-61.82-106.04-61.82-67.38,0-121.99,54.62-121.99,121.99v238.18l34.5-219.6Z"/>
      <path class="cls-41" d="M515.36,155.65c10.46-66.56,72.89-112.04,139.45-101.58,20.34,3.2,38.67,11.29,54.08,22.83-20.98-36.89-60.57-61.82-106.04-61.82-67.38,0-121.99,54.62-121.99,121.99v238.18l34.5-219.6Z"/>
      <path class="cls-56" d="M515.07,155.46c10.46-66.56,72.89-112.04,139.45-101.58,20.34,3.2,38.67,11.29,54.08,22.83-20.98-36.89-60.57-61.82-106.04-61.82-67.38,0-121.99,54.62-121.99,121.99v238.18l34.5-219.6Z"/>
      <path class="cls-49" d="M514.79,155.27c10.46-66.56,72.89-112.04,139.45-101.58,20.34,3.2,38.67,11.29,54.08,22.83-20.98-36.89-60.57-61.82-106.04-61.82-67.38,0-121.99,54.62-121.99,121.99v238.18l34.5-219.6Z"/>
      <path class="cls-76" d="M514.5,155.08c10.46-66.56,72.89-112.04,139.45-101.58,20.34,3.2,38.67,11.29,54.08,22.83-20.98-36.89-60.57-61.82-106.04-61.82-67.38,0-121.99,54.62-121.99,121.99v238.18l34.5-219.6Z"/>
      <path class="cls-80" d="M514.21,154.89c10.46-66.56,72.89-112.04,139.45-101.58,20.34,3.2,38.67,11.29,54.08,22.83-20.98-36.89-60.57-61.82-106.04-61.82-67.38,0-121.99,54.62-121.99,121.99v238.18l34.5-219.6Z"/>
      <path class="cls-85" d="M513.92,154.69c10.46-66.56,72.89-112.04,139.45-101.58,20.34,3.2,38.67,11.29,54.08,22.83-20.98-36.89-60.57-61.82-106.04-61.82-67.38,0-121.99,54.62-121.99,121.99v238.18l34.5-219.6Z"/>
      <path class="cls-66" d="M513.64,154.5c10.46-66.56,72.89-112.04,139.45-101.58,20.34,3.2,38.67,11.29,54.08,22.83-20.98-36.89-60.57-61.82-106.04-61.82-67.38,0-121.99,54.62-121.99,121.99v238.18l34.5-219.6Z"/>
      <path class="cls-38" d="M513.35,154.31c10.46-66.56,72.89-112.04,139.45-101.58,20.34,3.2,38.67,11.29,54.08,22.83-20.98-36.89-60.57-61.82-106.04-61.82-67.38,0-121.99,54.62-121.99,121.99v238.18l34.5-219.6Z"/>
      <path class="cls-58" d="M513.06,154.12c10.46-66.56,72.89-112.04,139.45-101.58,20.34,3.2,38.67,11.29,54.08,22.83-20.98-36.89-60.57-61.82-106.04-61.82-67.38,0-121.99,54.62-121.99,121.99v238.18l34.5-219.6Z"/>
      <path class="cls-4" d="M512.78,153.93c10.46-66.56,72.89-112.04,139.45-101.58,20.34,3.2,38.67,11.29,54.08,22.83-20.98-36.89-60.57-61.82-106.04-61.82-67.38,0-121.99,54.62-121.99,121.99v238.18l34.5-219.6Z"/>
      <path class="cls-69" d="M512.49,153.74c10.46-66.56,72.89-112.04,139.45-101.58,20.34,3.2,38.67,11.29,54.08,22.83-20.98-36.89-60.57-61.82-106.04-61.82-67.38,0-121.99,54.62-121.99,121.99v238.18l34.5-219.6Z"/>
      <path class="cls-34" d="M512.2,153.55c10.46-66.56,72.89-112.04,139.45-101.58,20.34,3.2,38.67,11.29,54.08,22.83-20.98-36.89-60.57-61.82-106.04-61.82-67.38,0-121.99,54.62-121.99,121.99v238.18l34.5-219.6Z"/>
      <path class="cls-14" d="M511.91,153.35c10.46-66.56,72.89-112.04,139.45-101.58,20.34,3.2,38.67,11.29,54.08,22.83-20.98-36.89-60.57-61.82-106.04-61.82-67.38,0-121.99,54.62-121.99,121.99v238.18l34.5-219.6Z"/>
      <path class="cls-101" d="M511.63,153.16c10.46-66.56,72.89-112.04,139.45-101.58,20.34,3.2,38.67,11.29,54.08,22.83-20.98-36.89-60.57-61.82-106.04-61.82-67.38,0-121.99,54.62-121.99,121.99v238.18l34.5-219.6Z"/>
      <path class="cls-88" d="M511.34,152.97c10.46-66.56,72.89-112.04,139.45-101.58,20.34,3.2,38.67,11.29,54.08,22.83-20.98-36.89-60.57-61.82-106.04-61.82-67.38,0-121.99,54.62-121.99,121.99v238.18l34.5-219.6Z"/>
      <path class="cls-79" d="M511.05,152.78c10.46-66.56,72.89-112.04,139.45-101.58,20.34,3.2,38.67,11.29,54.08,22.83-20.98-36.89-60.57-61.82-106.04-61.82-67.38,0-121.99,54.62-121.99,121.99v238.18l34.5-219.6Z"/>
      <path class="cls-31" d="M510.77,152.59c10.46-66.56,72.89-112.04,139.45-101.58,20.34,3.2,38.67,11.29,54.08,22.83-20.98-36.89-60.57-61.82-106.04-61.82-67.38,0-121.99,54.62-121.99,121.99v238.18l34.5-219.6Z"/>
      <path class="cls-21" d="M510.48,152.4c10.46-66.56,72.89-112.04,139.45-101.58,20.34,3.2,38.67,11.29,54.08,22.83-20.98-36.89-60.57-61.82-106.04-61.82-67.38,0-121.99,54.62-121.99,121.99v238.18l34.5-219.6Z"/>
      <path class="cls-3" d="M510.19,152.21c10.46-66.56,72.89-112.04,139.45-101.58,20.34,3.2,38.67,11.29,54.08,22.83-20.98-36.89-60.57-61.82-106.04-61.82-67.38,0-121.99,54.62-121.99,121.99v238.18l34.5-219.6Z"/>
      <path class="cls-9" d="M509.9,152.01c10.46-66.56,72.89-112.04,139.45-101.58,20.34,3.2,38.67,11.29,54.08,22.83-20.98-36.89-60.57-61.82-106.04-61.82-67.38,0-121.99,54.62-121.99,121.99v238.18l34.5-219.6Z"/>
      <path class="cls-61" d="M509.62,151.82c10.46-66.56,72.89-112.04,139.45-101.58,20.34,3.2,38.67,11.29,54.08,22.83-20.98-36.89-60.57-61.82-106.04-61.82-67.38,0-121.99,54.62-121.99,121.99v238.18l34.5-219.6Z"/>
      <path class="cls-20" d="M509.33,151.63c10.46-66.56,72.89-112.04,139.45-101.58,20.34,3.2,38.67,11.29,54.08,22.83-20.98-36.89-60.57-61.82-106.04-61.82-67.38,0-121.99,54.62-121.99,121.99v238.18l34.5-219.6Z"/>
      <path class="cls-84" d="M509.04,151.44c10.46-66.56,72.89-112.04,139.45-101.58,20.34,3.2,38.67,11.29,54.08,22.83-20.98-36.89-60.57-61.82-106.04-61.82-67.38,0-121.99,54.62-121.99,121.99v238.18l34.5-219.6Z"/>
      <path class="cls-27" d="M508.76,151.25c10.46-66.56,72.89-112.04,139.45-101.58,20.34,3.2,38.67,11.29,54.08,22.83-20.98-36.89-60.57-61.82-106.04-61.82-67.38,0-121.99,54.62-121.99,121.99v238.18l34.5-219.6Z"/>
      <path class="cls-77" d="M508.47,151.06c10.46-66.56,72.89-112.04,139.45-101.58,20.34,3.2,38.67,11.29,54.08,22.83-20.98-36.89-60.57-61.82-106.04-61.82-67.38,0-121.99,54.62-121.99,121.99v238.18l34.5-219.6Z"/>
      <path class="cls-82" d="M508.18,150.87c10.46-66.56,72.89-112.04,139.45-101.58,20.34,3.2,38.67,11.29,54.08,22.83-20.98-36.89-60.57-61.82-106.04-61.82-67.38,0-121.99,54.62-121.99,121.99v238.18l34.5-219.6Z"/>
      <path class="cls-95" d="M507.89,150.67c10.46-66.56,72.89-112.04,139.45-101.58,20.34,3.2,38.67,11.29,54.08,22.83-20.98-36.89-60.57-61.82-106.04-61.82-67.38,0-121.99,54.62-121.99,121.99v238.18l34.5-219.6Z"/>
      <path class="cls-65" d="M507.61,150.48c10.46-66.56,72.89-112.04,139.45-101.58,20.34,3.2,38.67,11.29,54.08,22.83-20.98-36.89-60.57-61.82-106.04-61.82-67.38,0-121.99,54.62-121.99,121.99v238.18l34.5-219.6Z"/>
      <path class="cls-67" d="M507.32,150.29c10.46-66.56,72.89-112.04,139.45-101.58,20.34,3.2,38.67,11.29,54.08,22.83-20.98-36.89-60.57-61.82-106.04-61.82-67.38,0-121.99,54.62-121.99,121.99v238.18l34.5-219.6Z"/>
      <path class="cls-18" d="M507.03,150.1c10.46-66.56,72.89-112.04,139.45-101.58,20.34,3.2,38.67,11.29,54.08,22.83-20.98-36.89-60.57-61.82-106.04-61.82-67.38,0-121.99,54.62-121.99,121.99v238.18l34.5-219.6Z"/>
      <path class="cls-54" d="M506.75,149.91c10.46-66.56,72.89-112.04,139.45-101.58,20.34,3.2,38.67,11.29,54.08,22.83-20.98-36.89-60.57-61.82-106.04-61.82-67.38,0-121.99,54.62-121.99,121.99v238.18l34.5-219.6Z"/>
      <path class="cls-46" d="M506.46,149.72c10.46-66.56,72.89-112.04,139.45-101.58,20.34,3.2,38.67,11.29,54.08,22.83-20.98-36.89-60.57-61.82-106.04-61.82-67.38,0-121.99,54.62-121.99,121.99v238.18l34.5-219.6Z"/>
      <path class="cls-5" d="M506.17,149.53c10.46-66.56,72.89-112.04,139.45-101.58,20.34,3.2,38.67,11.29,54.08,22.83-20.98-36.89-60.57-61.82-106.04-61.82-67.38,0-121.99,54.62-121.99,121.99v238.18l34.5-219.6Z"/>
      <path class="cls-81" d="M505.88,149.33c10.46-66.56,72.89-112.04,139.45-101.58,20.34,3.2,38.67,11.29,54.08,22.83-20.98-36.89-60.57-61.82-106.04-61.82-67.38,0-121.99,54.62-121.99,121.99v238.18l34.5-219.6Z"/>
    </g>
    <g>
      <path class="cls-90" d="M693.92,345.99c-10.46,66.56-72.89,112.04-139.45,101.58-20.34-3.2-38.67-11.29-54.08-22.83,20.98,36.89,60.57,61.82,106.04,61.82,67.38,0,121.99-54.62,121.99-121.99V126.4l-34.5,219.6Z"/>
      <path class="cls-10" d="M693.63,345.8c-10.46,66.56-72.89,112.04-139.45,101.58-20.34-3.2-38.67-11.29-54.08-22.83,20.98,36.89,60.57,61.82,106.04,61.82,67.38,0,121.99-54.62,121.99-121.99V126.2l-34.5,219.6Z"/>
      <path class="cls-15" d="M693.34,345.61c-10.46,66.56-72.89,112.04-139.45,101.58-20.34-3.2-38.67-11.29-54.08-22.83,20.98,36.89,60.57,61.82,106.04,61.82,67.38,0,121.99-54.62,121.99-121.99V126.01l-34.5,219.6Z"/>
      <path class="cls-62" d="M693.06,345.42c-10.46,66.56-72.89,112.04-139.45,101.58-20.34-3.2-38.67-11.29-54.08-22.83,20.98,36.89,60.57,61.82,106.04,61.82,67.38,0,121.99-54.62,121.99-121.99V125.82l-34.5,219.6Z"/>
      <path class="cls-71" d="M692.77,345.23c-10.46,66.56-72.89,112.04-139.45,101.58-20.34-3.2-38.67-11.29-54.08-22.83,20.98,36.89,60.57,61.82,106.04,61.82,67.38,0,121.99-54.62,121.99-121.99V125.63l-34.5,219.6Z"/>
      <path class="cls-51" d="M692.48,345.03c-10.46,66.56-72.89,112.04-139.45,101.58-20.34-3.2-38.67-11.29-54.08-22.83,20.98,36.89,60.57,61.82,106.04,61.82,67.38,0,121.99-54.62,121.99-121.99V125.44l-34.5,219.6Z"/>
      <path class="cls-42" d="M692.19,344.84c-10.46,66.56-72.89,112.04-139.45,101.58-20.34-3.2-38.67-11.29-54.08-22.83,20.98,36.89,60.57,61.82,106.04,61.82,67.38,0,121.99-54.62,121.99-121.99V125.25l-34.5,219.6Z"/>
      <path class="cls-83" d="M691.91,344.65c-10.46,66.56-72.89,112.04-139.45,101.58-20.34-3.2-38.67-11.29-54.08-22.83,20.98,36.89,60.57,61.82,106.04,61.82,67.38,0,121.99-54.62,121.99-121.99V125.06l-34.5,219.6Z"/>
      <path class="cls-26" d="M691.62,344.46c-10.46,66.56-72.89,112.04-139.45,101.58-20.34-3.2-38.67-11.29-54.08-22.83,20.98,36.89,60.57,61.82,106.04,61.82,67.38,0,121.99-54.62,121.99-121.99V124.86l-34.5,219.6Z"/>
      <path class="cls-53" d="M691.33,344.27c-10.46,66.56-72.89,112.04-139.45,101.58-20.34-3.2-38.67-11.29-54.08-22.83,20.98,36.89,60.57,61.82,106.04,61.82,67.38,0,121.99-54.62,121.99-121.99V124.67l-34.5,219.6Z"/>
      <path class="cls-86" d="M691.05,344.08c-10.46,66.56-72.89,112.04-139.45,101.58-20.34-3.2-38.67-11.29-54.08-22.83,20.98,36.89,60.57,61.82,106.04,61.82,67.38,0,121.99-54.62,121.99-121.99V124.48l-34.5,219.6Z"/>
      <path class="cls-68" d="M690.76,343.89c-10.46,66.56-72.89,112.04-139.45,101.58-20.34-3.2-38.67-11.29-54.08-22.83,20.98,36.89,60.57,61.82,106.04,61.82,67.38,0,121.99-54.62,121.99-121.99V124.29l-34.5,219.6Z"/>
      <path class="cls-96" d="M690.47,343.69c-10.46,66.56-72.89,112.04-139.45,101.58-20.34-3.2-38.67-11.29-54.08-22.83,20.98,36.89,60.57,61.82,106.04,61.82,67.38,0,121.99-54.62,121.99-121.99V124.1l-34.5,219.6Z"/>
      <path class="cls-30" d="M690.18,343.5c-10.46,66.56-72.89,112.04-139.45,101.58-20.34-3.2-38.67-11.29-54.08-22.83,20.98,36.89,60.57,61.82,106.04,61.82,67.38,0,121.99-54.62,121.99-121.99V123.91l-34.5,219.6Z"/>
      <path class="cls-93" d="M689.9,343.31c-10.46,66.56-72.89,112.04-139.45,101.58-20.34-3.2-38.67-11.29-54.08-22.83,20.98,36.89,60.57,61.82,106.04,61.82,67.38,0,121.99-54.62,121.99-121.99V123.72l-34.5,219.6Z"/>
      <path class="cls-63" d="M689.61,343.12c-10.46,66.56-72.89,112.04-139.45,101.58-20.34-3.2-38.67-11.29-54.08-22.83,20.98,36.89,60.57,61.82,106.04,61.82,67.38,0,121.99-54.62,121.99-121.99V123.52l-34.5,219.6Z"/>
      <path class="cls-1" d="M689.32,342.93c-10.46,66.56-72.89,112.04-139.45,101.58-20.34-3.2-38.67-11.29-54.08-22.83,20.98,36.89,60.57,61.82,106.04,61.82,67.38,0,121.99-54.62,121.99-121.99V123.33l-34.5,219.6Z"/>
      <path class="cls-75" d="M689.04,342.74c-10.46,66.56-72.89,112.04-139.45,101.58-20.34-3.2-38.67-11.29-54.08-22.83,20.98,36.89,60.57,61.82,106.04,61.82,67.38,0,121.99-54.62,121.99-121.99V123.14l-34.5,219.6Z"/>
      <path class="cls-24" d="M688.75,342.55c-10.46,66.56-72.89,112.04-139.45,101.58-20.34-3.2-38.67-11.29-54.08-22.83,20.98,36.89,60.57,61.82,106.04,61.82,67.38,0,121.99-54.62,121.99-121.99V122.95l-34.5,219.6Z"/>
      <path class="cls-70" d="M688.46,342.35c-10.46,66.56-72.89,112.04-139.45,101.58-20.34-3.2-38.67-11.29-54.08-22.83,20.98,36.89,60.57,61.82,106.04,61.82,67.38,0,121.99-54.62,121.99-121.99V122.76l-34.5,219.6Z"/>
      <path class="cls-29" d="M688.17,342.16c-10.46,66.56-72.89,112.04-139.45,101.58-20.34-3.2-38.67-11.29-54.08-22.83,20.98,36.89,60.57,61.82,106.04,61.82,67.38,0,121.99-54.62,121.99-121.99V122.57l-34.5,219.6Z"/>
      <path class="cls-12" d="M687.89,341.97c-10.46,66.56-72.89,112.04-139.45,101.58-20.34-3.2-38.67-11.29-54.08-22.83,20.98,36.89,60.57,61.82,106.04,61.82,67.38,0,121.99-54.62,121.99-121.99V122.38l-34.5,219.6Z"/>
      <path class="cls-7" d="M687.6,341.78c-10.46,66.56-72.89,112.04-139.45,101.58-20.34-3.2-38.67-11.29-54.08-22.83,20.98,36.89,60.57,61.82,106.04,61.82,67.38,0,121.99-54.62,121.99-121.99V122.18l-34.5,219.6Z"/>
      <path class="cls-102" d="M687.31,341.59c-10.46,66.56-72.89,112.04-139.45,101.58-20.34-3.2-38.67-11.29-54.08-22.83,20.98,36.89,60.57,61.82,106.04,61.82,67.38,0,121.99-54.62,121.99-121.99V121.99l-34.5,219.6Z"/>
      <path class="cls-97" d="M687.03,341.4c-10.46,66.56-72.89,112.04-139.45,101.58-20.34-3.2-38.67-11.29-54.08-22.83,20.98,36.89,60.57,61.82,106.04,61.82,67.38,0,121.99-54.62,121.99-121.99V121.8l-34.5,219.6Z"/>
      <path class="cls-60" d="M686.74,341.21c-10.46,66.56-72.89,112.04-139.45,101.58-20.34-3.2-38.67-11.29-54.08-22.83,20.98,36.89,60.57,61.82,106.04,61.82,67.38,0,121.99-54.62,121.99-121.99V121.61l-34.5,219.6Z"/>
      <path class="cls-50" d="M686.45,341.01c-10.46,66.56-72.89,112.04-139.45,101.58-20.34-3.2-38.67-11.29-54.08-22.83,20.98,36.89,60.57,61.82,106.04,61.82,67.38,0,121.99-54.62,121.99-121.99V121.42l-34.5,219.6Z"/>
      <path class="cls-23" d="M686.16,340.82c-10.46,66.56-72.89,112.04-139.45,101.58-20.34-3.2-38.67-11.29-54.08-22.83,20.98,36.89,60.57,61.82,106.04,61.82,67.38,0,121.99-54.62,121.99-121.99V121.23l-34.5,219.6Z"/>
      <path class="cls-35" d="M685.88,340.63c-10.46,66.56-72.89,112.04-139.45,101.58-20.34-3.2-38.67-11.29-54.08-22.83,20.98,36.89,60.57,61.82,106.04,61.82,67.38,0,121.99-54.62,121.99-121.99V121.04l-34.5,219.6Z"/>
      <path class="cls-74" d="M685.59,340.44c-10.46,66.56-72.89,112.04-139.45,101.58-20.34-3.2-38.67-11.29-54.08-22.83,20.98,36.89,60.57,61.82,106.04,61.82,67.38,0,121.99-54.62,121.99-121.99V120.84l-34.5,219.6Z"/>
      <path class="cls-52" d="M685.3,340.25c-10.46,66.56-72.89,112.04-139.45,101.58-20.34-3.2-38.67-11.29-54.08-22.83,20.98,36.89,60.57,61.82,106.04,61.82,67.38,0,121.99-54.62,121.99-121.99V120.65l-34.5,219.6Z"/>
      <path class="cls-48" d="M685.02,340.06c-10.46,66.56-72.89,112.04-139.45,101.58-20.34-3.2-38.67-11.29-54.08-22.83,20.98,36.89,60.57,61.82,106.04,61.82,67.38,0,121.99-54.62,121.99-121.99V120.46l-34.5,219.6Z"/>
      <path class="cls-39" d="M684.73,339.87c-10.46,66.56-72.89,112.04-139.45,101.58-20.34-3.2-38.67-11.29-54.08-22.83,20.98,36.89,60.57,61.82,106.04,61.82,67.38,0,121.99-54.62,121.99-121.99V120.27l-34.5,219.6Z"/>
      <path class="cls-99" d="M684.44,339.67c-10.46,66.56-72.89,112.04-139.45,101.58-20.34-3.2-38.67-11.29-54.08-22.83,20.98,36.89,60.57,61.82,106.04,61.82,67.38,0,121.99-54.62,121.99-121.99V120.08l-34.5,219.6Z"/>
      <path class="cls-103" d="M684.15,339.48c-10.46,66.56-72.89,112.04-139.45,101.58-20.34-3.2-38.67-11.29-54.08-22.83,20.98,36.89,60.57,61.82,106.04,61.82,67.38,0,121.99-54.62,121.99-121.99V119.89l-34.5,219.6Z"/>
      <path class="cls-2" d="M683.87,339.29c-10.46,66.56-72.89,112.04-139.45,101.58-20.34-3.2-38.67-11.29-54.08-22.83,20.98,36.89,60.57,61.82,106.04,61.82,67.38,0,121.99-54.62,121.99-121.99V119.7l-34.5,219.6Z"/>
      <path class="cls-43" d="M683.58,339.1c-10.46,66.56-72.89,112.04-139.45,101.58-20.34-3.2-38.67-11.29-54.08-22.83,20.98,36.89,60.57,61.82,106.04,61.82,67.38,0,121.99-54.62,121.99-121.99V119.5l-34.5,219.6Z"/>
      <path class="cls-98" d="M683.29,338.91c-10.46,66.56-72.89,112.04-139.45,101.58-20.34-3.2-38.67-11.29-54.08-22.83,20.98,36.89,60.57,61.82,106.04,61.82,67.38,0,121.99-54.62,121.99-121.99V119.31l-34.5,219.6Z"/>
      <path class="cls-19" d="M683,338.72c-10.46,66.56-72.89,112.04-139.45,101.58-20.34-3.2-38.67-11.29-54.08-22.83,20.98,36.89,60.57,61.82,106.04,61.82,67.38,0,121.99-54.62,121.99-121.99V119.12l-34.5,219.6Z"/>
      <path class="cls-57" d="M682.72,338.53c-10.46,66.56-72.89,112.04-139.45,101.58-20.34-3.2-38.67-11.29-54.08-22.83,20.98,36.89,60.57,61.82,106.04,61.82,67.38,0,121.99-54.62,121.99-121.99V118.93l-34.5,219.6Z"/>
      <path class="cls-73" d="M682.43,338.33c-10.46,66.56-72.89,112.04-139.45,101.58-20.34-3.2-38.67-11.29-54.08-22.83,20.98,36.89,60.57,61.82,106.04,61.82,67.38,0,121.99-54.62,121.99-121.99V118.74l-34.5,219.6Z"/>
      <path class="cls-6" d="M682.14,338.14c-10.46,66.56-72.89,112.04-139.45,101.58-20.34-3.2-38.67-11.29-54.08-22.83,20.98,36.89,60.57,61.82,106.04,61.82,67.38,0,121.99-54.62,121.99-121.99V118.55l-34.5,219.6Z"/>
      <path class="cls-78" d="M681.86,337.95c-10.46,66.56-72.89,112.04-139.45,101.58-20.34-3.2-38.67-11.29-54.08-22.83,20.98,36.89,60.57,61.82,106.04,61.82,67.38,0,121.99-54.62,121.99-121.99V118.36l-34.5,219.6Z"/>
      <path class="cls-28" d="M681.57,337.76c-10.46,66.56-72.89,112.04-139.45,101.58-20.34-3.2-38.67-11.29-54.08-22.83,20.98,36.89,60.57,61.82,106.04,61.82,67.38,0,121.99-54.62,121.99-121.99V118.16l-34.5,219.6Z"/>
      <path class="cls-11" d="M681.28,337.57c-10.46,66.56-72.89,112.04-139.45,101.58-20.34-3.2-38.67-11.29-54.08-22.83,20.98,36.89,60.57,61.82,106.04,61.82,67.38,0,121.99-54.62,121.99-121.99V117.97l-34.5,219.6Z"/>
      <path class="cls-8" d="M680.99,337.38c-10.46,66.56-72.89,112.04-139.45,101.58-20.34-3.2-38.67-11.29-54.08-22.83,20.98,36.89,60.57,61.82,106.04,61.82,67.38,0,121.99-54.62,121.99-121.99V117.78l-34.5,219.6Z"/>
      <path class="cls-25" d="M680.71,337.19c-10.46,66.56-72.89,112.04-139.45,101.58-20.34-3.2-38.67-11.29-54.08-22.83,20.98,36.89,60.57,61.82,106.04,61.82,67.38,0,121.99-54.62,121.99-121.99V117.59l-34.5,219.6Z"/>
      <path class="cls-37" d="M680.42,336.99c-10.46,66.56-72.89,112.04-139.45,101.58-20.34-3.2-38.67-11.29-54.08-22.83,20.98,36.89,60.57,61.82,106.04,61.82,67.38,0,121.99-54.62,121.99-121.99V117.4l-34.5,219.6Z"/>
      <path class="cls-36" d="M680.13,336.8c-10.46,66.56-72.89,112.04-139.45,101.58-20.34-3.2-38.67-11.29-54.08-22.83,20.98,36.89,60.57,61.82,106.04,61.82,67.38,0,121.99-54.62,121.99-121.99V117.21l-34.5,219.6Z"/>
      <path class="cls-59" d="M679.85,336.61c-10.46,66.56-72.89,112.04-139.45,101.58-20.34-3.2-38.67-11.29-54.08-22.83,20.98,36.89,60.57,61.82,106.04,61.82,67.38,0,121.99-54.62,121.99-121.99V117.02l-34.5,219.6Z"/>
      <path class="cls-87" d="M679.56,336.42c-10.46,66.56-72.89,112.04-139.45,101.58-20.34-3.2-38.67-11.29-54.08-22.83,20.98,36.89,60.57,61.82,106.04,61.82,67.38,0,121.99-54.62,121.99-121.99V116.82l-34.5,219.6Z"/>
      <path class="cls-94" d="M679.27,336.23c-10.46,66.56-72.89,112.04-139.45,101.58-20.34-3.2-38.67-11.29-54.08-22.83,20.98,36.89,60.57,61.82,106.04,61.82,67.38,0,121.99-54.62,121.99-121.99V116.63l-34.5,219.6Z"/>
      <path class="cls-17" d="M678.98,336.04c-10.46,66.56-72.89,112.04-139.45,101.58-20.34-3.2-38.67-11.29-54.08-22.83,20.98,36.89,60.57,61.82,106.04,61.82,67.38,0,121.99-54.62,121.99-121.99V116.44l-34.5,219.6Z"/>
      <path class="cls-45" d="M678.7,335.85c-10.46,66.56-72.89,112.04-139.45,101.58-20.34-3.2-38.67-11.29-54.08-22.83,20.98,36.89,60.57,61.82,106.04,61.82,67.38,0,121.99-54.62,121.99-121.99V116.25l-34.5,219.6Z"/>
      <path class="cls-100" d="M678.41,335.65c-10.46,66.56-72.89,112.04-139.45,101.58-20.34-3.2-38.67-11.29-54.08-22.83,20.98,36.89,60.57,61.82,106.04,61.82,67.38,0,121.99-54.62,121.99-121.99V116.06l-34.5,219.6Z"/>
      <path class="cls-32" d="M678.12,335.46c-10.46,66.56-72.89,112.04-139.45,101.58-20.34-3.2-38.67-11.29-54.08-22.83,20.98,36.89,60.57,61.82,106.04,61.82,67.38,0,121.99-54.62,121.99-121.99V115.87l-34.5,219.6Z"/>
      <path class="cls-33" d="M677.84,335.27c-10.46,66.56-72.89,112.04-139.45,101.58-20.34-3.2-38.67-11.29-54.08-22.83,20.98,36.89,60.57,61.82,106.04,61.82,67.38,0,121.99-54.62,121.99-121.99V115.68l-34.5,219.6Z"/>
      <path class="cls-44" d="M677.55,335.08c-10.46,66.56-72.89,112.04-139.45,101.58-20.34-3.2-38.67-11.29-54.08-22.83,20.98,36.89,60.57,61.82,106.04,61.82,67.38,0,121.99-54.62,121.99-121.99V115.48l-34.5,219.6Z"/>
      <path class="cls-72" d="M677.26,334.89c-10.46,66.56-72.89,112.04-139.45,101.58-20.34-3.2-38.67-11.29-54.08-22.83,20.98,36.89,60.57,61.82,106.04,61.82,67.38,0,121.99-54.62,121.99-121.99V115.29l-34.5,219.6Z"/>
      <path class="cls-91" d="M676.97,334.7c-10.46,66.56-72.89,112.04-139.45,101.58-20.34-3.2-38.67-11.29-54.08-22.83,20.98,36.89,60.57,61.82,106.04,61.82,67.38,0,121.99-54.62,121.99-121.99V115.1l-34.5,219.6Z"/>
      <path class="cls-47" d="M676.69,334.51c-10.46,66.56-72.89,112.04-139.45,101.58-20.34-3.2-38.67-11.29-54.08-22.83,20.98,36.89,60.57,61.82,106.04,61.82,67.38,0,121.99-54.62,121.99-121.99V114.91l-34.5,219.6Z"/>
      <path class="cls-16" d="M676.4,334.31c-10.46,66.56-72.89,112.04-139.45,101.58-20.34-3.2-38.67-11.29-54.08-22.83,20.98,36.89,60.57,61.82,106.04,61.82,67.38,0,121.99-54.62,121.99-121.99V114.72l-34.5,219.6Z"/>
      <path class="cls-89" d="M676.11,334.12c-10.46,66.56-72.89,112.04-139.45,101.58-20.34-3.2-38.67-11.29-54.08-22.83,20.98,36.89,60.57,61.82,106.04,61.82,67.38,0,121.99-54.62,121.99-121.99V114.53l-34.5,219.6Z"/>
      <path class="cls-40" d="M675.83,333.93c-10.46,66.56-72.89,112.04-139.45,101.58-20.34-3.2-38.67-11.29-54.08-22.83,20.98,36.89,60.57,61.82,106.04,61.82,67.38,0,121.99-54.62,121.99-121.99V114.34l-34.5,219.6Z"/>
      <path class="cls-13" d="M675.54,333.74c-10.46,66.56-72.89,112.04-139.45,101.58-20.34-3.2-38.67-11.29-54.08-22.83,20.98,36.89,60.57,61.82,106.04,61.82,67.38,0,121.99-54.62,121.99-121.99V114.14l-34.5,219.6Z"/>
      <path class="cls-92" d="M675.25,333.55c-10.46,66.56-72.89,112.04-139.45,101.58-20.34-3.2-38.67-11.29-54.08-22.83,20.98,36.89,60.57,61.82,106.04,61.82,67.38,0,121.99-54.62,121.99-121.99V113.95l-34.5,219.6Z"/>
      <path class="cls-22" d="M674.96,333.36c-10.46,66.56-72.89,112.04-139.45,101.58-20.34-3.2-38.67-11.29-54.08-22.83,20.98,36.89,60.57,61.82,106.04,61.82,67.38,0,121.99-54.62,121.99-121.99V113.76l-34.5,219.6Z"/>
      <path class="cls-55" d="M674.68,333.17c-10.46,66.56-72.89,112.04-139.45,101.58-20.34-3.2-38.67-11.29-54.08-22.83,20.98,36.89,60.57,61.82,106.04,61.82,67.38,0,121.99-54.62,121.99-121.99V113.57l-34.5,219.6Z"/>
      <path class="cls-41" d="M674.39,332.97c-10.46,66.56-72.89,112.04-139.45,101.58-20.34-3.2-38.67-11.29-54.08-22.83,20.98,36.89,60.57,61.82,106.04,61.82,67.38,0,121.99-54.62,121.99-121.99V113.38l-34.5,219.6Z"/>
      <path class="cls-56" d="M674.1,332.78c-10.46,66.56-72.89,112.04-139.45,101.58-20.34-3.2-38.67-11.29-54.08-22.83,20.98,36.89,60.57,61.82,106.04,61.82,67.38,0,121.99-54.62,121.99-121.99V113.19l-34.5,219.6Z"/>
      <path class="cls-49" d="M673.82,332.59c-10.46,66.56-72.89,112.04-139.45,101.58-20.34-3.2-38.67-11.29-54.08-22.83,20.98,36.89,60.57,61.82,106.04,61.82,67.38,0,121.99-54.62,121.99-121.99V113l-34.5,219.6Z"/>
      <path class="cls-76" d="M673.53,332.4c-10.46,66.56-72.89,112.04-139.45,101.58-20.34-3.2-38.67-11.29-54.08-22.83,20.98,36.89,60.57,61.82,106.04,61.82,67.38,0,121.99-54.62,121.99-121.99V112.8l-34.5,219.6Z"/>
      <path class="cls-80" d="M673.24,332.21c-10.46,66.56-72.89,112.04-139.45,101.58-20.34-3.2-38.67-11.29-54.08-22.83,20.98,36.89,60.57,61.82,106.04,61.82,67.38,0,121.99-54.62,121.99-121.99V112.61l-34.5,219.6Z"/>
      <path class="cls-85" d="M672.95,332.02c-10.46,66.56-72.89,112.04-139.45,101.58-20.34-3.2-38.67-11.29-54.08-22.83,20.98,36.89,60.57,61.82,106.04,61.82,67.38,0,121.99-54.62,121.99-121.99V112.42l-34.5,219.6Z"/>
      <path class="cls-66" d="M672.67,331.83c-10.46,66.56-72.89,112.04-139.45,101.58-20.34-3.2-38.67-11.29-54.08-22.83,20.98,36.89,60.57,61.82,106.04,61.82,67.38,0,121.99-54.62,121.99-121.99V112.23l-34.5,219.6Z"/>
      <path class="cls-38" d="M672.38,331.63c-10.46,66.56-72.89,112.04-139.45,101.58-20.34-3.2-38.67-11.29-54.08-22.83,20.98,36.89,60.57,61.82,106.04,61.82,67.38,0,121.99-54.62,121.99-121.99V112.04l-34.5,219.6Z"/>
      <path class="cls-58" d="M672.09,331.44c-10.46,66.56-72.89,112.04-139.45,101.58-20.34-3.2-38.67-11.29-54.08-22.83,20.98,36.89,60.57,61.82,106.04,61.82,67.38,0,121.99-54.62,121.99-121.99V111.85l-34.5,219.6Z"/>
      <path class="cls-4" d="M671.81,331.25c-10.46,66.56-72.89,112.04-139.45,101.58-20.34-3.2-38.67-11.29-54.08-22.83,20.98,36.89,60.57,61.82,106.04,61.82,67.38,0,121.99-54.62,121.99-121.99V111.66l-34.5,219.6Z"/>
      <path class="cls-69" d="M671.52,331.06c-10.46,66.56-72.89,112.04-139.45,101.58-20.34-3.2-38.67-11.29-54.08-22.83,20.98,36.89,60.57,61.82,106.04,61.82,67.38,0,121.99-54.62,121.99-121.99V111.46l-34.5,219.6Z"/>
      <path class="cls-34" d="M671.23,330.87c-10.46,66.56-72.89,112.04-139.45,101.58-20.34-3.2-38.67-11.29-54.08-22.83,20.98,36.89,60.57,61.82,106.04,61.82,67.38,0,121.99-54.62,121.99-121.99V111.27l-34.5,219.6Z"/>
      <path class="cls-14" d="M670.94,330.68c-10.46,66.56-72.89,112.04-139.45,101.58-20.34-3.2-38.67-11.29-54.08-22.83,20.98,36.89,60.57,61.82,106.04,61.82,67.38,0,121.99-54.62,121.99-121.99V111.08l-34.5,219.6Z"/>
      <path class="cls-101" d="M670.66,330.49c-10.46,66.56-72.89,112.04-139.45,101.58-20.34-3.2-38.67-11.29-54.08-22.83,20.98,36.89,60.57,61.82,106.04,61.82,67.38,0,121.99-54.62,121.99-121.99V110.89l-34.5,219.6Z"/>
      <path class="cls-88" d="M670.37,330.29c-10.46,66.56-72.89,112.04-139.45,101.58-20.34-3.2-38.67-11.29-54.08-22.83,20.98,36.89,60.57,61.82,106.04,61.82,67.38,0,121.99-54.62,121.99-121.99V110.7l-34.5,219.6Z"/>
      <path class="cls-79" d="M670.08,330.1c-10.46,66.56-72.89,112.04-139.45,101.58-20.34-3.2-38.67-11.29-54.08-22.83,20.98,36.89,60.57,61.82,106.04,61.82,67.38,0,121.99-54.62,121.99-121.99V110.51l-34.5,219.6Z"/>
      <path class="cls-31" d="M669.8,329.91c-10.46,66.56-72.89,112.04-139.45,101.58-20.34-3.2-38.67-11.29-54.08-22.83,20.98,36.89,60.57,61.82,106.04,61.82,67.38,0,121.99-54.62,121.99-121.99V110.32l-34.5,219.6Z"/>
      <path class="cls-21" d="M669.51,329.72c-10.46,66.56-72.89,112.04-139.45,101.58-20.34-3.2-38.67-11.29-54.08-22.83,20.98,36.89,60.57,61.82,106.04,61.82,67.38,0,121.99-54.62,121.99-121.99V110.12l-34.5,219.6Z"/>
      <path class="cls-3" d="M669.22,329.53c-10.46,66.56-72.89,112.04-139.45,101.58-20.34-3.2-38.67-11.29-54.08-22.83,20.98,36.89,60.57,61.82,106.04,61.82,67.38,0,121.99-54.62,121.99-121.99V109.93l-34.5,219.6Z"/>
      <path class="cls-9" d="M668.93,329.34c-10.46,66.56-72.89,112.04-139.45,101.58-20.34-3.2-38.67-11.29-54.08-22.83,20.98,36.89,60.57,61.82,106.04,61.82,67.38,0,121.99-54.62,121.99-121.99V109.74l-34.5,219.6Z"/>
      <path class="cls-61" d="M668.65,329.15c-10.46,66.56-72.89,112.04-139.45,101.58-20.34-3.2-38.67-11.29-54.08-22.83,20.98,36.89,60.57,61.82,106.04,61.82,67.38,0,121.99-54.62,121.99-121.99V109.55l-34.5,219.6Z"/>
      <path class="cls-20" d="M668.36,328.95c-10.46,66.56-72.89,112.04-139.45,101.58-20.34-3.2-38.67-11.29-54.08-22.83,20.98,36.89,60.57,61.82,106.04,61.82,67.38,0,121.99-54.62,121.99-121.99V109.36l-34.5,219.6Z"/>
      <path class="cls-84" d="M668.07,328.76c-10.46,66.56-72.89,112.04-139.45,101.58-20.34-3.2-38.67-11.29-54.08-22.83,20.98,36.89,60.57,61.82,106.04,61.82,67.38,0,121.99-54.62,121.99-121.99V109.17l-34.5,219.6Z"/>
      <path class="cls-27" d="M667.79,328.57c-10.46,66.56-72.89,112.04-139.45,101.58-20.34-3.2-38.67-11.29-54.08-22.83,20.98,36.89,60.57,61.82,106.04,61.82,67.38,0,121.99-54.62,121.99-121.99V108.98l-34.5,219.6Z"/>
      <path class="cls-77" d="M667.5,328.38c-10.46,66.56-72.89,112.04-139.45,101.58-20.34-3.2-38.67-11.29-54.08-22.83,20.98,36.89,60.57,61.82,106.04,61.82,67.38,0,121.99-54.62,121.99-121.99V108.78l-34.5,219.6Z"/>
      <path class="cls-82" d="M667.21,328.19c-10.46,66.56-72.89,112.04-139.45,101.58-20.34-3.2-38.67-11.29-54.08-22.83,20.98,36.89,60.57,61.82,106.04,61.82,67.38,0,121.99-54.62,121.99-121.99V108.59l-34.5,219.6Z"/>
      <path class="cls-95" d="M666.92,328c-10.46,66.56-72.89,112.04-139.45,101.58-20.34-3.2-38.67-11.29-54.08-22.83,20.98,36.89,60.57,61.82,106.04,61.82,67.38,0,121.99-54.62,121.99-121.99V108.4l-34.5,219.6Z"/>
      <path class="cls-65" d="M666.64,327.81c-10.46,66.56-72.89,112.04-139.45,101.58-20.34-3.2-38.67-11.29-54.08-22.83,20.98,36.89,60.57,61.82,106.04,61.82,67.38,0,121.99-54.62,121.99-121.99V108.21l-34.5,219.6Z"/>
      <path class="cls-67" d="M666.35,327.61c-10.46,66.56-72.89,112.04-139.45,101.58-20.34-3.2-38.67-11.29-54.08-22.83,20.98,36.89,60.57,61.82,106.04,61.82,67.38,0,121.99-54.62,121.99-121.99V108.02l-34.5,219.6Z"/>
      <path class="cls-18" d="M666.06,327.42c-10.46,66.56-72.89,112.04-139.45,101.58-20.34-3.2-38.67-11.29-54.08-22.83,20.98,36.89,60.57,61.82,106.04,61.82,67.38,0,121.99-54.62,121.99-121.99V107.83l-34.5,219.6Z"/>
      <path class="cls-54" d="M665.78,327.23c-10.46,66.56-72.89,112.04-139.45,101.58-20.34-3.2-38.67-11.29-54.08-22.83,20.98,36.89,60.57,61.82,106.04,61.82,67.38,0,121.99-54.62,121.99-121.99V107.64l-34.5,219.6Z"/>
      <path class="cls-46" d="M665.49,327.04c-10.46,66.56-72.89,112.04-139.45,101.58-20.34-3.2-38.67-11.29-54.08-22.83,20.98,36.89,60.57,61.82,106.04,61.82,67.38,0,121.99-54.62,121.99-121.99V107.44l-34.5,219.6Z"/>
      <path class="cls-5" d="M665.2,326.85c-10.46,66.56-72.89,112.04-139.45,101.58-20.34-3.2-38.67-11.29-54.08-22.83,20.98,36.89,60.57,61.82,106.04,61.82,67.38,0,121.99-54.62,121.99-121.99V107.25l-34.5,219.6Z"/>
      <path class="cls-81" d="M664.91,326.66c-10.46,66.56-72.89,112.04-139.45,101.58-20.34-3.2-38.67-11.29-54.08-22.83,20.98,36.89,60.57,61.82,106.04,61.82,67.38,0,121.99-54.62,121.99-121.99V107.06l-34.5,219.6Z"/>
    </g>
    <g>
      <g class="cls-105">
        <path class="cls-104" d="M584.97,317.68h-15.03v-7.66c7.59,2.25,9.34,2.03,11.97,1.94,32.4,4.45,67.99-14,73.27-49.59,3.95-30.32-19.77-60.64-51.41-56.68-15.82,2.64-32.95,15.82-32.95,32.95,9.23-22.41,34.27-32.95,55.36-21.09,23.73,14.5,26.36,46.14,9.23,65.91-18.45,22.41-52.73,23.73-73.82,3.95-26.36-23.73-26.36-65.91-.27-88.26,5.63-5.33,8.62-7.51,8.62-7.51,0,0-3.32,2.69-7.62,7.05-21.82,20.17-25.77,53.12-8.64,78.17,15.82,22.41,44.82,29,68.55,15.82,17.14-10.55,25.05-27.68,21.09-47.45-3.95-14.5-13.18-25.05-27.68-29-15.82-3.95-32.95,5.27-38.23,21.09-3.95,13.18,3.95,27.68,18.45,30.32,7.91,1.32,13.18-3.95,19.77-5.27-1.32,9.23-10.55,11.86-18.45,13.18-18.45,1.32-31.64-15.82-31.64-31.64,0-21.09,17.14-38.23,36.91-40.86,32.95-3.95,59.32,26.36,55.36,58-5.27,34.27-38.23,56.68-71.37,53.35-1.48,2.01-1.48,3.27-1.48,3.27Z"/>
        <path class="cls-104" d="M606.15,317.68h-15.03s.47-1.18,2.06-3.31c17.19.73,34.32-5.86,47.5-17.72,22.41-22.41,25.05-59.32,0-81.73-11.86-10.55-26.36-13.18-40.86-11.86-17.14,2.64-29,14.5-34.27,30.32-5.27,21.09,9.23,46.14,32.95,43.5,7.91-1.32,15.82-5.27,19.77-11.86,2.64-6.59,2.64-17.14-3.95-21.09-2.64,6.59,1.32,14.5-6.59,18.45-7.91,5.27-17.14,2.64-23.73-2.64-7.91-7.91-7.91-21.09-1.32-30.32,10.55-14.5,30.32-17.14,44.82-6.59,23.73,17.14,19.77,51.41-2.64,67.23-14.5,10.55-32.95,10.55-48.77,3.95-19.77-9.23-35.59-31.64-30.32-54.05-1.32,22.41,11.86,43.5,31.64,52.73,21.09,9.23,44.82,2.64,58-17.14,9.23-15.82,7.91-35.59-5.27-47.45-7.91-6.59-18.45-10.55-29-7.91-13.18,2.64-21.09,14.5-18.45,27.68,1.32,9.23,14.5,17.14,19.77,7.91,2.64-3.95-7.91-5.27-6.59-11.86,2.64-9.23,11.86-10.55,19.77-6.59,5.27,3.95,7.91,9.23,9.23,15.82,1.32,11.86-6.59,19.77-15.82,25.05-21.09,9.23-43.5-7.91-46.14-30.32-2.64-25.05,18.45-46.14,42.18-47.45,21.09-1.32,39.55,10.55,48.77,29,6.59,15.82,7.91,32.95,1.32,48.77-6.59,14.5-19.77,26.36-34.49,32.85-13.99,5.34-14.54,6.64-14.54,6.64Z"/>
        <path class="cls-104" d="M627.32,317.68h-15.03s.36-1.32,9-5.89c32.57-12.5,48.39-50.73,33.89-82.37-9.23-19.77-31.64-31.64-54.05-29-22.41,2.64-40.86,23.73-39.55,46.14,1.32,19.77,18.45,35.59,39.55,34.27,7.91,0,14.5-5.27,19.77-11.86,9.23-11.86,5.27-32.95-11.86-35.59-13.18-2.64-19.77,11.86-15.82,22.41-14.5-3.95-10.55-21.09-2.64-29,10.55-7.91,22.41-7.91,32.95-2.64,15.82,9.23,19.77,31.64,13.18,47.45-5.27,11.86-17.14,19.77-30.32,23.73-26.36,5.27-50.09-11.86-58-36.91-9.23-31.64,13.18-60.64,42.18-71.18-17.14,5.27-30.32,17.14-38.23,32.95-10.55,22.41-3.95,50.09,17.14,65.91,18.45,11.86,43.5,11.86,58-5.27,10.55-11.86,13.18-29,3.95-43.5-3.95-5.27-7.91-10.55-15.82-10.55,10.55,9.23,18.45,25.05,11.86,38.23-5.27,9.23-13.18,15.82-22.41,18.45-13.18,2.64-25.05-1.32-34.27-10.55-11.86-13.18-14.5-32.95-6.59-48.77,11.86-23.73,40.86-31.64,63.27-22.41,19.77,7.91,32.95,27.68,34.27,48.77,1.32,21.09-9.23,40.86-25.01,53.99-7.73,6.2-8.53,8.01-9.44,9.65v3.53Z"/>
      </g>
      <ellipse class="cls-64" cx="600.2" cy="250.49" rx="21.34" ry="50.99"/>
    </g>
  </g>
  <path class="cls-104" d="M937.97,229.21l-48.28,139.31L757.97,3h102.07l77.93,226.21ZM1200.73,3l-174.48,482.76h-93.79v-.69L1098.66,3h102.07Z"/>
</svg>