<?xml version="1.0" encoding="UTF-8"?>
<svg id="Layer_1" data-name="Layer 1" xmlns="http://www.w3.org/2000/svg" xmlns:xlink="http://www.w3.org/1999/xlink" viewBox="0 0 1200 490.6">
  <defs>
    <style>
      .cls-1 {
        fill: #010101;
        stroke-linecap: round;
        stroke-linejoin: round;
        stroke-width: 4.82px;
      }

      .cls-1, .cls-2 {
        stroke: #fff;
      }

      .cls-2 {
        fill: none;
        stroke-miterlimit: 10;
        stroke-width: .79px;
      }

      .cls-3 {
        fill: #fff;
      }

      .cls-4 {
        clip-path: url(#clippath);
      }
    </style>
    <clipPath id="clippath">
      <ellipse class="cls-2" cx="598.69" cy="252.27" rx="21.29" ry="50.87"/>
    </clipPath>
  </defs>
  <g>
    <path class="cls-3" d="M88.33,388.67c1.04,0,2.21,1.17,2.21,2.86v14.29c0,1.69-1.17,2.86-2.21,2.86h-42.09c13.12,6.49,26.24,13.12,39.36,19.62.52.13,1.43,1.69,1.43,2.34v13.64c0,.78-.78,2.21-1.43,2.47h.13l-40.92,21.18h43.52c1.04,0,2.21,1.17,2.21,2.73v14.55c0,1.82-1.17,2.6-2.21,2.6H1.81c-1.17,0-2.34-.78-2.34-2.6v-14.81c0-.91.91-2.21,1.43-2.47l61.84-30.4L.9,408.68c-.65-.26-1.43-1.82-1.43-2.6v-14.55c0-1.69,1.17-2.86,2.34-2.86h86.52Z"/>
    <path class="cls-3" d="M-.4,296.86c0-2.34,2.08-3.51,3.64-2.08v-.13l44.82,31.96h40.27c1.04,0,2.21,1.04,2.21,2.73v14.42c0,1.56-1.17,2.73-2.21,2.73h-40.27c-8.18,5.72-16.37,11.82-24.55,17.54-6.49,4.68-13.77,9.74-20.27,14.42v-.13c-1.56,1.43-3.64.26-3.64-2.08v-17.54c0-.65.26-1.82.91-2.34,9.61-6.76,17.92-12.99,27.54-19.88L.52,316.73c-.52-.52-.91-1.69-.91-2.21v-17.67Z"/>
  </g>
  <path class="cls-3" d="M260.72,5.36H100.25v80.34l76.51,120.4h-76.51v280.88h80.55v-200.96h79.91s160.26,0,160.26-140.44S260.72,5.36,260.72,5.36ZM270.95,205.47l-75.01-119.77h64.79s80.55,0,80.55,59.88c0,46.88-49.01,57.11-70.32,59.88Z"/>
  <g>
    <g>
      <path class="cls-1" d="M533.83,170.64c10.43-66.4,72.72-111.77,139.12-101.34,20.29,3.19,38.58,11.26,53.95,22.77-20.93-36.8-60.43-61.68-105.79-61.68-67.22,0-121.71,54.49-121.71,121.71v237.62l34.42-219.08Z"/>
      <path class="cls-1" d="M533.54,170.45c10.43-66.4,72.72-111.77,139.12-101.34,20.29,3.19,38.58,11.26,53.95,22.77-20.93-36.8-60.43-61.68-105.79-61.68-67.22,0-121.71,54.49-121.71,121.71v237.62l34.42-219.08Z"/>
      <path class="cls-1" d="M533.25,170.26c10.43-66.4,72.72-111.77,139.12-101.34,20.29,3.19,38.58,11.26,53.95,22.77-20.93-36.8-60.43-61.68-105.79-61.68-67.22,0-121.71,54.49-121.71,121.71v237.62l34.42-219.08Z"/>
      <path class="cls-1" d="M532.97,170.07c10.43-66.4,72.72-111.77,139.12-101.34,20.29,3.19,38.58,11.26,53.95,22.77-20.93-36.8-60.43-61.68-105.79-61.68-67.22,0-121.71,54.49-121.71,121.71v237.62l34.42-219.08Z"/>
      <path class="cls-1" d="M532.68,169.88c10.43-66.4,72.72-111.77,139.12-101.34,20.29,3.19,38.58,11.26,53.95,22.77-20.93-36.8-60.43-61.68-105.79-61.68-67.22,0-121.71,54.49-121.71,121.71v237.62l34.42-219.08Z"/>
      <path class="cls-1" d="M532.39,169.69c10.43-66.4,72.72-111.77,139.12-101.34,20.29,3.19,38.58,11.26,53.95,22.77-20.93-36.8-60.43-61.68-105.79-61.68-67.22,0-121.71,54.49-121.71,121.71v237.62l34.42-219.08Z"/>
      <path class="cls-1" d="M532.11,169.5c10.43-66.4,72.72-111.77,139.12-101.34,20.29,3.19,38.58,11.26,53.95,22.77-20.93-36.8-60.43-61.68-105.79-61.68-67.22,0-121.71,54.49-121.71,121.71v237.62l34.42-219.08Z"/>
      <path class="cls-1" d="M531.82,169.31c10.43-66.4,72.72-111.77,139.12-101.34,20.29,3.19,38.58,11.26,53.95,22.77-20.93-36.8-60.43-61.68-105.79-61.68-67.22,0-121.71,54.49-121.71,121.71v237.62l34.42-219.08Z"/>
      <path class="cls-1" d="M531.54,169.12c10.43-66.4,72.72-111.77,139.12-101.34,20.29,3.19,38.58,11.26,53.95,22.77-20.93-36.8-60.43-61.68-105.79-61.68-67.22,0-121.71,54.49-121.71,121.71v237.62l34.42-219.08Z"/>
      <path class="cls-1" d="M531.25,168.92c10.43-66.4,72.72-111.77,139.12-101.34,20.29,3.19,38.58,11.26,53.95,22.77-20.93-36.8-60.43-61.68-105.79-61.68-67.22,0-121.71,54.49-121.71,121.71v237.62l34.42-219.08Z"/>
      <path class="cls-1" d="M530.96,168.73c10.43-66.4,72.72-111.77,139.12-101.34,20.29,3.19,38.58,11.26,53.95,22.77-20.93-36.8-60.43-61.68-105.79-61.68-67.22,0-121.71,54.49-121.71,121.71v237.62l34.42-219.08Z"/>
      <path class="cls-1" d="M530.68,168.54c10.43-66.4,72.72-111.77,139.12-101.34,20.29,3.19,38.58,11.26,53.95,22.77-20.93-36.8-60.43-61.68-105.79-61.68-67.22,0-121.71,54.49-121.71,121.71v237.62l34.42-219.08Z"/>
      <path class="cls-1" d="M530.39,168.35c10.43-66.4,72.72-111.77,139.12-101.34,20.29,3.19,38.58,11.26,53.95,22.77-20.93-36.8-60.43-61.68-105.79-61.68-67.22,0-121.71,54.49-121.71,121.71v237.62l34.42-219.08Z"/>
      <path class="cls-1" d="M530.1,168.16c10.43-66.4,72.72-111.77,139.12-101.34,20.29,3.19,38.58,11.26,53.95,22.77-20.93-36.8-60.43-61.68-105.79-61.68-67.22,0-121.71,54.49-121.71,121.71v237.62l34.42-219.08Z"/>
      <path class="cls-1" d="M529.82,167.97c10.43-66.4,72.72-111.77,139.12-101.34,20.29,3.19,38.58,11.26,53.95,22.77-20.93-36.8-60.43-61.68-105.79-61.68-67.22,0-121.71,54.49-121.71,121.71v237.62l34.42-219.08Z"/>
      <path class="cls-1" d="M529.53,167.78c10.43-66.4,72.72-111.77,139.12-101.34,20.29,3.19,38.58,11.26,53.95,22.77-20.93-36.8-60.43-61.68-105.79-61.68-67.22,0-121.71,54.49-121.71,121.71v237.62l34.42-219.08Z"/>
      <path class="cls-1" d="M529.24,167.59c10.43-66.4,72.72-111.77,139.12-101.34,20.29,3.19,38.58,11.26,53.95,22.77-20.93-36.8-60.43-61.68-105.79-61.68-67.22,0-121.71,54.49-121.71,121.71v237.62l34.42-219.08Z"/>
      <path class="cls-1" d="M528.96,167.4c10.43-66.4,72.72-111.77,139.12-101.34,20.29,3.19,38.58,11.26,53.95,22.77-20.93-36.8-60.43-61.68-105.79-61.68-67.22,0-121.71,54.49-121.71,121.71v237.62l34.42-219.08Z"/>
      <path class="cls-1" d="M528.67,167.21c10.43-66.4,72.72-111.77,139.12-101.34,20.29,3.19,38.58,11.26,53.95,22.77-20.93-36.8-60.43-61.68-105.79-61.68-67.22,0-121.71,54.49-121.71,121.71v237.62l34.42-219.08Z"/>
      <path class="cls-1" d="M528.38,167.01c10.43-66.4,72.72-111.77,139.12-101.34,20.29,3.19,38.58,11.26,53.95,22.77-20.93-36.8-60.43-61.68-105.79-61.68-67.22,0-121.71,54.49-121.71,121.71v237.62l34.42-219.08Z"/>
      <path class="cls-1" d="M528.1,166.82c10.43-66.4,72.72-111.77,139.12-101.34,20.29,3.19,38.58,11.26,53.95,22.77-20.93-36.8-60.43-61.68-105.79-61.68-67.22,0-121.71,54.49-121.71,121.71v237.62l34.42-219.08Z"/>
      <path class="cls-1" d="M527.81,166.63c10.43-66.4,72.72-111.77,139.12-101.34,20.29,3.19,38.58,11.26,53.95,22.77-20.93-36.8-60.43-61.68-105.79-61.68-67.22,0-121.71,54.49-121.71,121.71v237.62l34.42-219.08Z"/>
      <path class="cls-1" d="M527.52,166.44c10.43-66.4,72.72-111.77,139.12-101.34,20.29,3.19,38.58,11.26,53.95,22.77-20.93-36.8-60.43-61.68-105.79-61.68-67.22,0-121.71,54.49-121.71,121.71v237.62l34.42-219.08Z"/>
      <path class="cls-1" d="M527.24,166.25c10.43-66.4,72.72-111.77,139.12-101.34,20.29,3.19,38.58,11.26,53.95,22.77-20.93-36.8-60.43-61.68-105.79-61.68-67.22,0-121.71,54.49-121.71,121.71v237.62l34.42-219.08Z"/>
      <path class="cls-1" d="M526.95,166.06c10.43-66.4,72.72-111.77,139.12-101.34,20.29,3.19,38.58,11.26,53.95,22.77-20.93-36.8-60.43-61.68-105.79-61.68-67.22,0-121.71,54.49-121.71,121.71v237.62l34.42-219.08Z"/>
      <path class="cls-1" d="M526.67,165.87c10.43-66.4,72.72-111.77,139.12-101.34,20.29,3.19,38.58,11.26,53.95,22.77-20.93-36.8-60.43-61.68-105.79-61.68-67.22,0-121.71,54.49-121.71,121.71v237.62l34.42-219.08Z"/>
      <path class="cls-1" d="M526.38,165.68c10.43-66.4,72.72-111.77,139.12-101.34,20.29,3.19,38.58,11.26,53.95,22.77-20.93-36.8-60.43-61.68-105.79-61.68-67.22,0-121.71,54.49-121.71,121.71v237.62l34.42-219.08Z"/>
      <path class="cls-1" d="M526.09,165.49c10.43-66.4,72.72-111.77,139.12-101.34,20.29,3.19,38.58,11.26,53.95,22.77-20.93-36.8-60.43-61.68-105.79-61.68-67.22,0-121.71,54.49-121.71,121.71v237.62l34.42-219.08Z"/>
      <path class="cls-1" d="M525.81,165.3c10.43-66.4,72.72-111.77,139.12-101.34,20.29,3.19,38.58,11.26,53.95,22.77-20.93-36.8-60.43-61.68-105.79-61.68-67.22,0-121.71,54.49-121.71,121.71v237.62l34.42-219.08Z"/>
      <path class="cls-1" d="M525.52,165.1c10.43-66.4,72.72-111.77,139.12-101.34,20.29,3.19,38.58,11.26,53.95,22.77-20.93-36.8-60.43-61.68-105.79-61.68-67.22,0-121.71,54.49-121.71,121.71v237.62l34.42-219.08Z"/>
      <path class="cls-1" d="M525.23,164.91c10.43-66.4,72.72-111.77,139.12-101.34,20.29,3.19,38.58,11.26,53.95,22.77-20.93-36.8-60.43-61.68-105.79-61.68-67.22,0-121.71,54.49-121.71,121.71v237.62l34.42-219.08Z"/>
      <path class="cls-1" d="M524.95,164.72c10.43-66.4,72.72-111.77,139.12-101.34,20.29,3.19,38.58,11.26,53.95,22.77-20.93-36.8-60.43-61.68-105.79-61.68-67.22,0-121.71,54.49-121.71,121.71v237.62l34.42-219.08Z"/>
      <path class="cls-1" d="M524.66,164.53c10.43-66.4,72.72-111.77,139.12-101.34,20.29,3.19,38.58,11.26,53.95,22.77-20.93-36.8-60.43-61.68-105.79-61.68-67.22,0-121.71,54.49-121.71,121.71v237.62l34.42-219.08Z"/>
      <path class="cls-1" d="M524.37,164.34c10.43-66.4,72.72-111.77,139.12-101.34,20.29,3.19,38.58,11.26,53.95,22.77-20.93-36.8-60.43-61.68-105.79-61.68-67.22,0-121.71,54.49-121.71,121.71v237.62l34.42-219.08Z"/>
      <path class="cls-1" d="M524.09,164.15c10.43-66.4,72.72-111.77,139.12-101.34,20.29,3.19,38.58,11.26,53.95,22.77-20.93-36.8-60.43-61.68-105.79-61.68-67.22,0-121.71,54.49-121.71,121.71v237.62l34.42-219.08Z"/>
      <path class="cls-1" d="M523.8,163.96c10.43-66.4,72.72-111.77,139.12-101.34,20.29,3.19,38.58,11.26,53.95,22.77-20.93-36.8-60.43-61.68-105.79-61.68-67.22,0-121.71,54.49-121.71,121.71v237.62l34.42-219.08Z"/>
      <path class="cls-1" d="M523.51,163.77c10.43-66.4,72.72-111.77,139.12-101.34,20.29,3.19,38.58,11.26,53.95,22.77-20.93-36.8-60.43-61.68-105.79-61.68-67.22,0-121.71,54.49-121.71,121.71v237.62l34.42-219.08Z"/>
      <path class="cls-1" d="M523.23,163.58c10.43-66.4,72.72-111.77,139.12-101.34,20.29,3.19,38.58,11.26,53.95,22.77-20.93-36.8-60.43-61.68-105.79-61.68-67.22,0-121.71,54.49-121.71,121.71v237.62l34.42-219.08Z"/>
      <path class="cls-1" d="M522.94,163.39c10.43-66.4,72.72-111.77,139.12-101.34,20.29,3.19,38.58,11.26,53.95,22.77-20.93-36.8-60.43-61.68-105.79-61.68-67.22,0-121.71,54.49-121.71,121.71v237.62l34.42-219.08Z"/>
      <path class="cls-1" d="M522.65,163.19c10.43-66.4,72.72-111.77,139.12-101.34,20.29,3.19,38.58,11.26,53.95,22.77-20.93-36.8-60.43-61.68-105.79-61.68-67.22,0-121.71,54.49-121.71,121.71v237.62l34.42-219.08Z"/>
      <path class="cls-1" d="M522.37,163c10.43-66.4,72.72-111.77,139.12-101.34,20.29,3.19,38.58,11.26,53.95,22.77-20.93-36.8-60.43-61.68-105.79-61.68-67.22,0-121.71,54.49-121.71,121.71v237.62l34.42-219.08Z"/>
      <path class="cls-1" d="M522.08,162.81c10.43-66.4,72.72-111.77,139.12-101.34,20.29,3.19,38.58,11.26,53.95,22.77-20.93-36.8-60.43-61.68-105.79-61.68-67.22,0-121.71,54.49-121.71,121.71v237.62l34.42-219.08Z"/>
      <path class="cls-1" d="M521.8,162.62c10.43-66.4,72.72-111.77,139.12-101.34,20.29,3.19,38.58,11.26,53.95,22.77-20.93-36.8-60.43-61.68-105.79-61.68-67.22,0-121.71,54.49-121.71,121.71v237.62l34.42-219.08Z"/>
      <path class="cls-1" d="M521.51,162.43c10.43-66.4,72.72-111.77,139.12-101.34,20.29,3.19,38.58,11.26,53.95,22.77-20.93-36.8-60.43-61.68-105.79-61.68-67.22,0-121.71,54.49-121.71,121.71v237.62l34.42-219.08Z"/>
      <path class="cls-1" d="M521.22,162.24c10.43-66.4,72.72-111.77,139.12-101.34,20.29,3.19,38.58,11.26,53.95,22.77-20.93-36.8-60.43-61.68-105.79-61.68-67.22,0-121.71,54.49-121.71,121.71v237.62l34.42-219.08Z"/>
      <path class="cls-1" d="M520.94,162.05c10.43-66.4,72.72-111.77,139.12-101.34,20.29,3.19,38.58,11.26,53.95,22.77-20.93-36.8-60.43-61.68-105.79-61.68-67.22,0-121.71,54.49-121.71,121.71v237.62l34.42-219.08Z"/>
      <path class="cls-1" d="M520.65,161.86c10.43-66.4,72.72-111.77,139.12-101.34,20.29,3.19,38.58,11.26,53.95,22.77-20.93-36.8-60.43-61.68-105.79-61.68-67.22,0-121.71,54.49-121.71,121.71v237.62l34.42-219.08Z"/>
      <path class="cls-1" d="M520.36,161.67c10.43-66.4,72.72-111.77,139.12-101.34,20.29,3.19,38.58,11.26,53.95,22.77-20.93-36.8-60.43-61.68-105.79-61.68-67.22,0-121.71,54.49-121.71,121.71v237.62l34.42-219.08Z"/>
      <path class="cls-1" d="M520.08,161.48c10.43-66.4,72.72-111.77,139.12-101.34,20.29,3.19,38.58,11.26,53.95,22.77-20.93-36.8-60.43-61.68-105.79-61.68-67.22,0-121.71,54.49-121.71,121.71v237.62l34.42-219.08Z"/>
      <path class="cls-1" d="M519.79,161.29c10.43-66.4,72.72-111.77,139.12-101.34,20.29,3.19,38.58,11.26,53.95,22.77-20.93-36.8-60.43-61.68-105.79-61.68-67.22,0-121.71,54.49-121.71,121.71v237.62l34.42-219.08Z"/>
      <path class="cls-1" d="M519.5,161.09c10.43-66.4,72.72-111.77,139.12-101.34,20.29,3.19,38.58,11.26,53.95,22.77-20.93-36.8-60.43-61.68-105.79-61.68-67.22,0-121.71,54.49-121.71,121.71v237.62l34.42-219.08Z"/>
      <path class="cls-1" d="M519.22,160.9c10.43-66.4,72.72-111.77,139.12-101.34,20.29,3.19,38.58,11.26,53.95,22.77-20.93-36.8-60.43-61.68-105.79-61.68-67.22,0-121.71,54.49-121.71,121.71v237.62l34.42-219.08Z"/>
      <path class="cls-1" d="M518.93,160.71c10.43-66.4,72.72-111.77,139.12-101.34,20.29,3.19,38.58,11.26,53.95,22.77-20.93-36.8-60.43-61.68-105.79-61.68-67.22,0-121.71,54.49-121.71,121.71v237.62l34.42-219.08Z"/>
      <path class="cls-1" d="M518.64,160.52c10.43-66.4,72.72-111.77,139.12-101.34,20.29,3.19,38.58,11.26,53.95,22.77-20.93-36.8-60.43-61.68-105.79-61.68-67.22,0-121.71,54.49-121.71,121.71v237.62l34.42-219.08Z"/>
      <path class="cls-1" d="M518.36,160.33c10.43-66.4,72.72-111.77,139.12-101.34,20.29,3.19,38.58,11.26,53.95,22.77-20.93-36.8-60.43-61.68-105.79-61.68-67.22,0-121.71,54.49-121.71,121.71v237.62l34.42-219.08Z"/>
      <path class="cls-1" d="M518.07,160.14c10.43-66.4,72.72-111.77,139.12-101.34,20.29,3.19,38.58,11.26,53.95,22.77-20.93-36.8-60.43-61.68-105.79-61.68-67.22,0-121.71,54.49-121.71,121.71v237.62l34.42-219.08Z"/>
      <path class="cls-1" d="M517.78,159.95c10.43-66.4,72.72-111.77,139.12-101.34,20.29,3.19,38.58,11.26,53.95,22.77-20.93-36.8-60.43-61.68-105.79-61.68-67.22,0-121.71,54.49-121.71,121.71v237.62l34.42-219.08Z"/>
      <path class="cls-1" d="M517.5,159.76c10.43-66.4,72.72-111.77,139.12-101.34,20.29,3.19,38.58,11.26,53.95,22.77-20.93-36.8-60.43-61.68-105.79-61.68-67.22,0-121.71,54.49-121.71,121.71v237.62l34.42-219.08Z"/>
      <path class="cls-1" d="M517.21,159.57c10.43-66.4,72.72-111.77,139.12-101.34,20.29,3.19,38.58,11.26,53.95,22.77-20.93-36.8-60.43-61.68-105.79-61.68-67.22,0-121.71,54.49-121.71,121.71v237.62l34.42-219.08Z"/>
      <path class="cls-1" d="M516.92,159.38c10.43-66.4,72.72-111.77,139.12-101.34,20.29,3.19,38.58,11.26,53.95,22.77-20.93-36.8-60.43-61.68-105.79-61.68-67.22,0-121.71,54.49-121.71,121.71v237.62l34.42-219.08Z"/>
      <path class="cls-1" d="M516.64,159.18c10.43-66.4,72.72-111.77,139.12-101.34,20.29,3.19,38.58,11.26,53.95,22.77-20.93-36.8-60.43-61.68-105.79-61.68-67.22,0-121.71,54.49-121.71,121.71v237.62l34.42-219.08Z"/>
      <path class="cls-1" d="M516.35,158.99c10.43-66.4,72.72-111.77,139.12-101.34,20.29,3.19,38.58,11.26,53.95,22.77-20.93-36.8-60.43-61.68-105.79-61.68-67.22,0-121.71,54.49-121.71,121.71v237.62l34.42-219.08Z"/>
      <path class="cls-1" d="M516.07,158.8c10.43-66.4,72.72-111.77,139.12-101.34,20.29,3.19,38.58,11.26,53.95,22.77-20.93-36.8-60.43-61.68-105.79-61.68-67.22,0-121.71,54.49-121.71,121.71v237.62l34.42-219.08Z"/>
      <path class="cls-1" d="M515.78,158.61c10.43-66.4,72.72-111.77,139.12-101.34,20.29,3.19,38.58,11.26,53.95,22.77-20.93-36.8-60.43-61.68-105.79-61.68-67.22,0-121.71,54.49-121.71,121.71v237.62l34.42-219.08Z"/>
      <path class="cls-1" d="M515.49,158.42c10.43-66.4,72.72-111.77,139.12-101.34,20.29,3.19,38.58,11.26,53.95,22.77-20.93-36.8-60.43-61.68-105.79-61.68-67.22,0-121.71,54.49-121.71,121.71v237.62l34.42-219.08Z"/>
      <path class="cls-1" d="M515.21,158.23c10.43-66.4,72.72-111.77,139.12-101.34,20.29,3.19,38.58,11.26,53.95,22.77-20.93-36.8-60.43-61.68-105.79-61.68-67.22,0-121.71,54.49-121.71,121.71v237.62l34.42-219.08Z"/>
      <path class="cls-1" d="M514.92,158.04c10.43-66.4,72.72-111.77,139.12-101.34,20.29,3.19,38.58,11.26,53.95,22.77-20.93-36.8-60.43-61.68-105.79-61.68-67.22,0-121.71,54.49-121.71,121.71v237.62l34.42-219.08Z"/>
      <path class="cls-1" d="M514.63,157.85c10.43-66.4,72.72-111.77,139.12-101.34,20.29,3.19,38.58,11.26,53.95,22.77-20.93-36.8-60.43-61.68-105.79-61.68-67.22,0-121.71,54.49-121.71,121.71v237.62l34.42-219.08Z"/>
      <path class="cls-1" d="M514.35,157.66c10.43-66.4,72.72-111.77,139.12-101.34,20.29,3.19,38.58,11.26,53.95,22.77-20.93-36.8-60.43-61.68-105.79-61.68-67.22,0-121.71,54.49-121.71,121.71v237.62l34.42-219.08Z"/>
      <path class="cls-1" d="M514.06,157.47c10.43-66.4,72.72-111.77,139.12-101.34,20.29,3.19,38.58,11.26,53.95,22.77-20.93-36.8-60.43-61.68-105.79-61.68-67.22,0-121.71,54.49-121.71,121.71v237.62l34.42-219.08Z"/>
      <path class="cls-1" d="M513.77,157.27c10.43-66.4,72.72-111.77,139.12-101.34,20.29,3.19,38.58,11.26,53.95,22.77-20.93-36.8-60.43-61.68-105.79-61.68-67.22,0-121.71,54.49-121.71,121.71v237.62l34.42-219.08Z"/>
      <path class="cls-1" d="M513.49,157.08c10.43-66.4,72.72-111.77,139.12-101.34,20.29,3.19,38.58,11.26,53.95,22.77-20.93-36.8-60.43-61.68-105.79-61.68-67.22,0-121.71,54.49-121.71,121.71v237.62l34.42-219.08Z"/>
      <path class="cls-1" d="M513.2,156.89c10.43-66.4,72.72-111.77,139.12-101.34,20.29,3.19,38.58,11.26,53.95,22.77-20.93-36.8-60.43-61.68-105.79-61.68-67.22,0-121.71,54.49-121.71,121.71v237.62l34.42-219.08Z"/>
      <path class="cls-1" d="M512.91,156.7c10.43-66.4,72.72-111.77,139.12-101.34,20.29,3.19,38.58,11.26,53.95,22.77-20.93-36.8-60.43-61.68-105.79-61.68-67.22,0-121.71,54.49-121.71,121.71v237.62l34.42-219.08Z"/>
      <path class="cls-1" d="M512.63,156.51c10.43-66.4,72.72-111.77,139.12-101.34,20.29,3.19,38.58,11.26,53.95,22.77-20.93-36.8-60.43-61.68-105.79-61.68-67.22,0-121.71,54.49-121.71,121.71v237.62l34.42-219.08Z"/>
      <path class="cls-1" d="M512.34,156.32c10.43-66.4,72.72-111.77,139.12-101.34,20.29,3.19,38.58,11.26,53.95,22.77-20.93-36.8-60.43-61.68-105.79-61.68-67.22,0-121.71,54.49-121.71,121.71v237.62l34.42-219.08Z"/>
      <path class="cls-1" d="M512.05,156.13c10.43-66.4,72.72-111.77,139.12-101.34,20.29,3.19,38.58,11.26,53.95,22.77-20.93-36.8-60.43-61.68-105.79-61.68-67.22,0-121.71,54.49-121.71,121.71v237.62l34.42-219.08Z"/>
      <path class="cls-1" d="M511.77,155.94c10.43-66.4,72.72-111.77,139.12-101.34,20.29,3.19,38.58,11.26,53.95,22.77-20.93-36.8-60.43-61.68-105.79-61.68-67.22,0-121.71,54.49-121.71,121.71v237.62l34.42-219.08Z"/>
      <path class="cls-1" d="M511.48,155.75c10.43-66.4,72.72-111.77,139.12-101.34,20.29,3.19,38.58,11.26,53.95,22.77-20.93-36.8-60.43-61.68-105.79-61.68-67.22,0-121.71,54.49-121.71,121.71v237.62l34.42-219.08Z"/>
      <path class="cls-1" d="M511.2,155.56c10.43-66.4,72.72-111.77,139.12-101.34,20.29,3.19,38.58,11.26,53.95,22.77-20.93-36.8-60.43-61.68-105.79-61.68-67.22,0-121.71,54.49-121.71,121.71v237.62l34.42-219.08Z"/>
      <path class="cls-1" d="M510.91,155.36c10.43-66.4,72.72-111.77,139.12-101.34,20.29,3.19,38.58,11.26,53.95,22.77-20.93-36.8-60.43-61.68-105.79-61.68-67.22,0-121.71,54.49-121.71,121.71v237.62l34.42-219.08Z"/>
      <path class="cls-1" d="M510.62,155.17c10.43-66.4,72.72-111.77,139.12-101.34,20.29,3.19,38.58,11.26,53.95,22.77-20.93-36.8-60.43-61.68-105.79-61.68-67.22,0-121.71,54.49-121.71,121.71v237.62l34.42-219.08Z"/>
      <path class="cls-1" d="M510.34,154.98c10.43-66.4,72.72-111.77,139.12-101.34,20.29,3.19,38.58,11.26,53.95,22.77-20.93-36.8-60.43-61.68-105.79-61.68-67.22,0-121.71,54.49-121.71,121.71v237.62l34.42-219.08Z"/>
      <path class="cls-1" d="M510.05,154.79c10.43-66.4,72.72-111.77,139.12-101.34,20.29,3.19,38.58,11.26,53.95,22.77-20.93-36.8-60.43-61.68-105.79-61.68-67.22,0-121.71,54.49-121.71,121.71v237.62l34.42-219.08Z"/>
      <path class="cls-1" d="M509.76,154.6c10.43-66.4,72.72-111.77,139.12-101.34,20.29,3.19,38.58,11.26,53.95,22.77-20.93-36.8-60.43-61.68-105.79-61.68-67.22,0-121.71,54.49-121.71,121.71v237.62l34.42-219.08Z"/>
      <path class="cls-1" d="M509.48,154.41c10.43-66.4,72.72-111.77,139.12-101.34,20.29,3.19,38.58,11.26,53.95,22.77-20.93-36.8-60.43-61.68-105.79-61.68-67.22,0-121.71,54.49-121.71,121.71v237.62l34.42-219.08Z"/>
      <path class="cls-1" d="M509.19,154.22c10.43-66.4,72.72-111.77,139.12-101.34,20.29,3.19,38.58,11.26,53.95,22.77-20.93-36.8-60.43-61.68-105.79-61.68-67.22,0-121.71,54.49-121.71,121.71v237.62l34.42-219.08Z"/>
      <path class="cls-1" d="M508.9,154.03c10.43-66.4,72.72-111.77,139.12-101.34,20.29,3.19,38.58,11.26,53.95,22.77-20.93-36.8-60.43-61.68-105.79-61.68-67.22,0-121.71,54.49-121.71,121.71v237.62l34.42-219.08Z"/>
      <path class="cls-1" d="M508.62,153.84c10.43-66.4,72.72-111.77,139.12-101.34,20.29,3.19,38.58,11.26,53.95,22.77-20.93-36.8-60.43-61.68-105.79-61.68-67.22,0-121.71,54.49-121.71,121.71v237.62l34.42-219.08Z"/>
      <path class="cls-1" d="M508.33,153.65c10.43-66.4,72.72-111.77,139.12-101.34,20.29,3.19,38.58,11.26,53.95,22.77-20.93-36.8-60.43-61.68-105.79-61.68-67.22,0-121.71,54.49-121.71,121.71v237.62l34.42-219.08Z"/>
      <path class="cls-1" d="M508.04,153.45c10.43-66.4,72.72-111.77,139.12-101.34,20.29,3.19,38.58,11.26,53.95,22.77-20.93-36.8-60.43-61.68-105.79-61.68-67.22,0-121.71,54.49-121.71,121.71v237.62l34.42-219.08Z"/>
      <path class="cls-1" d="M507.76,153.26c10.43-66.4,72.72-111.77,139.12-101.34,20.29,3.19,38.58,11.26,53.95,22.77-20.93-36.8-60.43-61.68-105.79-61.68-67.22,0-121.71,54.49-121.71,121.71v237.62l34.42-219.08Z"/>
      <path class="cls-1" d="M507.47,153.07c10.43-66.4,72.72-111.77,139.12-101.34,20.29,3.19,38.58,11.26,53.95,22.77-20.93-36.8-60.43-61.68-105.79-61.68-67.22,0-121.71,54.49-121.71,121.71v237.62l34.42-219.08Z"/>
      <path class="cls-1" d="M507.18,152.88c10.43-66.4,72.72-111.77,139.12-101.34,20.29,3.19,38.58,11.26,53.95,22.77-20.93-36.8-60.43-61.68-105.79-61.68-67.22,0-121.71,54.49-121.71,121.71v237.62l34.42-219.08Z"/>
      <path class="cls-1" d="M506.9,152.69c10.43-66.4,72.72-111.77,139.12-101.34,20.29,3.19,38.58,11.26,53.95,22.77-20.93-36.8-60.43-61.68-105.79-61.68-67.22,0-121.71,54.49-121.71,121.71v237.62l34.42-219.08Z"/>
      <path class="cls-1" d="M506.61,152.5c10.43-66.4,72.72-111.77,139.12-101.34,20.29,3.19,38.58,11.26,53.95,22.77-20.93-36.8-60.43-61.68-105.79-61.68-67.22,0-121.71,54.49-121.71,121.71v237.62l34.42-219.08Z"/>
      <path class="cls-1" d="M506.32,152.31c10.43-66.4,72.72-111.77,139.12-101.34,20.29,3.19,38.58,11.26,53.95,22.77-20.93-36.8-60.43-61.68-105.79-61.68-67.22,0-121.71,54.49-121.71,121.71v237.62l34.42-219.08Z"/>
      <path class="cls-1" d="M506.04,152.12c10.43-66.4,72.72-111.77,139.12-101.34,20.29,3.19,38.58,11.26,53.95,22.77-20.93-36.8-60.43-61.68-105.79-61.68-67.22,0-121.71,54.49-121.71,121.71v237.62l34.42-219.08Z"/>
      <path class="cls-1" d="M505.75,151.93c10.43-66.4,72.72-111.77,139.12-101.34,20.29,3.19,38.58,11.26,53.95,22.77-20.93-36.8-60.43-61.68-105.79-61.68-67.22,0-121.71,54.49-121.71,121.71v237.62l34.42-219.08Z"/>
      <path class="cls-1" d="M505.47,151.74c10.43-66.4,72.72-111.77,139.12-101.34,20.29,3.19,38.58,11.26,53.95,22.77-20.93-36.8-60.43-61.68-105.79-61.68-67.22,0-121.71,54.49-121.71,121.71v237.62l34.42-219.08Z"/>
      <path class="cls-1" d="M505.18,151.54c10.43-66.4,72.72-111.77,139.12-101.34,20.29,3.19,38.58,11.26,53.95,22.77-20.93-36.8-60.43-61.68-105.79-61.68-67.22,0-121.71,54.49-121.71,121.71v237.62l34.42-219.08Z"/>
      <path class="cls-1" d="M504.89,151.35c10.43-66.4,72.72-111.77,139.12-101.34,20.29,3.19,38.58,11.26,53.95,22.77-20.93-36.8-60.43-61.68-105.79-61.68-67.22,0-121.71,54.49-121.71,121.71v237.62l34.42-219.08Z"/>
    </g>
    <g>
      <path class="cls-1" d="M692.48,347.55c-10.43,66.4-72.72,111.77-139.12,101.34-20.29-3.19-38.58-11.26-53.95-22.77,20.93,36.8,60.43,61.68,105.79,61.68,67.22,0,121.71-54.49,121.71-121.71v-237.62l-34.42,219.08Z"/>
      <path class="cls-1" d="M692.2,347.36c-10.43,66.4-72.72,111.77-139.12,101.34-20.29-3.19-38.58-11.26-53.95-22.77,20.93,36.8,60.43,61.68,105.79,61.68,67.22,0,121.71-54.49,121.71-121.71v-237.62l-34.42,219.08Z"/>
      <path class="cls-1" d="M691.91,347.17c-10.43,66.4-72.72,111.77-139.12,101.34-20.29-3.19-38.58-11.26-53.95-22.77,20.93,36.8,60.43,61.68,105.79,61.68,67.22,0,121.71-54.49,121.71-121.71v-237.62l-34.42,219.08Z"/>
      <path class="cls-1" d="M691.62,346.97c-10.43,66.4-72.72,111.77-139.12,101.34-20.29-3.19-38.58-11.26-53.95-22.77,20.93,36.8,60.43,61.68,105.79,61.68,67.22,0,121.71-54.49,121.71-121.71V127.9l-34.42,219.08Z"/>
      <path class="cls-1" d="M691.34,346.78c-10.43,66.4-72.72,111.77-139.12,101.34-20.29-3.19-38.58-11.26-53.95-22.77,20.93,36.8,60.43,61.68,105.79,61.68,67.22,0,121.71-54.49,121.71-121.71V127.71l-34.42,219.08Z"/>
      <path class="cls-1" d="M691.05,346.59c-10.43,66.4-72.72,111.77-139.12,101.34-20.29-3.19-38.58-11.26-53.95-22.77,20.93,36.8,60.43,61.68,105.79,61.68,67.22,0,121.71-54.49,121.71-121.71V127.51l-34.42,219.08Z"/>
      <path class="cls-1" d="M690.76,346.4c-10.43,66.4-72.72,111.77-139.12,101.34-20.29-3.19-38.58-11.26-53.95-22.77,20.93,36.8,60.43,61.68,105.79,61.68,67.22,0,121.71-54.49,121.71-121.71V127.32l-34.42,219.08Z"/>
      <path class="cls-1" d="M690.48,346.21c-10.43,66.4-72.72,111.77-139.12,101.34-20.29-3.19-38.58-11.26-53.95-22.77,20.93,36.8,60.43,61.68,105.79,61.68,67.22,0,121.71-54.49,121.71-121.71V127.13l-34.42,219.08Z"/>
      <path class="cls-1" d="M690.19,346.02c-10.43,66.4-72.72,111.77-139.12,101.34-20.29-3.19-38.58-11.26-53.95-22.77,20.93,36.8,60.43,61.68,105.79,61.68,67.22,0,121.71-54.49,121.71-121.71V126.94l-34.42,219.08Z"/>
      <path class="cls-1" d="M689.9,345.83c-10.43,66.4-72.72,111.77-139.12,101.34-20.29-3.19-38.58-11.26-53.95-22.77,20.93,36.8,60.43,61.68,105.79,61.68,67.22,0,121.71-54.49,121.71-121.71V126.75l-34.42,219.08Z"/>
      <path class="cls-1" d="M689.62,345.64c-10.43,66.4-72.72,111.77-139.12,101.34-20.29-3.19-38.58-11.26-53.95-22.77,20.93,36.8,60.43,61.68,105.79,61.68,67.22,0,121.71-54.49,121.71-121.71V126.56l-34.42,219.08Z"/>
      <path class="cls-1" d="M689.33,345.45c-10.43,66.4-72.72,111.77-139.12,101.34-20.29-3.19-38.58-11.26-53.95-22.77,20.93,36.8,60.43,61.68,105.79,61.68,67.22,0,121.71-54.49,121.71-121.71V126.37l-34.42,219.08Z"/>
      <path class="cls-1" d="M689.04,345.26c-10.43,66.4-72.72,111.77-139.12,101.34-20.29-3.19-38.58-11.26-53.95-22.77,20.93,36.8,60.43,61.68,105.79,61.68,67.22,0,121.71-54.49,121.71-121.71V126.18l-34.42,219.08Z"/>
      <path class="cls-1" d="M688.76,345.06c-10.43,66.4-72.72,111.77-139.12,101.34-20.29-3.19-38.58-11.26-53.95-22.77,20.93,36.8,60.43,61.68,105.79,61.68,67.22,0,121.71-54.49,121.71-121.71V125.99l-34.42,219.08Z"/>
      <path class="cls-1" d="M688.47,344.87c-10.43,66.4-72.72,111.77-139.12,101.34-20.29-3.19-38.58-11.26-53.95-22.77,20.93,36.8,60.43,61.68,105.79,61.68,67.22,0,121.71-54.49,121.71-121.71V125.8l-34.42,219.08Z"/>
      <path class="cls-1" d="M688.18,344.68c-10.43,66.4-72.72,111.77-139.12,101.34-20.29-3.19-38.58-11.26-53.95-22.77,20.93,36.8,60.43,61.68,105.79,61.68,67.22,0,121.71-54.49,121.71-121.71V125.6l-34.42,219.08Z"/>
      <path class="cls-1" d="M687.9,344.49c-10.43,66.4-72.72,111.77-139.12,101.34-20.29-3.19-38.58-11.26-53.95-22.77,20.93,36.8,60.43,61.68,105.79,61.68,67.22,0,121.71-54.49,121.71-121.71V125.41l-34.42,219.08Z"/>
      <path class="cls-1" d="M687.61,344.3c-10.43,66.4-72.72,111.77-139.12,101.34-20.29-3.19-38.58-11.26-53.95-22.77,20.93,36.8,60.43,61.68,105.79,61.68,67.22,0,121.71-54.49,121.71-121.71V125.22l-34.42,219.08Z"/>
      <path class="cls-1" d="M687.33,344.11c-10.43,66.4-72.72,111.77-139.12,101.34-20.29-3.19-38.58-11.26-53.95-22.77,20.93,36.8,60.43,61.68,105.79,61.68,67.22,0,121.71-54.49,121.71-121.71V125.03l-34.42,219.08Z"/>
      <path class="cls-1" d="M687.04,343.92c-10.43,66.4-72.72,111.77-139.12,101.34-20.29-3.19-38.58-11.26-53.95-22.77,20.93,36.8,60.43,61.68,105.79,61.68,67.22,0,121.71-54.49,121.71-121.71V124.84l-34.42,219.08Z"/>
      <path class="cls-1" d="M686.75,343.73c-10.43,66.4-72.72,111.77-139.12,101.34-20.29-3.19-38.58-11.26-53.95-22.77,20.93,36.8,60.43,61.68,105.79,61.68,67.22,0,121.71-54.49,121.71-121.71V124.65l-34.42,219.08Z"/>
      <path class="cls-1" d="M686.47,343.54c-10.43,66.4-72.72,111.77-139.12,101.34-20.29-3.19-38.58-11.26-53.95-22.77,20.93,36.8,60.43,61.68,105.79,61.68,67.22,0,121.71-54.49,121.71-121.71V124.46l-34.42,219.08Z"/>
      <path class="cls-1" d="M686.18,343.35c-10.43,66.4-72.72,111.77-139.12,101.34-20.29-3.19-38.58-11.26-53.95-22.77,20.93,36.8,60.43,61.68,105.79,61.68,67.22,0,121.71-54.49,121.71-121.71V124.27l-34.42,219.08Z"/>
      <path class="cls-1" d="M685.89,343.15c-10.43,66.4-72.72,111.77-139.12,101.34-20.29-3.19-38.58-11.26-53.95-22.77,20.93,36.8,60.43,61.68,105.79,61.68,67.22,0,121.71-54.49,121.71-121.71V124.08l-34.42,219.08Z"/>
      <path class="cls-1" d="M685.61,342.96c-10.43,66.4-72.72,111.77-139.12,101.34-20.29-3.19-38.58-11.26-53.95-22.77,20.93,36.8,60.43,61.68,105.79,61.68,67.22,0,121.71-54.49,121.71-121.71V123.89l-34.42,219.08Z"/>
      <path class="cls-1" d="M685.32,342.77c-10.43,66.4-72.72,111.77-139.12,101.34-20.29-3.19-38.58-11.26-53.95-22.77,20.93,36.8,60.43,61.68,105.79,61.68,67.22,0,121.71-54.49,121.71-121.71V123.7l-34.42,219.08Z"/>
      <path class="cls-1" d="M685.03,342.58c-10.43,66.4-72.72,111.77-139.12,101.34-20.29-3.19-38.58-11.26-53.95-22.77,20.93,36.8,60.43,61.68,105.79,61.68,67.22,0,121.71-54.49,121.71-121.71V123.5l-34.42,219.08Z"/>
      <path class="cls-1" d="M684.75,342.39c-10.43,66.4-72.72,111.77-139.12,101.34-20.29-3.19-38.58-11.26-53.95-22.77,20.93,36.8,60.43,61.68,105.79,61.68,67.22,0,121.71-54.49,121.71-121.71V123.31l-34.42,219.08Z"/>
      <path class="cls-1" d="M684.46,342.2c-10.43,66.4-72.72,111.77-139.12,101.34-20.29-3.19-38.58-11.26-53.95-22.77,20.93,36.8,60.43,61.68,105.79,61.68,67.22,0,121.71-54.49,121.71-121.71V123.12l-34.42,219.08Z"/>
      <path class="cls-1" d="M684.17,342.01c-10.43,66.4-72.72,111.77-139.12,101.34-20.29-3.19-38.58-11.26-53.95-22.77,20.93,36.8,60.43,61.68,105.79,61.68,67.22,0,121.71-54.49,121.71-121.71V122.93l-34.42,219.08Z"/>
      <path class="cls-1" d="M683.89,341.82c-10.43,66.4-72.72,111.77-139.12,101.34-20.29-3.19-38.58-11.26-53.95-22.77,20.93,36.8,60.43,61.68,105.79,61.68,67.22,0,121.71-54.49,121.71-121.71V122.74l-34.42,219.08Z"/>
      <path class="cls-1" d="M683.6,341.63c-10.43,66.4-72.72,111.77-139.12,101.34-20.29-3.19-38.58-11.26-53.95-22.77,20.93,36.8,60.43,61.68,105.79,61.68,67.22,0,121.71-54.49,121.71-121.71V122.55l-34.42,219.08Z"/>
      <path class="cls-1" d="M683.31,341.44c-10.43,66.4-72.72,111.77-139.12,101.34-20.29-3.19-38.58-11.26-53.95-22.77,20.93,36.8,60.43,61.68,105.79,61.68,67.22,0,121.71-54.49,121.71-121.71V122.36l-34.42,219.08Z"/>
      <path class="cls-1" d="M683.03,341.25c-10.43,66.4-72.72,111.77-139.12,101.34-20.29-3.19-38.58-11.26-53.95-22.77,20.93,36.8,60.43,61.68,105.79,61.68,67.22,0,121.71-54.49,121.71-121.71V122.17l-34.42,219.08Z"/>
      <path class="cls-1" d="M682.74,341.05c-10.43,66.4-72.72,111.77-139.12,101.34-20.29-3.19-38.58-11.26-53.95-22.77,20.93,36.8,60.43,61.68,105.79,61.68,67.22,0,121.71-54.49,121.71-121.71V121.98l-34.42,219.08Z"/>
      <path class="cls-1" d="M682.46,340.86c-10.43,66.4-72.72,111.77-139.12,101.34-20.29-3.19-38.58-11.26-53.95-22.77,20.93,36.8,60.43,61.68,105.79,61.68,67.22,0,121.71-54.49,121.71-121.71V121.79l-34.42,219.08Z"/>
      <path class="cls-1" d="M682.17,340.67c-10.43,66.4-72.72,111.77-139.12,101.34-20.29-3.19-38.58-11.26-53.95-22.77,20.93,36.8,60.43,61.68,105.79,61.68,67.22,0,121.71-54.49,121.71-121.71V121.59l-34.42,219.08Z"/>
      <path class="cls-1" d="M681.88,340.48c-10.43,66.4-72.72,111.77-139.12,101.34-20.29-3.19-38.58-11.26-53.95-22.77,20.93,36.8,60.43,61.68,105.79,61.68,67.22,0,121.71-54.49,121.71-121.71V121.4l-34.42,219.08Z"/>
      <path class="cls-1" d="M681.6,340.29c-10.43,66.4-72.72,111.77-139.12,101.34-20.29-3.19-38.58-11.26-53.95-22.77,20.93,36.8,60.43,61.68,105.79,61.68,67.22,0,121.71-54.49,121.71-121.71V121.21l-34.42,219.08Z"/>
      <path class="cls-1" d="M681.31,340.1c-10.43,66.4-72.72,111.77-139.12,101.34-20.29-3.19-38.58-11.26-53.95-22.77,20.93,36.8,60.43,61.68,105.79,61.68,67.22,0,121.71-54.49,121.71-121.71V121.02l-34.42,219.08Z"/>
      <path class="cls-1" d="M681.02,339.91c-10.43,66.4-72.72,111.77-139.12,101.34-20.29-3.19-38.58-11.26-53.95-22.77,20.93,36.8,60.43,61.68,105.79,61.68,67.22,0,121.71-54.49,121.71-121.71V120.83l-34.42,219.08Z"/>
      <path class="cls-1" d="M680.74,339.72c-10.43,66.4-72.72,111.77-139.12,101.34-20.29-3.19-38.58-11.26-53.95-22.77,20.93,36.8,60.43,61.68,105.79,61.68,67.22,0,121.71-54.49,121.71-121.71V120.64l-34.42,219.08Z"/>
      <path class="cls-1" d="M680.45,339.53c-10.43,66.4-72.72,111.77-139.12,101.34-20.29-3.19-38.58-11.26-53.95-22.77,20.93,36.8,60.43,61.68,105.79,61.68,67.22,0,121.71-54.49,121.71-121.71V120.45l-34.42,219.08Z"/>
      <path class="cls-1" d="M680.16,339.34c-10.43,66.4-72.72,111.77-139.12,101.34-20.29-3.19-38.58-11.26-53.95-22.77,20.93,36.8,60.43,61.68,105.79,61.68,67.22,0,121.71-54.49,121.71-121.71V120.26l-34.42,219.08Z"/>
      <path class="cls-1" d="M679.88,339.14c-10.43,66.4-72.72,111.77-139.12,101.34-20.29-3.19-38.58-11.26-53.95-22.77,20.93,36.8,60.43,61.68,105.79,61.68,67.22,0,121.71-54.49,121.71-121.71V120.07l-34.42,219.08Z"/>
      <path class="cls-1" d="M679.59,338.95c-10.43,66.4-72.72,111.77-139.12,101.34-20.29-3.19-38.58-11.26-53.95-22.77,20.93,36.8,60.43,61.68,105.79,61.68,67.22,0,121.71-54.49,121.71-121.71V119.88l-34.42,219.08Z"/>
      <path class="cls-1" d="M679.3,338.76c-10.43,66.4-72.72,111.77-139.12,101.34-20.29-3.19-38.58-11.26-53.95-22.77,20.93,36.8,60.43,61.68,105.79,61.68,67.22,0,121.71-54.49,121.71-121.71V119.68l-34.42,219.08Z"/>
      <path class="cls-1" d="M679.02,338.57c-10.43,66.4-72.72,111.77-139.12,101.34-20.29-3.19-38.58-11.26-53.95-22.77,20.93,36.8,60.43,61.68,105.79,61.68,67.22,0,121.71-54.49,121.71-121.71V119.49l-34.42,219.08Z"/>
      <path class="cls-1" d="M678.73,338.38c-10.43,66.4-72.72,111.77-139.12,101.34-20.29-3.19-38.58-11.26-53.95-22.77,20.93,36.8,60.43,61.68,105.79,61.68,67.22,0,121.71-54.49,121.71-121.71V119.3l-34.42,219.08Z"/>
      <path class="cls-1" d="M678.44,338.19c-10.43,66.4-72.72,111.77-139.12,101.34-20.29-3.19-38.58-11.26-53.95-22.77,20.93,36.8,60.43,61.68,105.79,61.68,67.22,0,121.71-54.49,121.71-121.71V119.11l-34.42,219.08Z"/>
      <path class="cls-1" d="M678.16,338c-10.43,66.4-72.72,111.77-139.12,101.34-20.29-3.19-38.58-11.26-53.95-22.77,20.93,36.8,60.43,61.68,105.79,61.68,67.22,0,121.71-54.49,121.71-121.71V118.92l-34.42,219.08Z"/>
      <path class="cls-1" d="M677.87,337.81c-10.43,66.4-72.72,111.77-139.12,101.34-20.29-3.19-38.58-11.26-53.95-22.77,20.93,36.8,60.43,61.68,105.79,61.68,67.22,0,121.71-54.49,121.71-121.71V118.73l-34.42,219.08Z"/>
      <path class="cls-1" d="M677.59,337.62c-10.43,66.4-72.72,111.77-139.12,101.34-20.29-3.19-38.58-11.26-53.95-22.77,20.93,36.8,60.43,61.68,105.79,61.68,67.22,0,121.71-54.49,121.71-121.71V118.54l-34.42,219.08Z"/>
      <path class="cls-1" d="M677.3,337.43c-10.43,66.4-72.72,111.77-139.12,101.34-20.29-3.19-38.58-11.26-53.95-22.77,20.93,36.8,60.43,61.68,105.79,61.68,67.22,0,121.71-54.49,121.71-121.71V118.35l-34.42,219.08Z"/>
      <path class="cls-1" d="M677.01,337.23c-10.43,66.4-72.72,111.77-139.12,101.34-20.29-3.19-38.58-11.26-53.95-22.77,20.93,36.8,60.43,61.68,105.79,61.68,67.22,0,121.71-54.49,121.71-121.71V118.16l-34.42,219.08Z"/>
      <path class="cls-1" d="M676.73,337.04c-10.43,66.4-72.72,111.77-139.12,101.34-20.29-3.19-38.58-11.26-53.95-22.77,20.93,36.8,60.43,61.68,105.79,61.68,67.22,0,121.71-54.49,121.71-121.71V117.97l-34.42,219.08Z"/>
      <path class="cls-1" d="M676.44,336.85c-10.43,66.4-72.72,111.77-139.12,101.34-20.29-3.19-38.58-11.26-53.95-22.77,20.93,36.8,60.43,61.68,105.79,61.68,67.22,0,121.71-54.49,121.71-121.71V117.77l-34.42,219.08Z"/>
      <path class="cls-1" d="M676.15,336.66c-10.43,66.4-72.72,111.77-139.12,101.34-20.29-3.19-38.58-11.26-53.95-22.77,20.93,36.8,60.43,61.68,105.79,61.68,67.22,0,121.71-54.49,121.71-121.71V117.58l-34.42,219.08Z"/>
      <path class="cls-1" d="M675.87,336.47c-10.43,66.4-72.72,111.77-139.12,101.34-20.29-3.19-38.58-11.26-53.95-22.77,20.93,36.8,60.43,61.68,105.79,61.68,67.22,0,121.71-54.49,121.71-121.71V117.39l-34.42,219.08Z"/>
      <path class="cls-1" d="M675.58,336.28c-10.43,66.4-72.72,111.77-139.12,101.34-20.29-3.19-38.58-11.26-53.95-22.77,20.93,36.8,60.43,61.68,105.79,61.68,67.22,0,121.71-54.49,121.71-121.71V117.2l-34.42,219.08Z"/>
      <path class="cls-1" d="M675.29,336.09c-10.43,66.4-72.72,111.77-139.12,101.34-20.29-3.19-38.58-11.26-53.95-22.77,20.93,36.8,60.43,61.68,105.79,61.68,67.22,0,121.71-54.49,121.71-121.71V117.01l-34.42,219.08Z"/>
      <path class="cls-1" d="M675.01,335.9c-10.43,66.4-72.72,111.77-139.12,101.34-20.29-3.19-38.58-11.26-53.95-22.77,20.93,36.8,60.43,61.68,105.79,61.68,67.22,0,121.71-54.49,121.71-121.71V116.82l-34.42,219.08Z"/>
      <path class="cls-1" d="M674.72,335.71c-10.43,66.4-72.72,111.77-139.12,101.34-20.29-3.19-38.58-11.26-53.95-22.77,20.93,36.8,60.43,61.68,105.79,61.68,67.22,0,121.71-54.49,121.71-121.71V116.63l-34.42,219.08Z"/>
      <path class="cls-1" d="M674.43,335.52c-10.43,66.4-72.72,111.77-139.12,101.34-20.29-3.19-38.58-11.26-53.95-22.77,20.93,36.8,60.43,61.68,105.79,61.68,67.22,0,121.71-54.49,121.71-121.71V116.44l-34.42,219.08Z"/>
      <path class="cls-1" d="M674.15,335.32c-10.43,66.4-72.72,111.77-139.12,101.34-20.29-3.19-38.58-11.26-53.95-22.77,20.93,36.8,60.43,61.68,105.79,61.68,67.22,0,121.71-54.49,121.71-121.71V116.25l-34.42,219.08Z"/>
      <path class="cls-1" d="M673.86,335.13c-10.43,66.4-72.72,111.77-139.12,101.34-20.29-3.19-38.58-11.26-53.95-22.77,20.93,36.8,60.43,61.68,105.79,61.68,67.22,0,121.71-54.49,121.71-121.71V116.06l-34.42,219.08Z"/>
      <path class="cls-1" d="M673.57,334.94c-10.43,66.4-72.72,111.77-139.12,101.34-20.29-3.19-38.58-11.26-53.95-22.77,20.93,36.8,60.43,61.68,105.79,61.68,67.22,0,121.71-54.49,121.71-121.71V115.86l-34.42,219.08Z"/>
      <path class="cls-1" d="M673.29,334.75c-10.43,66.4-72.72,111.77-139.12,101.34-20.29-3.19-38.58-11.26-53.95-22.77,20.93,36.8,60.43,61.68,105.79,61.68,67.22,0,121.71-54.49,121.71-121.71V115.67l-34.42,219.08Z"/>
      <path class="cls-1" d="M673,334.56c-10.43,66.4-72.72,111.77-139.12,101.34-20.29-3.19-38.58-11.26-53.95-22.77,20.93,36.8,60.43,61.68,105.79,61.68,67.22,0,121.71-54.49,121.71-121.71V115.48l-34.42,219.08Z"/>
      <path class="cls-1" d="M672.71,334.37c-10.43,66.4-72.72,111.77-139.12,101.34-20.29-3.19-38.58-11.26-53.95-22.77,20.93,36.8,60.43,61.68,105.79,61.68,67.22,0,121.71-54.49,121.71-121.71V115.29l-34.42,219.08Z"/>
      <path class="cls-1" d="M672.43,334.18c-10.43,66.4-72.72,111.77-139.12,101.34-20.29-3.19-38.58-11.26-53.95-22.77,20.93,36.8,60.43,61.68,105.79,61.68,67.22,0,121.71-54.49,121.71-121.71V115.1l-34.42,219.08Z"/>
      <path class="cls-1" d="M672.14,333.99c-10.43,66.4-72.72,111.77-139.12,101.34-20.29-3.19-38.58-11.26-53.95-22.77,20.93,36.8,60.43,61.68,105.79,61.68,67.22,0,121.71-54.49,121.71-121.71V114.91l-34.42,219.08Z"/>
      <path class="cls-1" d="M671.86,333.8c-10.43,66.4-72.72,111.77-139.12,101.34-20.29-3.19-38.58-11.26-53.95-22.77,20.93,36.8,60.43,61.68,105.79,61.68,67.22,0,121.71-54.49,121.71-121.71V114.72l-34.42,219.08Z"/>
      <path class="cls-1" d="M671.57,333.61c-10.43,66.4-72.72,111.77-139.12,101.34-20.29-3.19-38.58-11.26-53.95-22.77,20.93,36.8,60.43,61.68,105.79,61.68,67.22,0,121.71-54.49,121.71-121.71V114.53l-34.42,219.08Z"/>
      <path class="cls-1" d="M671.28,333.41c-10.43,66.4-72.72,111.77-139.12,101.34-20.29-3.19-38.58-11.26-53.95-22.77,20.93,36.8,60.43,61.68,105.79,61.68,67.22,0,121.71-54.49,121.71-121.71V114.34l-34.42,219.08Z"/>
      <path class="cls-1" d="M671,333.22c-10.43,66.4-72.72,111.77-139.12,101.34-20.29-3.19-38.58-11.26-53.95-22.77,20.93,36.8,60.43,61.68,105.79,61.68,67.22,0,121.71-54.49,121.71-121.71V114.15l-34.42,219.08Z"/>
      <path class="cls-1" d="M670.71,333.03c-10.43,66.4-72.72,111.77-139.12,101.34-20.29-3.19-38.58-11.26-53.95-22.77,20.93,36.8,60.43,61.68,105.79,61.68,67.22,0,121.71-54.49,121.71-121.71V113.95l-34.42,219.08Z"/>
      <path class="cls-1" d="M670.42,332.84c-10.43,66.4-72.72,111.77-139.12,101.34-20.29-3.19-38.58-11.26-53.95-22.77,20.93,36.8,60.43,61.68,105.79,61.68,67.22,0,121.71-54.49,121.71-121.71V113.76l-34.42,219.08Z"/>
      <path class="cls-1" d="M670.14,332.65c-10.43,66.4-72.72,111.77-139.12,101.34-20.29-3.19-38.58-11.26-53.95-22.77,20.93,36.8,60.43,61.68,105.79,61.68,67.22,0,121.71-54.49,121.71-121.71V113.57l-34.42,219.08Z"/>
      <path class="cls-1" d="M669.85,332.46c-10.43,66.4-72.72,111.77-139.12,101.34-20.29-3.19-38.58-11.26-53.95-22.77,20.93,36.8,60.43,61.68,105.79,61.68,67.22,0,121.71-54.49,121.71-121.71V113.38l-34.42,219.08Z"/>
      <path class="cls-1" d="M669.56,332.27c-10.43,66.4-72.72,111.77-139.12,101.34-20.29-3.19-38.58-11.26-53.95-22.77,20.93,36.8,60.43,61.68,105.79,61.68,67.22,0,121.71-54.49,121.71-121.71V113.19l-34.42,219.08Z"/>
      <path class="cls-1" d="M669.28,332.08c-10.43,66.4-72.72,111.77-139.12,101.34-20.29-3.19-38.58-11.26-53.95-22.77,20.93,36.8,60.43,61.68,105.79,61.68,67.22,0,121.71-54.49,121.71-121.71V113l-34.42,219.08Z"/>
      <path class="cls-1" d="M668.99,331.89c-10.43,66.4-72.72,111.77-139.12,101.34-20.29-3.19-38.58-11.26-53.95-22.77,20.93,36.8,60.43,61.68,105.79,61.68,67.22,0,121.71-54.49,121.71-121.71V112.81l-34.42,219.08Z"/>
      <path class="cls-1" d="M668.7,331.7c-10.43,66.4-72.72,111.77-139.12,101.34-20.29-3.19-38.58-11.26-53.95-22.77,20.93,36.8,60.43,61.68,105.79,61.68,67.22,0,121.71-54.49,121.71-121.71V112.62l-34.42,219.08Z"/>
      <path class="cls-1" d="M668.42,331.5c-10.43,66.4-72.72,111.77-139.12,101.34-20.29-3.19-38.58-11.26-53.95-22.77,20.93,36.8,60.43,61.68,105.79,61.68,67.22,0,121.71-54.49,121.71-121.71V112.43l-34.42,219.08Z"/>
      <path class="cls-1" d="M668.13,331.31c-10.43,66.4-72.72,111.77-139.12,101.34-20.29-3.19-38.58-11.26-53.95-22.77,20.93,36.8,60.43,61.68,105.79,61.68,67.22,0,121.71-54.49,121.71-121.71V112.24l-34.42,219.08Z"/>
      <path class="cls-1" d="M667.84,331.12c-10.43,66.4-72.72,111.77-139.12,101.34-20.29-3.19-38.58-11.26-53.95-22.77,20.93,36.8,60.43,61.68,105.79,61.68,67.22,0,121.71-54.49,121.71-121.71V112.04l-34.42,219.08Z"/>
      <path class="cls-1" d="M667.56,330.93c-10.43,66.4-72.72,111.77-139.12,101.34-20.29-3.19-38.58-11.26-53.95-22.77,20.93,36.8,60.43,61.68,105.79,61.68,67.22,0,121.71-54.49,121.71-121.71V111.85l-34.42,219.08Z"/>
      <path class="cls-1" d="M667.27,330.74c-10.43,66.4-72.72,111.77-139.12,101.34-20.29-3.19-38.58-11.26-53.95-22.77,20.93,36.8,60.43,61.68,105.79,61.68,67.22,0,121.71-54.49,121.71-121.71V111.66l-34.42,219.08Z"/>
      <path class="cls-1" d="M666.99,330.55c-10.43,66.4-72.72,111.77-139.12,101.34-20.29-3.19-38.58-11.26-53.95-22.77,20.93,36.8,60.43,61.68,105.79,61.68,67.22,0,121.71-54.49,121.71-121.71V111.47l-34.42,219.08Z"/>
      <path class="cls-1" d="M666.7,330.36c-10.43,66.4-72.72,111.77-139.12,101.34-20.29-3.19-38.58-11.26-53.95-22.77,20.93,36.8,60.43,61.68,105.79,61.68,67.22,0,121.71-54.49,121.71-121.71V111.28l-34.42,219.08Z"/>
      <path class="cls-1" d="M666.41,330.17c-10.43,66.4-72.72,111.77-139.12,101.34-20.29-3.19-38.58-11.26-53.95-22.77,20.93,36.8,60.43,61.68,105.79,61.68,67.22,0,121.71-54.49,121.71-121.71V111.09l-34.42,219.08Z"/>
      <path class="cls-1" d="M666.13,329.98c-10.43,66.4-72.72,111.77-139.12,101.34-20.29-3.19-38.58-11.26-53.95-22.77,20.93,36.8,60.43,61.68,105.79,61.68,67.22,0,121.71-54.49,121.71-121.71V110.9l-34.42,219.08Z"/>
      <path class="cls-1" d="M665.84,329.79c-10.43,66.4-72.72,111.77-139.12,101.34-20.29-3.19-38.58-11.26-53.95-22.77,20.93,36.8,60.43,61.68,105.79,61.68,67.22,0,121.71-54.49,121.71-121.71V110.71l-34.42,219.08Z"/>
      <path class="cls-1" d="M665.55,329.59c-10.43,66.4-72.72,111.77-139.12,101.34-20.29-3.19-38.58-11.26-53.95-22.77,20.93,36.8,60.43,61.68,105.79,61.68,67.22,0,121.71-54.49,121.71-121.71V110.52l-34.42,219.08Z"/>
      <path class="cls-1" d="M665.27,329.4c-10.43,66.4-72.72,111.77-139.12,101.34-20.29-3.19-38.58-11.26-53.95-22.77,20.93,36.8,60.43,61.68,105.79,61.68,67.22,0,121.71-54.49,121.71-121.71V110.33l-34.42,219.08Z"/>
      <path class="cls-1" d="M664.98,329.21c-10.43,66.4-72.72,111.77-139.12,101.34-20.29-3.19-38.58-11.26-53.95-22.77,20.93,36.8,60.43,61.68,105.79,61.68,67.22,0,121.71-54.49,121.71-121.71V110.13l-34.42,219.08Z"/>
      <path class="cls-1" d="M664.69,329.02c-10.43,66.4-72.72,111.77-139.12,101.34-20.29-3.19-38.58-11.26-53.95-22.77,20.93,36.8,60.43,61.68,105.79,61.68,67.22,0,121.71-54.49,121.71-121.71V109.94l-34.42,219.08Z"/>
      <path class="cls-1" d="M664.41,328.83c-10.43,66.4-72.72,111.77-139.12,101.34-20.29-3.19-38.58-11.26-53.95-22.77,20.93,36.8,60.43,61.68,105.79,61.68,67.22,0,121.71-54.49,121.71-121.71V109.75l-34.42,219.08Z"/>
      <path class="cls-1" d="M664.12,328.64c-10.43,66.4-72.72,111.77-139.12,101.34-20.29-3.19-38.58-11.26-53.95-22.77,20.93,36.8,60.43,61.68,105.79,61.68,67.22,0,121.71-54.49,121.71-121.71V109.56l-34.42,219.08Z"/>
      <path class="cls-1" d="M663.83,328.45c-10.43,66.4-72.72,111.77-139.12,101.34-20.29-3.19-38.58-11.26-53.95-22.77,20.93,36.8,60.43,61.68,105.79,61.68,67.22,0,121.71-54.49,121.71-121.71V109.37l-34.42,219.08Z"/>
      <path class="cls-1" d="M663.55,328.26c-10.43,66.4-72.72,111.77-139.12,101.34-20.29-3.19-38.58-11.26-53.95-22.77,20.93,36.8,60.43,61.68,105.79,61.68,67.22,0,121.71-54.49,121.71-121.71V109.18l-34.42,219.08Z"/>
    </g>
    <g>
      <g class="cls-4">
        <path class="cls-3" d="M583.49,319.3h-14.99v-7.64c7.58,2.24,9.32,2.02,11.94,1.94,32.33,4.44,67.83-13.97,73.09-49.47,3.95-30.25-19.73-60.49-51.29-56.55-15.78,2.63-32.88,15.78-32.88,32.88,9.21-22.36,34.19-32.88,55.23-21.04,23.67,14.47,26.3,46.03,9.21,65.75-18.41,22.36-52.6,23.67-73.64,3.95-26.3-23.67-26.3-65.75-.26-88.05,5.62-5.31,8.6-7.49,8.6-7.49,0,0-3.32,2.68-7.61,7.03-21.77,20.12-25.71,53-8.62,77.99,15.78,22.36,44.71,28.93,68.38,15.78,17.1-10.52,24.99-27.62,21.04-47.34-3.95-14.47-13.15-24.99-27.62-28.93-15.78-3.95-32.88,5.26-38.14,21.04-3.95,13.15,3.95,27.62,18.41,30.25,7.89,1.32,13.15-3.95,19.73-5.26-1.32,9.21-10.52,11.84-18.41,13.15-18.41,1.32-31.56-15.78-31.56-31.56,0-21.04,17.1-38.14,36.82-40.77,32.88-3.95,59.18,26.3,55.23,57.86-5.26,34.19-38.14,56.55-71.2,53.22-1.48,2.01-1.48,3.27-1.48,3.27Z"/>
        <path class="cls-3" d="M604.62,319.3h-14.99s.46-1.18,2.06-3.3c17.14.73,34.24-5.85,47.39-17.68,22.36-22.36,24.99-59.18,0-81.53-11.84-10.52-26.3-13.15-40.77-11.84-17.1,2.63-28.93,14.47-34.19,30.25-5.26,21.04,9.21,46.03,32.88,43.4,7.89-1.32,15.78-5.26,19.73-11.84,2.63-6.58,2.63-17.1-3.95-21.04-2.63,6.58,1.32,14.47-6.58,18.41-7.89,5.26-17.1,2.63-23.67-2.63-7.89-7.89-7.89-21.04-1.32-30.25,10.52-14.47,30.25-17.1,44.71-6.58,23.67,17.1,19.73,51.29-2.63,67.07-14.47,10.52-32.88,10.52-48.66,3.95-19.73-9.21-35.51-31.56-30.25-53.92-1.32,22.36,11.84,43.4,31.56,52.6,21.04,9.21,44.71,2.63,57.86-17.1,9.21-15.78,7.89-35.51-5.26-47.34-7.89-6.58-18.41-10.52-28.93-7.89-13.15,2.63-21.04,14.47-18.41,27.62,1.32,9.21,14.47,17.1,19.73,7.89,2.63-3.95-7.89-5.26-6.58-11.84,2.63-9.21,11.84-10.52,19.73-6.58,5.26,3.95,7.89,9.21,9.21,15.78,1.32,11.84-6.58,19.73-15.78,24.99-21.04,9.21-43.4-7.89-46.03-30.25-2.63-24.99,18.41-46.03,42.08-47.34,21.04-1.32,39.45,10.52,48.66,28.93,6.58,15.78,7.89,32.88,1.32,48.66-6.58,14.47-19.73,26.3-34.41,32.77-13.96,5.32-14.51,6.62-14.51,6.62Z"/>
        <path class="cls-3" d="M625.74,319.3h-14.99s.36-1.32,8.98-5.88c32.49-12.47,48.28-50.61,33.81-82.17-9.21-19.73-31.56-31.56-53.92-28.93-22.36,2.63-40.77,23.67-39.45,46.03,1.32,19.73,18.41,35.51,39.45,34.19,7.89,0,14.47-5.26,19.73-11.84,9.21-11.84,5.26-32.88-11.84-35.51-13.15-2.63-19.73,11.84-15.78,22.36-14.47-3.95-10.52-21.04-2.63-28.93,10.52-7.89,22.36-7.89,32.88-2.63,15.78,9.21,19.73,31.56,13.15,47.34-5.26,11.84-17.1,19.73-30.25,23.67-26.3,5.26-49.97-11.84-57.86-36.82-9.21-31.56,13.15-60.49,42.08-71.01-17.1,5.26-30.25,17.1-38.14,32.88-10.52,22.36-3.95,49.97,17.1,65.75,18.41,11.84,43.4,11.84,57.86-5.26,10.52-11.84,13.15-28.93,3.95-43.4-3.95-5.26-7.89-10.52-15.78-10.52,10.52,9.21,18.41,24.99,11.84,38.14-5.26,9.21-13.15,15.78-22.36,18.41-13.15,2.63-24.99-1.32-34.19-10.52-11.84-13.15-14.47-32.88-6.58-48.66,11.84-23.67,40.77-31.56,63.12-22.36,19.73,7.89,32.88,27.62,34.19,48.66s-9.21,40.77-24.95,53.86c-7.71,6.19-8.51,7.99-9.42,9.63v3.52Z"/>
      </g>
      <ellipse class="cls-2" cx="598.69" cy="252.27" rx="21.29" ry="50.87"/>
    </g>
  </g>
  <path class="cls-3" d="M941.94,235.15l-47.41,136.82L765.17,12.99h100.24l76.53,222.16ZM1200,12.99l-171.36,474.12h-92.11v-.68L1099.76,12.99h100.24Z"/>
</svg>