<?xml version="1.0" encoding="UTF-8"?>
<svg id="Layer_1" data-name="Layer 1" xmlns="http://www.w3.org/2000/svg" xmlns:xlink="http://www.w3.org/1999/xlink" viewBox="0 0 150 150">
  <defs>
    <style>
      .cls-1 {
        fill: #9b8f9d;
      }

      .cls-1, .cls-2, .cls-3, .cls-4, .cls-5, .cls-6, .cls-7, .cls-8, .cls-9, .cls-10, .cls-11, .cls-12, .cls-13, .cls-14, .cls-15, .cls-16, .cls-17, .cls-18, .cls-19, .cls-20, .cls-21, .cls-22, .cls-23, .cls-24, .cls-25, .cls-26, .cls-27, .cls-28, .cls-29, .cls-30, .cls-31, .cls-32, .cls-33, .cls-34, .cls-35, .cls-36, .cls-37, .cls-38, .cls-39, .cls-40, .cls-41, .cls-42, .cls-43, .cls-44, .cls-45, .cls-46, .cls-47, .cls-48, .cls-49, .cls-50, .cls-51, .cls-52, .cls-53, .cls-54, .cls-55, .cls-56, .cls-57, .cls-58, .cls-59, .cls-60, .cls-61, .cls-62, .cls-63, .cls-64, .cls-65, .cls-66, .cls-67, .cls-68, .cls-69, .cls-70, .cls-71, .cls-72, .cls-73, .cls-74, .cls-75, .cls-76, .cls-77, .cls-78, .cls-79, .cls-80, .cls-81, .cls-82, .cls-83, .cls-84, .cls-85, .cls-86, .cls-87, .cls-88, .cls-89, .cls-90, .cls-91, .cls-92, .cls-93, .cls-94, .cls-95, .cls-96, .cls-97, .cls-98, .cls-99, .cls-100, .cls-101, .cls-102, .cls-103 {
        stroke: #57459c;
      }

      .cls-1, .cls-2, .cls-3, .cls-4, .cls-5, .cls-6, .cls-7, .cls-8, .cls-9, .cls-10, .cls-11, .cls-12, .cls-13, .cls-14, .cls-15, .cls-16, .cls-17, .cls-18, .cls-19, .cls-20, .cls-21, .cls-22, .cls-23, .cls-24, .cls-25, .cls-26, .cls-27, .cls-28, .cls-29, .cls-30, .cls-31, .cls-32, .cls-33, .cls-34, .cls-35, .cls-36, .cls-37, .cls-38, .cls-39, .cls-40, .cls-41, .cls-42, .cls-43, .cls-44, .cls-45, .cls-46, .cls-47, .cls-48, .cls-49, .cls-50, .cls-51, .cls-52, .cls-53, .cls-54, .cls-55, .cls-56, .cls-57, .cls-58, .cls-59, .cls-60, .cls-61, .cls-62, .cls-64, .cls-65, .cls-66, .cls-67, .cls-68, .cls-69, .cls-70, .cls-71, .cls-72, .cls-73, .cls-74, .cls-75, .cls-76, .cls-77, .cls-78, .cls-79, .cls-80, .cls-81, .cls-82, .cls-83, .cls-84, .cls-85, .cls-86, .cls-87, .cls-88, .cls-89, .cls-90, .cls-91, .cls-92, .cls-93, .cls-94, .cls-95, .cls-96, .cls-97, .cls-98, .cls-99, .cls-100, .cls-101, .cls-102, .cls-103 {
        stroke-linecap: round;
        stroke-linejoin: round;
        stroke-width: 1.5px;
      }

      .cls-2 {
        fill: #211f21;
      }

      .cls-3 {
        fill: #7d747e;
      }

      .cls-4 {
        fill: #3c383b;
      }

      .cls-5 {
        fill: #2a2829;
      }

      .cls-6 {
        fill: #343133;
      }

      .cls-7 {
        fill: #c8bacf;
      }

      .cls-8 {
        fill: #4d474c;
      }

      .cls-9 {
        fill: #827883;
      }

      .cls-10 {
        fill: #6d646d;
      }

      .cls-11 {
        fill: #3a3639;
      }

      .cls-12 {
        fill: #b3a6b8;
      }

      .cls-13 {
        fill: #9d91a0;
      }

      .cls-14 {
        fill: #131313;
      }

      .cls-15 {
        fill: #948896;
      }

      .cls-16 {
        fill: #beb0c3;
      }

      .cls-17 {
        fill: #968b98;
      }

      .cls-18 {
        fill: #a598a7;
      }

      .cls-19 {
        fill: #09090a;
      }

      .cls-20 {
        fill: #5f585e;
      }

      .cls-21 {
        fill: #232123;
      }

      .cls-22 {
        fill: #928693;
      }

      .cls-23 {
        fill: #504a4f;
      }

      .cls-24 {
        fill: #1a191a;
      }

      .cls-25 {
        fill: #0c0c0c;
      }

      .cls-26 {
        fill: #c5b7cc;
      }

      .cls-27 {
        fill: #6f666f;
      }

      .cls-28 {
        fill: #1d1c1d;
      }

      .cls-29 {
        fill: #807680;
      }

      .cls-30 {
        fill: #2c292b;
      }

      .cls-31 {
        fill: #413c40;
      }

      .cls-32 {
        fill: #bbadc0;
      }

      .cls-33 {
        fill: #675f66;
      }

      .cls-34 {
        fill: #5d565c;
      }

      .cls-35 {
        fill: #a296a5;
      }

      .cls-36 {
        fill: #aea1b2;
      }

      .cls-37 {
        fill: #4b464a;
      }

      .cls-38 {
        fill: #d8cae3;
      }

      .cls-39 {
        fill: #d4c6de;
      }

      .cls-40 {
        fill: #c3b5c9;
      }

      .cls-41 {
        fill: #010101;
      }

      .cls-42 {
        fill: #756c75;
      }

      .cls-43 {
        fill: #615960;
      }

      .cls-44 {
        fill: #2d2b2d;
      }

      .cls-45 {
        fill: #8b808c;
      }

      .cls-46 {
        fill: #c0b2c6;
      }

      .cls-47 {
        fill: #040404;
      }

      .cls-48 {
        fill: #8f8491;
      }

      .cls-49 {
        fill: #443f43;
      }

      .cls-50 {
        fill: #262426;
      }

      .cls-51 {
        fill: #494448;
      }

      .cls-52 {
        fill: #ac9faf;
      }

      .cls-53 {
        fill: #282628;
      }

      .cls-54 {
        fill: #cbbdd2;
      }

      .cls-55 {
        fill: #716871;
      }

      .cls-56 {
        fill: #655d64;
      }

      .cls-57 {
        fill: #161516;
      }

      .cls-58 {
        fill: #373336;
      }

      .cls-59 {
        fill: #433e42;
      }

      .cls-60 {
        fill: #696068;
      }

      .cls-61 {
        fill: #322f31;
      }

      .cls-62 {
        fill: #484347;
      }

      .cls-63 {
        fill: none;
        stroke-miterlimit: 10;
        stroke-width: .25px;
      }

      .cls-64 {
        fill: #312e30;
      }

      .cls-65 {
        fill: #524c51;
      }

      .cls-66 {
        fill: #867c87;
      }

      .cls-67 {
        fill: #b1a4b5;
      }

      .cls-68 {
        fill: #5b545a;
      }

      .cls-69 {
        fill: #4f494e;
      }

      .cls-70 {
        fill: #8d828e;
      }

      .cls-71 {
        fill: #6b626a;
      }

      .cls-72 {
        fill: #635b62;
      }

      .cls-73 {
        fill: #a99dad;
      }

      .cls-74 {
        fill: #252324;
      }

      .cls-75 {
        fill: #a094a2;
      }

      .cls-76 {
        fill: #b6a8ba;
      }

      .cls-77 {
        fill: #b8abbd;
      }

      .cls-78 {
        fill: #776e77;
      }

      .cls-79 {
        fill: #a79aaa;
      }

      .cls-80 {
        fill: #544e53;
      }

      .cls-81 {
        fill: #585157;
      }

      .cls-82 {
        fill: #1f1e1f;
      }

      .cls-83 {
        fill: #847a85;
      }

      .cls-84 {
        fill: #cebfd5;
      }

      .cls-85 {
        fill: #353234;
      }

      .cls-86 {
        fill: #3e393d;
      }

      .cls-87 {
        fill: #1b1a1b;
      }

      .cls-88 {
        fill: #897e8a;
      }

      .cls-89 {
        fill: #181718;
      }

      .cls-104 {
        fill: #57459c;
      }

      .cls-90 {
        fill: #393538;
      }

      .cls-91 {
        fill: #736a73;
      }

      .cls-92 {
        fill: #564f55;
      }

      .cls-93 {
        fill: #797079;
      }

      .cls-94 {
        fill: #0f0e0f;
      }

      .cls-95 {
        fill: #2f2c2e;
      }

      .cls-96 {
        fill: #998d9b;
      }

      .cls-97 {
        fill: #595259;
      }

      .cls-105 {
        clip-path: url(#clippath);
      }

      .cls-98 {
        fill: #7b727c;
      }

      .cls-99 {
        fill: #464145;
      }

      .cls-100 {
        fill: #070607;
      }

      .cls-101 {
        fill: #3f3b3e;
      }

      .cls-102 {
        fill: #111;
      }

      .cls-103 {
        fill: #d1c2d9;
      }
    </style>
    <clipPath id="clippath">
      <ellipse class="cls-63" cx="75.09" cy="75.92" rx="6.63" ry="15.83"/>
    </clipPath>
  </defs>
  <g>
    <path class="cls-41" d="M54.81,50.52c3.25-20.67,22.64-34.79,43.3-31.54,6.32.99,12.01,3.51,16.79,7.09-6.52-11.46-18.81-19.2-32.93-19.2-20.92,0-37.88,16.96-37.88,37.88v73.96l10.71-68.19Z"/>
    <path class="cls-47" d="M54.72,50.46c3.25-20.67,22.64-34.79,43.3-31.54,6.32.99,12.01,3.51,16.79,7.09-6.52-11.46-18.81-19.2-32.93-19.2-20.92,0-37.88,16.96-37.88,37.88v73.96l10.71-68.19Z"/>
    <path class="cls-100" d="M54.63,50.4c3.25-20.67,22.64-34.79,43.3-31.54,6.32.99,12.01,3.51,16.79,7.09-6.52-11.46-18.81-19.2-32.93-19.2-20.92,0-37.88,16.96-37.88,37.88v73.96l10.71-68.19Z"/>
    <path class="cls-19" d="M54.54,50.34c3.25-20.67,22.64-34.79,43.3-31.54,6.32.99,12.01,3.51,16.79,7.09-6.52-11.46-18.81-19.2-32.93-19.2-20.92,0-37.88,16.96-37.88,37.88v73.96l10.71-68.19Z"/>
    <path class="cls-25" d="M54.45,50.28c3.25-20.67,22.64-34.79,43.3-31.54,6.32.99,12.01,3.51,16.79,7.09-6.52-11.46-18.81-19.2-32.93-19.2-20.92,0-37.88,16.96-37.88,37.88v73.96l10.71-68.19Z"/>
    <path class="cls-94" d="M54.37,50.22c3.25-20.67,22.64-34.79,43.3-31.54,6.32.99,12.01,3.51,16.79,7.09-6.52-11.46-18.81-19.2-32.93-19.2-20.92,0-37.88,16.96-37.88,37.88v73.96l10.71-68.19Z"/>
    <path class="cls-102" d="M54.28,50.16c3.25-20.67,22.64-34.79,43.3-31.54,6.32.99,12.01,3.51,16.79,7.09-6.52-11.46-18.81-19.2-32.93-19.2-20.92,0-37.88,16.96-37.88,37.88v73.96l10.71-68.19Z"/>
    <path class="cls-14" d="M54.19,50.1c3.25-20.67,22.64-34.79,43.3-31.54,6.32.99,12.01,3.51,16.79,7.09-6.52-11.46-18.81-19.2-32.93-19.2-20.92,0-37.88,16.96-37.88,37.88v73.96l10.71-68.19Z"/>
    <path class="cls-57" d="M54.1,50.04c3.25-20.67,22.64-34.79,43.3-31.54,6.32.99,12.01,3.51,16.79,7.09-6.52-11.46-18.81-19.2-32.93-19.2-20.92,0-37.88,16.96-37.88,37.88v73.96l10.71-68.19Z"/>
    <path class="cls-89" d="M54.01,49.98c3.25-20.67,22.64-34.79,43.3-31.54,6.32.99,12.01,3.51,16.79,7.09-6.52-11.46-18.81-19.2-32.93-19.2-20.92,0-37.88,16.96-37.88,37.88v73.96l10.71-68.19Z"/>
    <path class="cls-24" d="M53.92,49.92c3.25-20.67,22.64-34.79,43.3-31.54,6.32.99,12.01,3.51,16.79,7.09-6.52-11.46-18.81-19.2-32.93-19.2-20.92,0-37.88,16.96-37.88,37.88v73.96l10.71-68.19Z"/>
    <path class="cls-87" d="M53.83,49.86c3.25-20.67,22.64-34.79,43.3-31.54,6.32.99,12.01,3.51,16.79,7.09-6.52-11.46-18.81-19.2-32.93-19.2-20.92,0-37.88,16.96-37.88,37.88v73.96l10.71-68.19Z"/>
    <path class="cls-28" d="M53.74,49.8c3.25-20.67,22.64-34.79,43.3-31.54,6.32.99,12.01,3.51,16.79,7.09-6.52-11.46-18.81-19.2-32.93-19.2-20.92,0-37.88,16.96-37.88,37.88v73.96l10.71-68.19Z"/>
    <path class="cls-82" d="M53.65,49.74c3.25-20.67,22.64-34.79,43.3-31.54,6.32.99,12.01,3.51,16.79,7.09-6.52-11.46-18.81-19.2-32.93-19.2-20.92,0-37.88,16.96-37.88,37.88v73.96l10.71-68.19Z"/>
    <path class="cls-2" d="M53.56,49.68c3.25-20.67,22.64-34.79,43.3-31.54,6.32.99,12.01,3.51,16.79,7.09-6.52-11.46-18.81-19.2-32.93-19.2-20.92,0-37.88,16.96-37.88,37.88v73.96l10.71-68.19Z"/>
    <path class="cls-21" d="M53.47,49.62c3.25-20.67,22.64-34.79,43.3-31.54,6.32.99,12.01,3.51,16.79,7.09-6.52-11.46-18.81-19.2-32.93-19.2-20.92,0-37.88,16.96-37.88,37.88v73.96l10.71-68.19Z"/>
    <path class="cls-74" d="M53.38,49.56c3.25-20.67,22.64-34.79,43.3-31.54,6.32.99,12.01,3.51,16.79,7.09-6.52-11.46-18.81-19.2-32.93-19.2-20.92,0-37.88,16.96-37.88,37.88v73.96l10.71-68.19Z"/>
    <path class="cls-50" d="M53.3,49.5c3.25-20.67,22.64-34.79,43.3-31.54,6.32.99,12.01,3.51,16.79,7.09-6.52-11.46-18.81-19.2-32.93-19.2-20.92,0-37.88,16.96-37.88,37.88v73.96l10.71-68.19Z"/>
    <path class="cls-53" d="M53.21,49.45c3.25-20.67,22.64-34.79,43.3-31.54,6.32.99,12.01,3.51,16.79,7.09-6.52-11.46-18.81-19.2-32.93-19.2-20.92,0-37.88,16.96-37.88,37.88v73.96l10.71-68.19Z"/>
    <path class="cls-5" d="M53.12,49.39c3.25-20.67,22.64-34.79,43.3-31.54,6.32.99,12.01,3.51,16.79,7.09-6.52-11.46-18.81-19.2-32.93-19.2-20.92,0-37.88,16.96-37.88,37.88v73.96l10.71-68.19Z"/>
    <path class="cls-30" d="M53.03,49.33c3.25-20.67,22.64-34.79,43.3-31.54,6.32.99,12.01,3.51,16.79,7.09-6.52-11.46-18.81-19.2-32.93-19.2-20.92,0-37.88,16.96-37.88,37.88v73.96l10.71-68.19Z"/>
    <path class="cls-44" d="M52.94,49.27c3.25-20.67,22.64-34.79,43.3-31.54,6.32.99,12.01,3.51,16.79,7.09-6.52-11.46-18.81-19.2-32.93-19.2-20.92,0-37.88,16.96-37.88,37.88v73.96l10.71-68.19Z"/>
    <path class="cls-95" d="M52.85,49.21c3.25-20.67,22.64-34.79,43.3-31.54,6.32.99,12.01,3.51,16.79,7.09-6.52-11.46-18.81-19.2-32.93-19.2-20.92,0-37.88,16.96-37.88,37.88v73.96l10.71-68.19Z"/>
    <path class="cls-64" d="M52.76,49.15c3.25-20.67,22.64-34.79,43.3-31.54,6.32.99,12.01,3.51,16.79,7.09-6.52-11.46-18.81-19.2-32.93-19.2-20.92,0-37.88,16.96-37.88,37.88v73.96l10.71-68.19Z"/>
    <path class="cls-61" d="M52.67,49.09c3.25-20.67,22.64-34.79,43.3-31.54,6.32.99,12.01,3.51,16.79,7.09-6.52-11.46-18.81-19.2-32.93-19.2-20.92,0-37.88,16.96-37.88,37.88v73.96l10.71-68.19Z"/>
    <path class="cls-6" d="M52.58,49.03c3.25-20.67,22.64-34.79,43.3-31.54,6.32.99,12.01,3.51,16.79,7.09-6.52-11.46-18.81-19.2-32.93-19.2-20.92,0-37.88,16.96-37.88,37.88v73.96l10.71-68.19Z"/>
    <path class="cls-85" d="M52.49,48.97c3.25-20.67,22.64-34.79,43.3-31.54,6.32.99,12.01,3.51,16.79,7.09-6.52-11.46-18.81-19.2-32.93-19.2-20.92,0-37.88,16.96-37.88,37.88v73.96l10.71-68.19Z"/>
    <path class="cls-58" d="M52.4,48.91c3.25-20.67,22.64-34.79,43.3-31.54,6.32.99,12.01,3.51,16.79,7.09-6.52-11.46-18.81-19.2-32.93-19.2-20.92,0-37.88,16.96-37.88,37.88v73.96l10.71-68.19Z"/>
    <path class="cls-90" d="M52.31,48.85c3.25-20.67,22.64-34.79,43.3-31.54,6.32.99,12.01,3.51,16.79,7.09-6.52-11.46-18.81-19.2-32.93-19.2-20.92,0-37.88,16.96-37.88,37.88v73.96l10.71-68.19Z"/>
    <path class="cls-11" d="M52.23,48.79c3.25-20.67,22.64-34.79,43.3-31.54,6.32.99,12.01,3.51,16.79,7.09-6.52-11.46-18.81-19.2-32.93-19.2-20.92,0-37.88,16.96-37.88,37.88v73.96l10.71-68.19Z"/>
    <path class="cls-4" d="M52.14,48.73c3.25-20.67,22.64-34.79,43.3-31.54,6.32.99,12.01,3.51,16.79,7.09-6.52-11.46-18.81-19.2-32.93-19.2-20.92,0-37.88,16.96-37.88,37.88v73.96l10.71-68.19Z"/>
    <path class="cls-86" d="M52.05,48.67c3.25-20.67,22.64-34.79,43.3-31.54,6.32.99,12.01,3.51,16.79,7.09-6.52-11.46-18.81-19.2-32.93-19.2-20.92,0-37.88,16.96-37.88,37.88v73.96l10.71-68.19Z"/>
    <path class="cls-101" d="M51.96,48.61c3.25-20.67,22.64-34.79,43.3-31.54,6.32.99,12.01,3.51,16.79,7.09-6.52-11.46-18.81-19.2-32.93-19.2-20.92,0-37.88,16.96-37.88,37.88v73.96l10.71-68.19Z"/>
    <path class="cls-31" d="M51.87,48.55c3.25-20.67,22.64-34.79,43.3-31.54,6.32.99,12.01,3.51,16.79,7.09-6.52-11.46-18.81-19.2-32.93-19.2-20.92,0-37.88,16.96-37.88,37.88v73.96l10.71-68.19Z"/>
    <path class="cls-59" d="M51.78,48.49c3.25-20.67,22.64-34.79,43.3-31.54,6.32.99,12.01,3.51,16.79,7.09-6.52-11.46-18.81-19.2-32.93-19.2-20.92,0-37.88,16.96-37.88,37.88v73.96l10.71-68.19Z"/>
    <path class="cls-49" d="M51.69,48.43c3.25-20.67,22.64-34.79,43.3-31.54,6.32.99,12.01,3.51,16.79,7.09-6.52-11.46-18.81-19.2-32.93-19.2-20.92,0-37.88,16.96-37.88,37.88v73.96l10.71-68.19Z"/>
    <path class="cls-99" d="M51.6,48.38c3.25-20.67,22.64-34.79,43.3-31.54,6.32.99,12.01,3.51,16.79,7.09-6.52-11.46-18.81-19.2-32.93-19.2-20.92,0-37.88,16.96-37.88,37.88v73.96l10.71-68.19Z"/>
    <path class="cls-62" d="M51.51,48.32c3.25-20.67,22.64-34.79,43.3-31.54,6.32.99,12.01,3.51,16.79,7.09-6.52-11.46-18.81-19.2-32.93-19.2-20.92,0-37.88,16.96-37.88,37.88v73.96l10.71-68.19Z"/>
    <path class="cls-51" d="M51.42,48.26c3.25-20.67,22.64-34.79,43.3-31.54,6.32.99,12.01,3.51,16.79,7.09-6.52-11.46-18.81-19.2-32.93-19.2-20.92,0-37.88,16.96-37.88,37.88v73.96l10.71-68.19Z"/>
    <path class="cls-37" d="M51.33,48.2c3.25-20.67,22.64-34.79,43.3-31.54,6.32.99,12.01,3.51,16.79,7.09-6.52-11.46-18.81-19.2-32.93-19.2-20.92,0-37.88,16.96-37.88,37.88v73.96l10.71-68.19Z"/>
    <path class="cls-8" d="M51.24,48.14c3.25-20.67,22.64-34.79,43.3-31.54,6.32.99,12.01,3.51,16.79,7.09-6.52-11.46-18.81-19.2-32.93-19.2-20.92,0-37.88,16.96-37.88,37.88v73.96l10.71-68.19Z"/>
    <path class="cls-69" d="M51.16,48.08c3.25-20.67,22.64-34.79,43.3-31.54,6.32.99,12.01,3.51,16.79,7.09-6.52-11.46-18.81-19.2-32.93-19.2-20.92,0-37.88,16.96-37.88,37.88v73.96l10.71-68.19Z"/>
    <path class="cls-23" d="M51.07,48.02c3.25-20.67,22.64-34.79,43.3-31.54,6.32.99,12.01,3.51,16.79,7.09-6.52-11.46-18.81-19.2-32.93-19.2-20.92,0-37.88,16.96-37.88,37.88v73.96l10.71-68.19Z"/>
    <path class="cls-65" d="M50.98,47.96c3.25-20.67,22.64-34.79,43.3-31.54,6.32.99,12.01,3.51,16.79,7.09-6.52-11.46-18.81-19.2-32.93-19.2-20.92,0-37.88,16.96-37.88,37.88v73.96l10.71-68.19Z"/>
    <path class="cls-80" d="M50.89,47.9c3.25-20.67,22.64-34.79,43.3-31.54,6.32.99,12.01,3.51,16.79,7.09-6.52-11.46-18.81-19.2-32.93-19.2-20.92,0-37.88,16.96-37.88,37.88v73.96l10.71-68.19Z"/>
    <path class="cls-92" d="M50.8,47.84c3.25-20.67,22.64-34.79,43.3-31.54,6.32.99,12.01,3.51,16.79,7.09-6.52-11.46-18.81-19.2-32.93-19.2-20.92,0-37.88,16.96-37.88,37.88v73.96l10.71-68.19Z"/>
    <path class="cls-81" d="M50.71,47.78c3.25-20.67,22.64-34.79,43.3-31.54,6.32.99,12.01,3.51,16.79,7.09-6.52-11.46-18.81-19.2-32.93-19.2-20.92,0-37.88,16.96-37.88,37.88v73.96l10.71-68.19Z"/>
    <path class="cls-97" d="M50.62,47.72c3.25-20.67,22.64-34.79,43.3-31.54,6.32.99,12.01,3.51,16.79,7.09-6.52-11.46-18.81-19.2-32.93-19.2-20.92,0-37.88,16.96-37.88,37.88v73.96l10.71-68.19Z"/>
    <path class="cls-68" d="M50.53,47.66c3.25-20.67,22.64-34.79,43.3-31.54,6.32.99,12.01,3.51,16.79,7.09-6.52-11.46-18.81-19.2-32.93-19.2-20.92,0-37.88,16.96-37.88,37.88v73.96l10.71-68.19Z"/>
    <path class="cls-34" d="M50.44,47.6c3.25-20.67,22.64-34.79,43.3-31.54,6.32.99,12.01,3.51,16.79,7.09-6.52-11.46-18.81-19.2-32.93-19.2-20.92,0-37.88,16.96-37.88,37.88v73.96l10.71-68.19Z"/>
    <path class="cls-20" d="M50.35,47.54c3.25-20.67,22.64-34.79,43.3-31.54,6.32.99,12.01,3.51,16.79,7.09-6.52-11.46-18.81-19.2-32.93-19.2-20.92,0-37.88,16.96-37.88,37.88v73.96l10.71-68.19Z"/>
    <path class="cls-43" d="M50.26,47.48c3.25-20.67,22.64-34.79,43.3-31.54,6.32.99,12.01,3.51,16.79,7.09-6.52-11.46-18.81-19.2-32.93-19.2-20.92,0-37.88,16.96-37.88,37.88v73.96l10.71-68.19Z"/>
    <path class="cls-72" d="M50.17,47.42c3.25-20.67,22.64-34.79,43.3-31.54,6.32.99,12.01,3.51,16.79,7.09-6.52-11.46-18.81-19.2-32.93-19.2-20.92,0-37.88,16.96-37.88,37.88v73.96l10.71-68.19Z"/>
    <path class="cls-56" d="M50.09,47.36c3.25-20.67,22.64-34.79,43.3-31.54,6.32.99,12.01,3.51,16.79,7.09-6.52-11.46-18.81-19.2-32.93-19.2-20.92,0-37.88,16.96-37.88,37.88v73.96l10.71-68.19Z"/>
    <path class="cls-33" d="M50,47.31c3.25-20.67,22.64-34.79,43.3-31.54,6.32.99,12.01,3.51,16.79,7.09-6.52-11.46-18.81-19.2-32.93-19.2-20.92,0-37.88,16.96-37.88,37.88v73.96l10.71-68.19Z"/>
    <path class="cls-60" d="M49.91,47.25c3.25-20.67,22.64-34.79,43.3-31.54,6.32.99,12.01,3.51,16.79,7.09-6.52-11.46-18.81-19.2-32.93-19.2-20.92,0-37.88,16.96-37.88,37.88v73.96l10.71-68.19Z"/>
    <path class="cls-71" d="M49.82,47.19c3.25-20.67,22.64-34.79,43.3-31.54,6.32.99,12.01,3.51,16.79,7.09-6.52-11.46-18.81-19.2-32.93-19.2-20.92,0-37.88,16.96-37.88,37.88v73.96l10.71-68.19Z"/>
    <path class="cls-10" d="M49.73,47.13c3.25-20.67,22.64-34.79,43.3-31.54,6.32.99,12.01,3.51,16.79,7.09-6.52-11.46-18.81-19.2-32.93-19.2-20.92,0-37.88,16.96-37.88,37.88v73.96l10.71-68.19Z"/>
    <path class="cls-27" d="M49.64,47.07c3.25-20.67,22.64-34.79,43.3-31.54,6.32.99,12.01,3.51,16.79,7.09-6.52-11.46-18.81-19.2-32.93-19.2-20.92,0-37.88,16.96-37.88,37.88v73.96l10.71-68.19Z"/>
    <path class="cls-55" d="M49.55,47.01c3.25-20.67,22.64-34.79,43.3-31.54,6.32.99,12.01,3.51,16.79,7.09-6.52-11.46-18.81-19.2-32.93-19.2-20.92,0-37.88,16.96-37.88,37.88v73.96l10.71-68.19Z"/>
    <path class="cls-91" d="M49.46,46.95c3.25-20.67,22.64-34.79,43.3-31.54,6.32.99,12.01,3.51,16.79,7.09-6.52-11.46-18.81-19.2-32.93-19.2-20.92,0-37.88,16.96-37.88,37.88v73.96l10.71-68.19Z"/>
    <path class="cls-42" d="M49.37,46.89c3.25-20.67,22.64-34.79,43.3-31.54,6.32.99,12.01,3.51,16.79,7.09-6.52-11.46-18.81-19.2-32.93-19.2-20.92,0-37.88,16.96-37.88,37.88v73.96l10.71-68.19Z"/>
    <path class="cls-78" d="M49.28,46.83c3.25-20.67,22.64-34.79,43.3-31.54,6.32.99,12.01,3.51,16.79,7.09-6.52-11.46-18.81-19.2-32.93-19.2-20.92,0-37.88,16.96-37.88,37.88v73.96l10.71-68.19Z"/>
    <path class="cls-93" d="M49.19,46.77c3.25-20.67,22.64-34.79,43.3-31.54,6.32.99,12.01,3.51,16.79,7.09-6.52-11.46-18.81-19.2-32.93-19.2-20.92,0-37.88,16.96-37.88,37.88v73.96l10.71-68.19Z"/>
    <path class="cls-98" d="M49.1,46.71c3.25-20.67,22.64-34.79,43.3-31.54,6.32.99,12.01,3.51,16.79,7.09-6.52-11.46-18.81-19.2-32.93-19.2-20.92,0-37.88,16.96-37.88,37.88v73.96l10.71-68.19Z"/>
    <path class="cls-3" d="M49.01,46.65c3.25-20.67,22.64-34.79,43.3-31.54,6.32.99,12.01,3.51,16.79,7.09-6.52-11.46-18.81-19.2-32.93-19.2-20.92,0-37.88,16.96-37.88,37.88v73.96l10.71-68.19Z"/>
    <path class="cls-29" d="M48.93,46.59c3.25-20.67,22.64-34.79,43.3-31.54,6.32.99,12.01,3.51,16.79,7.09-6.52-11.46-18.81-19.2-32.93-19.2-20.92,0-37.88,16.96-37.88,37.88v73.96l10.71-68.19Z"/>
    <path class="cls-9" d="M48.84,46.53c3.25-20.67,22.64-34.79,43.3-31.54,6.32.99,12.01,3.51,16.79,7.09-6.52-11.46-18.81-19.2-32.93-19.2-20.92,0-37.88,16.96-37.88,37.88v73.96l10.71-68.19Z"/>
    <path class="cls-83" d="M48.75,46.47c3.25-20.67,22.64-34.79,43.3-31.54,6.32.99,12.01,3.51,16.79,7.09-6.52-11.46-18.81-19.2-32.93-19.2-20.92,0-37.88,16.96-37.88,37.88v73.96l10.71-68.19Z"/>
    <path class="cls-66" d="M48.66,46.41c3.25-20.67,22.64-34.79,43.3-31.54,6.32.99,12.01,3.51,16.79,7.09-6.52-11.46-18.81-19.2-32.93-19.2-20.92,0-37.88,16.96-37.88,37.88v73.96l10.71-68.19Z"/>
    <path class="cls-88" d="M48.57,46.35c3.25-20.67,22.64-34.79,43.3-31.54,6.32.99,12.01,3.51,16.79,7.09-6.52-11.46-18.81-19.2-32.93-19.2-20.92,0-37.88,16.96-37.88,37.88v73.96l10.71-68.19Z"/>
    <path class="cls-45" d="M48.48,46.29c3.25-20.67,22.64-34.79,43.3-31.54,6.32.99,12.01,3.51,16.79,7.09-6.52-11.46-18.81-19.2-32.93-19.2-20.92,0-37.88,16.96-37.88,37.88v73.96l10.71-68.19Z"/>
    <path class="cls-70" d="M48.39,46.24c3.25-20.67,22.64-34.79,43.3-31.54,6.32.99,12.01,3.51,16.79,7.09-6.52-11.46-18.81-19.2-32.93-19.2-20.92,0-37.88,16.96-37.88,37.88v73.96l10.71-68.19Z"/>
    <path class="cls-48" d="M48.3,46.18c3.25-20.67,22.64-34.79,43.3-31.54,6.32.99,12.01,3.51,16.79,7.09-6.52-11.46-18.81-19.2-32.93-19.2-20.92,0-37.88,16.96-37.88,37.88v73.96l10.71-68.19Z"/>
    <path class="cls-22" d="M48.21,46.12c3.25-20.67,22.64-34.79,43.3-31.54,6.32.99,12.01,3.51,16.79,7.09-6.52-11.46-18.81-19.2-32.93-19.2-20.92,0-37.88,16.96-37.88,37.88v73.96l10.71-68.19Z"/>
    <path class="cls-15" d="M48.12,46.06c3.25-20.67,22.64-34.79,43.3-31.54,6.32.99,12.01,3.51,16.79,7.09-6.52-11.46-18.81-19.2-32.93-19.2-20.92,0-37.88,16.96-37.88,37.88v73.96l10.71-68.19Z"/>
    <path class="cls-17" d="M48.03,46c3.25-20.67,22.64-34.79,43.3-31.54,6.32.99,12.01,3.51,16.79,7.09-6.52-11.46-18.81-19.2-32.93-19.2-20.92,0-37.88,16.96-37.88,37.88v73.96l10.71-68.19Z"/>
    <path class="cls-96" d="M47.94,45.94c3.25-20.67,22.64-34.79,43.3-31.54,6.32.99,12.01,3.51,16.79,7.09-6.52-11.46-18.81-19.2-32.93-19.2-20.92,0-37.88,16.96-37.88,37.88v73.96l10.71-68.19Z"/>
    <path class="cls-1" d="M47.86,45.88c3.25-20.67,22.64-34.79,43.3-31.54,6.32.99,12.01,3.51,16.79,7.09-6.52-11.46-18.81-19.2-32.93-19.2-20.92,0-37.88,16.96-37.88,37.88v73.96l10.71-68.19Z"/>
    <path class="cls-13" d="M47.77,45.82c3.25-20.67,22.64-34.79,43.3-31.54,6.32.99,12.01,3.51,16.79,7.09-6.52-11.46-18.81-19.2-32.93-19.2-20.92,0-37.88,16.96-37.88,37.88v73.96l10.71-68.19Z"/>
    <path class="cls-75" d="M47.68,45.76c3.25-20.67,22.64-34.79,43.3-31.54,6.32.99,12.01,3.51,16.79,7.09-6.52-11.46-18.81-19.2-32.93-19.2-20.92,0-37.88,16.96-37.88,37.88v73.96l10.71-68.19Z"/>
    <path class="cls-35" d="M47.59,45.7c3.25-20.67,22.64-34.79,43.3-31.54,6.32.99,12.01,3.51,16.79,7.09-6.52-11.46-18.81-19.2-32.93-19.2-20.92,0-37.88,16.96-37.88,37.88v73.96l10.71-68.19Z"/>
    <path class="cls-18" d="M47.5,45.64c3.25-20.67,22.64-34.79,43.3-31.54,6.32.99,12.01,3.51,16.79,7.09C101.08,9.73,88.79,1.99,74.67,1.99c-20.92,0-37.88,16.96-37.88,37.88v73.96l10.71-68.19Z"/>
    <path class="cls-79" d="M47.41,45.58c3.25-20.67,22.64-34.79,43.3-31.54,6.32.99,12.01,3.51,16.79,7.09C100.99,9.67,88.7,1.93,74.58,1.93c-20.92,0-37.88,16.96-37.88,37.88v73.96l10.71-68.19Z"/>
    <path class="cls-73" d="M47.32,45.52c3.25-20.67,22.64-34.79,43.3-31.54,6.32.99,12.01,3.51,16.79,7.09C100.9,9.61,88.61,1.87,74.49,1.87c-20.92,0-37.88,16.96-37.88,37.88v73.96l10.71-68.19Z"/>
    <path class="cls-52" d="M47.23,45.46c3.25-20.67,22.64-34.79,43.3-31.54,6.32.99,12.01,3.51,16.79,7.09C100.81,9.55,88.52,1.81,74.4,1.81c-20.92,0-37.88,16.96-37.88,37.88v73.96l10.71-68.19Z"/>
    <path class="cls-36" d="M47.14,45.4c3.25-20.67,22.64-34.79,43.3-31.54,6.32.99,12.01,3.51,16.79,7.09C100.73,9.49,88.43,1.75,74.31,1.75c-20.92,0-37.88,16.96-37.88,37.88v73.96l10.71-68.19Z"/>
    <path class="cls-67" d="M47.05,45.34c3.25-20.67,22.64-34.79,43.3-31.54,6.32.99,12.01,3.51,16.79,7.09C100.64,9.43,88.34,1.69,74.22,1.69c-20.92,0-37.88,16.96-37.88,37.88v73.96l10.71-68.19Z"/>
    <path class="cls-12" d="M46.96,45.28c3.25-20.67,22.64-34.79,43.3-31.54,6.32.99,12.01,3.51,16.79,7.09C100.55,9.37,88.25,1.63,74.13,1.63c-20.92,0-37.88,16.96-37.88,37.88v73.96l10.71-68.19Z"/>
    <path class="cls-76" d="M46.87,45.22c3.25-20.67,22.64-34.79,43.3-31.54,6.32.99,12.01,3.51,16.79,7.09C100.46,9.31,88.17,1.57,74.04,1.57c-20.92,0-37.88,16.96-37.88,37.88v73.96l10.71-68.19Z"/>
    <path class="cls-77" d="M46.79,45.17c3.25-20.67,22.64-34.79,43.3-31.54,6.32.99,12.01,3.51,16.79,7.09C100.37,9.25,88.08,1.51,73.95,1.51c-20.92,0-37.88,16.96-37.88,37.88v73.96l10.71-68.19Z"/>
    <path class="cls-32" d="M46.7,45.11c3.25-20.67,22.64-34.79,43.3-31.54,6.32.99,12.01,3.51,16.79,7.09C100.28,9.19,87.99,1.45,73.87,1.45c-20.92,0-37.88,16.96-37.88,37.88v73.96l10.71-68.19Z"/>
    <path class="cls-16" d="M46.61,45.05c3.25-20.67,22.64-34.79,43.3-31.54,6.32.99,12.01,3.51,16.79,7.09C100.19,9.13,87.9,1.39,73.78,1.39c-20.92,0-37.88,16.96-37.88,37.88v73.96l10.71-68.19Z"/>
    <path class="cls-46" d="M46.52,44.99c3.25-20.67,22.64-34.79,43.3-31.54,6.32.99,12.01,3.51,16.79,7.09C100.1,9.08,87.81,1.33,73.69,1.33c-20.92,0-37.88,16.96-37.88,37.88v73.96l10.71-68.19Z"/>
    <path class="cls-40" d="M46.43,44.93c3.25-20.67,22.64-34.79,43.3-31.54,6.32.99,12.01,3.51,16.79,7.09C100.01,9.02,87.72,1.27,73.6,1.27c-20.92,0-37.88,16.96-37.88,37.88v73.96l10.71-68.19Z"/>
    <path class="cls-26" d="M46.34,44.87c3.25-20.67,22.64-34.79,43.3-31.54,6.32.99,12.01,3.51,16.79,7.09C99.92,8.96,87.63,1.21,73.51,1.21c-20.92,0-37.88,16.96-37.88,37.88v73.96l10.71-68.19Z"/>
    <path class="cls-7" d="M46.25,44.81c3.25-20.67,22.64-34.79,43.3-31.54,6.32.99,12.01,3.51,16.79,7.09C99.83,8.9,87.54,1.15,73.42,1.15c-20.92,0-37.88,16.96-37.88,37.88v73.96l10.71-68.19Z"/>
    <path class="cls-54" d="M46.16,44.75c3.25-20.67,22.64-34.79,43.3-31.54,6.32.99,12.01,3.51,16.79,7.09C99.74,8.84,87.45,1.1,73.33,1.1c-20.92,0-37.88,16.96-37.88,37.88v73.96l10.71-68.19Z"/>
    <path class="cls-84" d="M46.07,44.69c3.25-20.67,22.64-34.79,43.3-31.54,6.32.99,12.01,3.51,16.79,7.09C99.66,8.78,87.36,1.04,73.24,1.04c-20.92,0-37.88,16.96-37.88,37.88v73.96l10.71-68.19Z"/>
    <path class="cls-103" d="M45.98,44.63c3.25-20.67,22.64-34.79,43.3-31.54,6.32.99,12.01,3.51,16.79,7.09C99.57,8.72,87.27.98,73.15.98c-20.92,0-37.88,16.96-37.88,37.88v73.96l10.71-68.19Z"/>
    <path class="cls-39" d="M45.89,44.57c3.25-20.67,22.64-34.79,43.3-31.54,6.32.99,12.01,3.51,16.79,7.09C99.48,8.66,87.18.92,73.06.92c-20.92,0-37.88,16.96-37.88,37.88v73.96l10.71-68.19Z"/>
    <path class="cls-38" d="M45.8,44.51c3.25-20.67,22.64-34.79,43.3-31.54,6.32.99,12.01,3.51,16.79,7.09C99.39,8.6,87.09.86,72.97.86c-20.92,0-37.88,16.96-37.88,37.88v73.96l10.71-68.19Z"/>
  </g>
  <g>
    <path class="cls-41" d="M104.2,105.58c-3.25,20.67-22.64,34.79-43.3,31.54-6.32-.99-12.01-3.51-16.79-7.09,6.52,11.46,18.81,19.2,32.93,19.2,20.92,0,37.88-16.96,37.88-37.88V37.39l-10.71,68.19Z"/>
    <path class="cls-47" d="M104.11,105.52c-3.25,20.67-22.64,34.79-43.3,31.54-6.32-.99-12.01-3.51-16.79-7.09,6.52,11.46,18.81,19.2,32.93,19.2,20.92,0,37.88-16.96,37.88-37.88V37.33l-10.71,68.19Z"/>
    <path class="cls-100" d="M104.02,105.46c-3.25,20.67-22.64,34.79-43.3,31.54-6.32-.99-12.01-3.51-16.79-7.09,6.52,11.46,18.81,19.2,32.93,19.2,20.92,0,37.88-16.96,37.88-37.88V37.27l-10.71,68.19Z"/>
    <path class="cls-19" d="M103.93,105.4c-3.25,20.67-22.64,34.79-43.3,31.54-6.32-.99-12.01-3.51-16.79-7.09,6.52,11.46,18.81,19.2,32.93,19.2,20.92,0,37.88-16.96,37.88-37.88V37.21l-10.71,68.19Z"/>
    <path class="cls-25" d="M103.84,105.34c-3.25,20.67-22.64,34.79-43.3,31.54-6.32-.99-12.01-3.51-16.79-7.09,6.52,11.46,18.81,19.2,32.93,19.2,20.92,0,37.88-16.96,37.88-37.88V37.15l-10.71,68.19Z"/>
    <path class="cls-94" d="M103.75,105.28c-3.25,20.67-22.64,34.79-43.3,31.54-6.32-.99-12.01-3.51-16.79-7.09,6.52,11.46,18.81,19.2,32.93,19.2,20.92,0,37.88-16.96,37.88-37.88V37.09l-10.71,68.19Z"/>
    <path class="cls-102" d="M103.66,105.22c-3.25,20.67-22.64,34.79-43.3,31.54-6.32-.99-12.01-3.51-16.79-7.09,6.52,11.46,18.81,19.2,32.93,19.2,20.92,0,37.88-16.96,37.88-37.88V37.03l-10.71,68.19Z"/>
    <path class="cls-14" d="M103.57,105.16c-3.25,20.67-22.64,34.79-43.3,31.54-6.32-.99-12.01-3.51-16.79-7.09,6.52,11.46,18.81,19.2,32.93,19.2,20.92,0,37.88-16.96,37.88-37.88V36.97l-10.71,68.19Z"/>
    <path class="cls-57" d="M103.48,105.1c-3.25,20.67-22.64,34.79-43.3,31.54-6.32-.99-12.01-3.51-16.79-7.09,6.52,11.46,18.81,19.2,32.93,19.2,20.92,0,37.88-16.96,37.88-37.88V36.91l-10.71,68.19Z"/>
    <path class="cls-89" d="M103.39,105.04c-3.25,20.67-22.64,34.79-43.3,31.54-6.32-.99-12.01-3.51-16.79-7.09,6.52,11.46,18.81,19.2,32.93,19.2,20.92,0,37.88-16.96,37.88-37.88V36.85l-10.71,68.19Z"/>
    <path class="cls-24" d="M103.3,104.99c-3.25,20.67-22.64,34.79-43.3,31.54-6.32-.99-12.01-3.51-16.79-7.09,6.52,11.46,18.81,19.2,32.93,19.2,20.92,0,37.88-16.96,37.88-37.88V36.79l-10.71,68.19Z"/>
    <path class="cls-87" d="M103.21,104.93c-3.25,20.67-22.64,34.79-43.3,31.54-6.32-.99-12.01-3.51-16.79-7.09,6.52,11.46,18.81,19.2,32.93,19.2,20.92,0,37.88-16.96,37.88-37.88V36.73l-10.71,68.19Z"/>
    <path class="cls-28" d="M103.13,104.87c-3.25,20.67-22.64,34.79-43.3,31.54-6.32-.99-12.01-3.51-16.79-7.09,6.52,11.46,18.81,19.2,32.93,19.2,20.92,0,37.88-16.96,37.88-37.88V36.67l-10.71,68.19Z"/>
    <path class="cls-82" d="M103.04,104.81c-3.25,20.67-22.64,34.79-43.3,31.54-6.32-.99-12.01-3.51-16.79-7.09,6.52,11.46,18.81,19.2,32.93,19.2,20.92,0,37.88-16.96,37.88-37.88V36.62l-10.71,68.19Z"/>
    <path class="cls-2" d="M102.95,104.75c-3.25,20.67-22.64,34.79-43.3,31.54-6.32-.99-12.01-3.51-16.79-7.09,6.52,11.46,18.81,19.2,32.93,19.2,20.92,0,37.88-16.96,37.88-37.88V36.56l-10.71,68.19Z"/>
    <path class="cls-21" d="M102.86,104.69c-3.25,20.67-22.64,34.79-43.3,31.54-6.32-.99-12.01-3.51-16.79-7.09,6.52,11.46,18.81,19.2,32.93,19.2,20.92,0,37.88-16.96,37.88-37.88V36.5l-10.71,68.19Z"/>
    <path class="cls-74" d="M102.77,104.63c-3.25,20.67-22.64,34.79-43.3,31.54-6.32-.99-12.01-3.51-16.79-7.09,6.52,11.46,18.81,19.2,32.93,19.2,20.92,0,37.88-16.96,37.88-37.88V36.44l-10.71,68.19Z"/>
    <path class="cls-50" d="M102.68,104.57c-3.25,20.67-22.64,34.79-43.3,31.54-6.32-.99-12.01-3.51-16.79-7.09,6.52,11.46,18.81,19.2,32.93,19.2,20.92,0,37.88-16.96,37.88-37.88V36.38l-10.71,68.19Z"/>
    <path class="cls-53" d="M102.59,104.51c-3.25,20.67-22.64,34.79-43.3,31.54-6.32-.99-12.01-3.51-16.79-7.09,6.52,11.46,18.81,19.2,32.93,19.2,20.92,0,37.88-16.96,37.88-37.88V36.32l-10.71,68.19Z"/>
    <path class="cls-5" d="M102.5,104.45c-3.25,20.67-22.64,34.79-43.3,31.54-6.32-.99-12.01-3.51-16.79-7.09,6.52,11.46,18.81,19.2,32.93,19.2,20.92,0,37.88-16.96,37.88-37.88V36.26l-10.71,68.19Z"/>
    <path class="cls-30" d="M102.41,104.39c-3.25,20.67-22.64,34.79-43.3,31.54-6.32-.99-12.01-3.51-16.79-7.09,6.52,11.46,18.81,19.2,32.93,19.2,20.92,0,37.88-16.96,37.88-37.88V36.2l-10.71,68.19Z"/>
    <path class="cls-44" d="M102.32,104.33c-3.25,20.67-22.64,34.79-43.3,31.54-6.32-.99-12.01-3.51-16.79-7.09,6.52,11.46,18.81,19.2,32.93,19.2,20.92,0,37.88-16.96,37.88-37.88V36.14l-10.71,68.19Z"/>
    <path class="cls-95" d="M102.23,104.27c-3.25,20.67-22.64,34.79-43.3,31.54-6.32-.99-12.01-3.51-16.79-7.09,6.52,11.46,18.81,19.2,32.93,19.2,20.92,0,37.88-16.96,37.88-37.88V36.08l-10.71,68.19Z"/>
    <path class="cls-64" d="M102.14,104.21c-3.25,20.67-22.64,34.79-43.3,31.54-6.32-.99-12.01-3.51-16.79-7.09,6.52,11.46,18.81,19.2,32.93,19.2,20.92,0,37.88-16.96,37.88-37.88V36.02l-10.71,68.19Z"/>
    <path class="cls-61" d="M102.06,104.15c-3.25,20.67-22.64,34.79-43.3,31.54-6.32-.99-12.01-3.51-16.79-7.09,6.52,11.46,18.81,19.2,32.93,19.2,20.92,0,37.88-16.96,37.88-37.88V35.96l-10.71,68.19Z"/>
    <path class="cls-6" d="M101.97,104.09c-3.25,20.67-22.64,34.79-43.3,31.54-6.32-.99-12.01-3.51-16.79-7.09,6.52,11.46,18.81,19.2,32.93,19.2,20.92,0,37.88-16.96,37.88-37.88V35.9l-10.71,68.19Z"/>
    <path class="cls-85" d="M101.88,104.03c-3.25,20.67-22.64,34.79-43.3,31.54-6.32-.99-12.01-3.51-16.79-7.09,6.52,11.46,18.81,19.2,32.93,19.2,20.92,0,37.88-16.96,37.88-37.88V35.84l-10.71,68.19Z"/>
    <path class="cls-58" d="M101.79,103.97c-3.25,20.67-22.64,34.79-43.3,31.54-6.32-.99-12.01-3.51-16.79-7.09,6.52,11.46,18.81,19.2,32.93,19.2,20.92,0,37.88-16.96,37.88-37.88V35.78l-10.71,68.19Z"/>
    <path class="cls-90" d="M101.7,103.92c-3.25,20.67-22.64,34.79-43.3,31.54-6.32-.99-12.01-3.51-16.79-7.09,6.52,11.46,18.81,19.2,32.93,19.2,20.92,0,37.88-16.96,37.88-37.88V35.72l-10.71,68.19Z"/>
    <path class="cls-11" d="M101.61,103.86c-3.25,20.67-22.64,34.79-43.3,31.54-6.32-.99-12.01-3.51-16.79-7.09,6.52,11.46,18.81,19.2,32.93,19.2,20.92,0,37.88-16.96,37.88-37.88V35.66l-10.71,68.19Z"/>
    <path class="cls-4" d="M101.52,103.8c-3.25,20.67-22.64,34.79-43.3,31.54-6.32-.99-12.01-3.51-16.79-7.09,6.52,11.46,18.81,19.2,32.93,19.2,20.92,0,37.88-16.96,37.88-37.88V35.6l-10.71,68.19Z"/>
    <path class="cls-86" d="M101.43,103.74c-3.25,20.67-22.64,34.79-43.3,31.54-6.32-.99-12.01-3.51-16.79-7.09,6.52,11.46,18.81,19.2,32.93,19.2,20.92,0,37.88-16.96,37.88-37.88V35.55l-10.71,68.19Z"/>
    <path class="cls-101" d="M101.34,103.68c-3.25,20.67-22.64,34.79-43.3,31.54-6.32-.99-12.01-3.51-16.79-7.09,6.52,11.46,18.81,19.2,32.93,19.2,20.92,0,37.88-16.96,37.88-37.88V35.49l-10.71,68.19Z"/>
    <path class="cls-31" d="M101.25,103.62c-3.25,20.67-22.64,34.79-43.3,31.54-6.32-.99-12.01-3.51-16.79-7.09,6.52,11.46,18.81,19.2,32.93,19.2,20.92,0,37.88-16.96,37.88-37.88V35.43l-10.71,68.19Z"/>
    <path class="cls-59" d="M101.16,103.56c-3.25,20.67-22.64,34.79-43.3,31.54-6.32-.99-12.01-3.51-16.79-7.09,6.52,11.46,18.81,19.2,32.93,19.2,20.92,0,37.88-16.96,37.88-37.88V35.37l-10.71,68.19Z"/>
    <path class="cls-49" d="M101.07,103.5c-3.25,20.67-22.64,34.79-43.3,31.54-6.32-.99-12.01-3.51-16.79-7.09,6.52,11.46,18.81,19.2,32.93,19.2,20.92,0,37.88-16.96,37.88-37.88V35.31l-10.71,68.19Z"/>
    <path class="cls-99" d="M100.99,103.44c-3.25,20.67-22.64,34.79-43.3,31.54-6.32-.99-12.01-3.51-16.79-7.09,6.52,11.46,18.81,19.2,32.93,19.2,20.92,0,37.88-16.96,37.88-37.88V35.25l-10.71,68.19Z"/>
    <path class="cls-62" d="M100.9,103.38c-3.25,20.67-22.64,34.79-43.3,31.54-6.32-.99-12.01-3.51-16.79-7.09,6.52,11.46,18.81,19.2,32.93,19.2,20.92,0,37.88-16.96,37.88-37.88V35.19l-10.71,68.19Z"/>
    <path class="cls-51" d="M100.81,103.32c-3.25,20.67-22.64,34.79-43.3,31.54-6.32-.99-12.01-3.51-16.79-7.09,6.52,11.46,18.81,19.2,32.93,19.2,20.92,0,37.88-16.96,37.88-37.88V35.13l-10.71,68.19Z"/>
    <path class="cls-37" d="M100.72,103.26c-3.25,20.67-22.64,34.79-43.3,31.54-6.32-.99-12.01-3.51-16.79-7.09,6.52,11.46,18.81,19.2,32.93,19.2,20.92,0,37.88-16.96,37.88-37.88V35.07l-10.71,68.19Z"/>
    <path class="cls-8" d="M100.63,103.2c-3.25,20.67-22.64,34.79-43.3,31.54-6.32-.99-12.01-3.51-16.79-7.09,6.52,11.46,18.81,19.2,32.93,19.2,20.92,0,37.88-16.96,37.88-37.88V35.01l-10.71,68.19Z"/>
    <path class="cls-69" d="M100.54,103.14c-3.25,20.67-22.64,34.79-43.3,31.54-6.32-.99-12.01-3.51-16.79-7.09,6.52,11.46,18.81,19.2,32.93,19.2,20.92,0,37.88-16.96,37.88-37.88V34.95l-10.71,68.19Z"/>
    <path class="cls-23" d="M100.45,103.08c-3.25,20.67-22.64,34.79-43.3,31.54-6.32-.99-12.01-3.51-16.79-7.09,6.52,11.46,18.81,19.2,32.93,19.2,20.92,0,37.88-16.96,37.88-37.88V34.89l-10.71,68.19Z"/>
    <path class="cls-65" d="M100.36,103.02c-3.25,20.67-22.64,34.79-43.3,31.54-6.32-.99-12.01-3.51-16.79-7.09,6.52,11.46,18.81,19.2,32.93,19.2,20.92,0,37.88-16.96,37.88-37.88V34.83l-10.71,68.19Z"/>
    <path class="cls-80" d="M100.27,102.96c-3.25,20.67-22.64,34.79-43.3,31.54-6.32-.99-12.01-3.51-16.79-7.09,6.52,11.46,18.81,19.2,32.93,19.2,20.92,0,37.88-16.96,37.88-37.88V34.77l-10.71,68.19Z"/>
    <path class="cls-92" d="M100.18,102.9c-3.25,20.67-22.64,34.79-43.3,31.54-6.32-.99-12.01-3.51-16.79-7.09,6.52,11.46,18.81,19.2,32.93,19.2,20.92,0,37.88-16.96,37.88-37.88V34.71l-10.71,68.19Z"/>
    <path class="cls-81" d="M100.09,102.85c-3.25,20.67-22.64,34.79-43.3,31.54-6.32-.99-12.01-3.51-16.79-7.09,6.52,11.46,18.81,19.2,32.93,19.2,20.92,0,37.88-16.96,37.88-37.88V34.65l-10.71,68.19Z"/>
    <path class="cls-97" d="M100,102.79c-3.25,20.67-22.64,34.79-43.3,31.54-6.32-.99-12.01-3.51-16.79-7.09,6.52,11.46,18.81,19.2,32.93,19.2,20.92,0,37.88-16.96,37.88-37.88V34.59l-10.71,68.19Z"/>
    <path class="cls-68" d="M99.91,102.73c-3.25,20.67-22.64,34.79-43.3,31.54-6.32-.99-12.01-3.51-16.79-7.09,6.52,11.46,18.81,19.2,32.93,19.2,20.92,0,37.88-16.96,37.88-37.88V34.53l-10.71,68.19Z"/>
    <path class="cls-34" d="M99.83,102.67c-3.25,20.67-22.64,34.79-43.3,31.54-6.32-.99-12.01-3.51-16.79-7.09,6.52,11.46,18.81,19.2,32.93,19.2,20.92,0,37.88-16.96,37.88-37.88V34.48l-10.71,68.19Z"/>
    <path class="cls-20" d="M99.74,102.61c-3.25,20.67-22.64,34.79-43.3,31.54-6.32-.99-12.01-3.51-16.79-7.09,6.52,11.46,18.81,19.2,32.93,19.2,20.92,0,37.88-16.96,37.88-37.88V34.42l-10.71,68.19Z"/>
    <path class="cls-43" d="M99.65,102.55c-3.25,20.67-22.64,34.79-43.3,31.54-6.32-.99-12.01-3.51-16.79-7.09,6.52,11.46,18.81,19.2,32.93,19.2,20.92,0,37.88-16.96,37.88-37.88V34.36l-10.71,68.19Z"/>
    <path class="cls-72" d="M99.56,102.49c-3.25,20.67-22.64,34.79-43.3,31.54-6.32-.99-12.01-3.51-16.79-7.09,6.52,11.46,18.81,19.2,32.93,19.2,20.92,0,37.88-16.96,37.88-37.88V34.3l-10.71,68.19Z"/>
    <path class="cls-56" d="M99.47,102.43c-3.25,20.67-22.64,34.79-43.3,31.54-6.32-.99-12.01-3.51-16.79-7.09,6.52,11.46,18.81,19.2,32.93,19.2,20.92,0,37.88-16.96,37.88-37.88V34.24l-10.71,68.19Z"/>
    <path class="cls-33" d="M99.38,102.37c-3.25,20.67-22.64,34.79-43.3,31.54-6.32-.99-12.01-3.51-16.79-7.09,6.52,11.46,18.81,19.2,32.93,19.2,20.92,0,37.88-16.96,37.88-37.88V34.18l-10.71,68.19Z"/>
    <path class="cls-60" d="M99.29,102.31c-3.25,20.67-22.64,34.79-43.3,31.54-6.32-.99-12.01-3.51-16.79-7.09,6.52,11.46,18.81,19.2,32.93,19.2,20.92,0,37.88-16.96,37.88-37.88V34.12l-10.71,68.19Z"/>
    <path class="cls-71" d="M99.2,102.25c-3.25,20.67-22.64,34.79-43.3,31.54-6.32-.99-12.01-3.51-16.79-7.09,6.52,11.46,18.81,19.2,32.93,19.2,20.92,0,37.88-16.96,37.88-37.88V34.06l-10.71,68.19Z"/>
    <path class="cls-10" d="M99.11,102.19c-3.25,20.67-22.64,34.79-43.3,31.54-6.32-.99-12.01-3.51-16.79-7.09,6.52,11.46,18.81,19.2,32.93,19.2,20.92,0,37.88-16.96,37.88-37.88V34l-10.71,68.19Z"/>
    <path class="cls-27" d="M99.02,102.13c-3.25,20.67-22.64,34.79-43.3,31.54-6.32-.99-12.01-3.51-16.79-7.09,6.52,11.46,18.81,19.2,32.93,19.2,20.92,0,37.88-16.96,37.88-37.88V33.94l-10.71,68.19Z"/>
    <path class="cls-55" d="M98.93,102.07c-3.25,20.67-22.64,34.79-43.3,31.54-6.32-.99-12.01-3.51-16.79-7.09,6.52,11.46,18.81,19.2,32.93,19.2,20.92,0,37.88-16.96,37.88-37.88V33.88l-10.71,68.19Z"/>
    <path class="cls-91" d="M98.84,102.01c-3.25,20.67-22.64,34.79-43.3,31.54-6.32-.99-12.01-3.51-16.79-7.09,6.52,11.46,18.81,19.2,32.93,19.2,20.92,0,37.88-16.96,37.88-37.88V33.82l-10.71,68.19Z"/>
    <path class="cls-42" d="M98.76,101.95c-3.25,20.67-22.64,34.79-43.3,31.54-6.32-.99-12.01-3.51-16.79-7.09,6.52,11.46,18.81,19.2,32.93,19.2,20.92,0,37.88-16.96,37.88-37.88V33.76l-10.71,68.19Z"/>
    <path class="cls-78" d="M98.67,101.89c-3.25,20.67-22.64,34.79-43.3,31.54-6.32-.99-12.01-3.51-16.79-7.09,6.52,11.46,18.81,19.2,32.93,19.2,20.92,0,37.88-16.96,37.88-37.88V33.7l-10.71,68.19Z"/>
    <path class="cls-93" d="M98.58,101.83c-3.25,20.67-22.64,34.79-43.3,31.54-6.32-.99-12.01-3.51-16.79-7.09,6.52,11.46,18.81,19.2,32.93,19.2,20.92,0,37.88-16.96,37.88-37.88V33.64l-10.71,68.19Z"/>
    <path class="cls-98" d="M98.49,101.78c-3.25,20.67-22.64,34.79-43.3,31.54-6.32-.99-12.01-3.51-16.79-7.09,6.52,11.46,18.81,19.2,32.93,19.2,20.92,0,37.88-16.96,37.88-37.88V33.58l-10.71,68.19Z"/>
    <path class="cls-3" d="M98.4,101.72c-3.25,20.67-22.64,34.79-43.3,31.54-6.32-.99-12.01-3.51-16.79-7.09,6.52,11.46,18.81,19.2,32.93,19.2,20.92,0,37.88-16.96,37.88-37.88V33.52l-10.71,68.19Z"/>
    <path class="cls-29" d="M98.31,101.66c-3.25,20.67-22.64,34.79-43.3,31.54-6.32-.99-12.01-3.51-16.79-7.09,6.52,11.46,18.81,19.2,32.93,19.2,20.92,0,37.88-16.96,37.88-37.88V33.46l-10.71,68.19Z"/>
    <path class="cls-9" d="M98.22,101.6c-3.25,20.67-22.64,34.79-43.3,31.54-6.32-.99-12.01-3.51-16.79-7.09,6.52,11.46,18.81,19.2,32.93,19.2,20.92,0,37.88-16.96,37.88-37.88V33.41l-10.71,68.19Z"/>
    <path class="cls-83" d="M98.13,101.54c-3.25,20.67-22.64,34.79-43.3,31.54-6.32-.99-12.01-3.51-16.79-7.09,6.52,11.46,18.81,19.2,32.93,19.2,20.92,0,37.88-16.96,37.88-37.88V33.35l-10.71,68.19Z"/>
    <path class="cls-66" d="M98.04,101.48c-3.25,20.67-22.64,34.79-43.3,31.54-6.32-.99-12.01-3.51-16.79-7.09,6.52,11.46,18.81,19.2,32.93,19.2,20.92,0,37.88-16.96,37.88-37.88V33.29l-10.71,68.19Z"/>
    <path class="cls-88" d="M97.95,101.42c-3.25,20.67-22.64,34.79-43.3,31.54-6.32-.99-12.01-3.51-16.79-7.09,6.52,11.46,18.81,19.2,32.93,19.2,20.92,0,37.88-16.96,37.88-37.88V33.23l-10.71,68.19Z"/>
    <path class="cls-45" d="M97.86,101.36c-3.25,20.67-22.64,34.79-43.3,31.54-6.32-.99-12.01-3.51-16.79-7.09,6.52,11.46,18.81,19.2,32.93,19.2,20.92,0,37.88-16.96,37.88-37.88V33.17l-10.71,68.19Z"/>
    <path class="cls-70" d="M97.77,101.3c-3.25,20.67-22.64,34.79-43.3,31.54-6.32-.99-12.01-3.51-16.79-7.09,6.52,11.46,18.81,19.2,32.93,19.2,20.92,0,37.88-16.96,37.88-37.88V33.11l-10.71,68.19Z"/>
    <path class="cls-48" d="M97.69,101.24c-3.25,20.67-22.64,34.79-43.3,31.54-6.32-.99-12.01-3.51-16.79-7.09,6.52,11.46,18.81,19.2,32.93,19.2,20.92,0,37.88-16.96,37.88-37.88V33.05l-10.71,68.19Z"/>
    <path class="cls-22" d="M97.6,101.18c-3.25,20.67-22.64,34.79-43.3,31.54-6.32-.99-12.01-3.51-16.79-7.09,6.52,11.46,18.81,19.2,32.93,19.2,20.92,0,37.88-16.96,37.88-37.88V32.99l-10.71,68.19Z"/>
    <path class="cls-15" d="M97.51,101.12c-3.25,20.67-22.64,34.79-43.3,31.54-6.32-.99-12.01-3.51-16.79-7.09,6.52,11.46,18.81,19.2,32.93,19.2,20.92,0,37.88-16.96,37.88-37.88V32.93l-10.71,68.19Z"/>
    <path class="cls-17" d="M97.42,101.06c-3.25,20.67-22.64,34.79-43.3,31.54-6.32-.99-12.01-3.51-16.79-7.09,6.52,11.46,18.81,19.2,32.93,19.2,20.92,0,37.88-16.96,37.88-37.88V32.87l-10.71,68.19Z"/>
    <path class="cls-96" d="M97.33,101c-3.25,20.67-22.64,34.79-43.3,31.54-6.32-.99-12.01-3.51-16.79-7.09,6.52,11.46,18.81,19.2,32.93,19.2,20.92,0,37.88-16.96,37.88-37.88V32.81l-10.71,68.19Z"/>
    <path class="cls-1" d="M97.24,100.94c-3.25,20.67-22.64,34.79-43.3,31.54-6.32-.99-12.01-3.51-16.79-7.09,6.52,11.46,18.81,19.2,32.93,19.2,20.92,0,37.88-16.96,37.88-37.88V32.75l-10.71,68.19Z"/>
    <path class="cls-13" d="M97.15,100.88c-3.25,20.67-22.64,34.79-43.3,31.54-6.32-.99-12.01-3.51-16.79-7.09,6.52,11.46,18.81,19.2,32.93,19.2,20.92,0,37.88-16.96,37.88-37.88V32.69l-10.71,68.19Z"/>
    <path class="cls-75" d="M97.06,100.82c-3.25,20.67-22.64,34.79-43.3,31.54-6.32-.99-12.01-3.51-16.79-7.09,6.52,11.46,18.81,19.2,32.93,19.2,20.92,0,37.88-16.96,37.88-37.88V32.63l-10.71,68.19Z"/>
    <path class="cls-35" d="M96.97,100.76c-3.25,20.67-22.64,34.79-43.3,31.54-6.32-.99-12.01-3.51-16.79-7.09,6.52,11.46,18.81,19.2,32.93,19.2,20.92,0,37.88-16.96,37.88-37.88V32.57l-10.71,68.19Z"/>
    <path class="cls-18" d="M96.88,100.71c-3.25,20.67-22.64,34.79-43.3,31.54-6.32-.99-12.01-3.51-16.79-7.09,6.52,11.46,18.81,19.2,32.93,19.2,20.92,0,37.88-16.96,37.88-37.88V32.51l-10.71,68.19Z"/>
    <path class="cls-79" d="M96.79,100.65c-3.25,20.67-22.64,34.79-43.3,31.54-6.32-.99-12.01-3.51-16.79-7.09,6.52,11.46,18.81,19.2,32.93,19.2,20.92,0,37.88-16.96,37.88-37.88V32.45l-10.71,68.19Z"/>
    <path class="cls-73" d="M96.7,100.59c-3.25,20.67-22.64,34.79-43.3,31.54-6.32-.99-12.01-3.51-16.79-7.09,6.52,11.46,18.81,19.2,32.93,19.2,20.92,0,37.88-16.96,37.88-37.88V32.39l-10.71,68.19Z"/>
    <path class="cls-52" d="M96.62,100.53c-3.25,20.67-22.64,34.79-43.3,31.54-6.32-.99-12.01-3.51-16.79-7.09,6.52,11.46,18.81,19.2,32.93,19.2,20.92,0,37.88-16.96,37.88-37.88V32.34l-10.71,68.19Z"/>
    <path class="cls-36" d="M96.53,100.47c-3.25,20.67-22.64,34.79-43.3,31.54-6.32-.99-12.01-3.51-16.79-7.09,6.52,11.46,18.81,19.2,32.93,19.2,20.92,0,37.88-16.96,37.88-37.88V32.28l-10.71,68.19Z"/>
    <path class="cls-67" d="M96.44,100.41c-3.25,20.67-22.64,34.79-43.3,31.54-6.32-.99-12.01-3.51-16.79-7.09,6.52,11.46,18.81,19.2,32.93,19.2,20.92,0,37.88-16.96,37.88-37.88V32.22l-10.71,68.19Z"/>
    <path class="cls-12" d="M96.35,100.35c-3.25,20.67-22.64,34.79-43.3,31.54-6.32-.99-12.01-3.51-16.79-7.09,6.52,11.46,18.81,19.2,32.93,19.2,20.92,0,37.88-16.96,37.88-37.88V32.16l-10.71,68.19Z"/>
    <path class="cls-76" d="M96.26,100.29c-3.25,20.67-22.64,34.79-43.3,31.54-6.32-.99-12.01-3.51-16.79-7.09,6.52,11.46,18.81,19.2,32.93,19.2,20.92,0,37.88-16.96,37.88-37.88V32.1l-10.71,68.19Z"/>
    <path class="cls-77" d="M96.17,100.23c-3.25,20.67-22.64,34.79-43.3,31.54-6.32-.99-12.01-3.51-16.79-7.09,6.52,11.46,18.81,19.2,32.93,19.2,20.92,0,37.88-16.96,37.88-37.88V32.04l-10.71,68.19Z"/>
    <path class="cls-32" d="M96.08,100.17c-3.25,20.67-22.64,34.79-43.3,31.54-6.32-.99-12.01-3.51-16.79-7.09,6.52,11.46,18.81,19.2,32.93,19.2,20.92,0,37.88-16.96,37.88-37.88V31.98l-10.71,68.19Z"/>
    <path class="cls-16" d="M95.99,100.11c-3.25,20.67-22.64,34.79-43.3,31.54-6.32-.99-12.01-3.51-16.79-7.09,6.52,11.46,18.81,19.2,32.93,19.2,20.92,0,37.88-16.96,37.88-37.88V31.92l-10.71,68.19Z"/>
    <path class="cls-46" d="M95.9,100.05c-3.25,20.67-22.64,34.79-43.3,31.54-6.32-.99-12.01-3.51-16.79-7.09,6.52,11.46,18.81,19.2,32.93,19.2,20.92,0,37.88-16.96,37.88-37.88V31.86l-10.71,68.19Z"/>
    <path class="cls-40" d="M95.81,99.99c-3.25,20.67-22.64,34.79-43.3,31.54-6.32-.99-12.01-3.51-16.79-7.09,6.52,11.46,18.81,19.2,32.93,19.2,20.92,0,37.88-16.96,37.88-37.88V31.8l-10.71,68.19Z"/>
    <path class="cls-26" d="M95.72,99.93c-3.25,20.67-22.64,34.79-43.3,31.54-6.32-.99-12.01-3.51-16.79-7.09,6.52,11.46,18.81,19.2,32.93,19.2,20.92,0,37.88-16.96,37.88-37.88V31.74l-10.71,68.19Z"/>
    <path class="cls-7" d="M95.63,99.87c-3.25,20.67-22.64,34.79-43.3,31.54-6.32-.99-12.01-3.51-16.79-7.09,6.52,11.46,18.81,19.2,32.93,19.2,20.92,0,37.88-16.96,37.88-37.88V31.68l-10.71,68.19Z"/>
    <path class="cls-54" d="M95.55,99.81c-3.25,20.67-22.64,34.79-43.3,31.54-6.32-.99-12.01-3.51-16.79-7.09,6.52,11.46,18.81,19.2,32.93,19.2,20.92,0,37.88-16.96,37.88-37.88V31.62l-10.71,68.19Z"/>
    <path class="cls-84" d="M95.46,99.75c-3.25,20.67-22.64,34.79-43.3,31.54-6.32-.99-12.01-3.51-16.79-7.09,6.52,11.46,18.81,19.2,32.93,19.2,20.92,0,37.88-16.96,37.88-37.88V31.56l-10.71,68.19Z"/>
    <path class="cls-103" d="M95.37,99.69c-3.25,20.67-22.64,34.79-43.3,31.54-6.32-.99-12.01-3.51-16.79-7.09,6.52,11.46,18.81,19.2,32.93,19.2,20.92,0,37.88-16.96,37.88-37.88V31.5l-10.71,68.19Z"/>
    <path class="cls-39" d="M95.28,99.64c-3.25,20.67-22.64,34.79-43.3,31.54-6.32-.99-12.01-3.51-16.79-7.09,6.52,11.46,18.81,19.2,32.93,19.2,20.92,0,37.88-16.96,37.88-37.88V31.44l-10.71,68.19Z"/>
    <path class="cls-38" d="M95.19,99.58c-3.25,20.67-22.64,34.79-43.3,31.54-6.32-.99-12.01-3.51-16.79-7.09,6.52,11.46,18.81,19.2,32.93,19.2,20.92,0,37.88-16.96,37.88-37.88V31.38l-10.71,68.19Z"/>
  </g>
  <g>
    <g class="cls-105">
      <path class="cls-104" d="M70.36,96.79h-4.67v-2.38c2.36.7,2.9.63,3.72.6,10.06,1.38,21.11-4.35,22.75-15.4,1.23-9.41-6.14-18.83-15.96-17.6-4.91.82-10.23,4.91-10.23,10.23,2.87-6.96,10.64-10.23,17.19-6.55,7.37,4.5,8.19,14.33,2.87,20.47-5.73,6.96-16.37,7.37-22.92,1.23-8.19-7.37-8.19-20.47-.08-27.41,1.75-1.65,2.68-2.33,2.68-2.33,0,0-1.03.83-2.37,2.19-6.78,6.26-8,16.5-2.68,24.27,4.91,6.96,13.92,9.01,21.29,4.91,5.32-3.27,7.78-8.6,6.55-14.74-1.23-4.5-4.09-7.78-8.6-9.01-4.91-1.23-10.23,1.64-11.87,6.55-1.23,4.09,1.23,8.6,5.73,9.41,2.46.41,4.09-1.23,6.14-1.64-.41,2.87-3.27,3.68-5.73,4.09-5.73.41-9.82-4.91-9.82-9.82,0-6.55,5.32-11.87,11.46-12.69,10.23-1.23,18.42,8.19,17.19,18.01-1.64,10.64-11.87,17.6-22.16,16.57-.46.62-.46,1.02-.46,1.02Z"/>
      <path class="cls-104" d="M76.94,96.79h-4.67s.14-.37.64-1.03c5.34.23,10.66-1.82,14.75-5.5,6.96-6.96,7.78-18.42,0-25.38-3.68-3.27-8.19-4.09-12.69-3.68-5.32.82-9.01,4.5-10.64,9.41-1.64,6.55,2.87,14.33,10.23,13.51,2.46-.41,4.91-1.64,6.14-3.68.82-2.05.82-5.32-1.23-6.55-.82,2.05.41,4.5-2.05,5.73-2.46,1.64-5.32.82-7.37-.82-2.46-2.46-2.46-6.55-.41-9.41,3.27-4.5,9.41-5.32,13.92-2.05,7.37,5.32,6.14,15.96-.82,20.88-4.5,3.27-10.23,3.27-15.15,1.23-6.14-2.87-11.05-9.82-9.41-16.78-.41,6.96,3.68,13.51,9.82,16.37,6.55,2.87,13.92.82,18.01-5.32,2.87-4.91,2.46-11.05-1.64-14.74-2.46-2.05-5.73-3.27-9.01-2.46-4.09.82-6.55,4.5-5.73,8.6.41,2.87,4.5,5.32,6.14,2.46.82-1.23-2.46-1.64-2.05-3.68.82-2.87,3.68-3.27,6.14-2.05,1.64,1.23,2.46,2.87,2.87,4.91.41,3.68-2.05,6.14-4.91,7.78-6.55,2.87-13.51-2.46-14.33-9.41-.82-7.78,5.73-14.33,13.1-14.74,6.55-.41,12.28,3.27,15.15,9.01,2.05,4.91,2.46,10.23.41,15.15-2.05,4.5-6.14,8.19-10.71,10.2-4.34,1.66-4.52,2.06-4.52,2.06Z"/>
      <path class="cls-104" d="M83.52,96.79h-4.67s.11-.41,2.79-1.83c10.11-3.88,15.03-15.75,10.52-25.58-2.87-6.14-9.82-9.82-16.78-9.01-6.96.82-12.69,7.37-12.28,14.33.41,6.14,5.73,11.05,12.28,10.64,2.46,0,4.5-1.64,6.14-3.68,2.87-3.68,1.64-10.23-3.68-11.05-4.09-.82-6.14,3.68-4.91,6.96-4.5-1.23-3.27-6.55-.82-9.01,3.27-2.46,6.96-2.46,10.23-.82,4.91,2.87,6.14,9.82,4.09,14.74-1.64,3.68-5.32,6.14-9.41,7.37-8.19,1.64-15.55-3.68-18.01-11.46-2.87-9.82,4.09-18.83,13.1-22.1-5.32,1.64-9.41,5.32-11.87,10.23-3.27,6.96-1.23,15.55,5.32,20.47,5.73,3.68,13.51,3.68,18.01-1.64,3.27-3.68,4.09-9.01,1.23-13.51-1.23-1.64-2.46-3.27-4.91-3.27,3.27,2.87,5.73,7.78,3.68,11.87-1.64,2.87-4.09,4.91-6.96,5.73-4.09.82-7.78-.41-10.64-3.27-3.68-4.09-4.5-10.23-2.05-15.15,3.68-7.37,12.69-9.82,19.65-6.96,6.14,2.46,10.23,8.6,10.64,15.15.41,6.55-2.87,12.69-7.77,16.77-2.4,1.93-2.65,2.49-2.93,3v1.1Z"/>
    </g>
    <ellipse class="cls-63" cx="75.09" cy="75.92" rx="6.63" ry="15.83"/>
  </g>
</svg>